<?xml version="1.0" encoding="utf-8"?>
<!-- Generator: Adobe Illustrator 16.0.0, SVG Export Plug-In . SVG Version: 6.00 Build 0)  -->
<!DOCTYPE svg PUBLIC "-//W3C//DTD SVG 1.1//EN" "http://www.w3.org/Graphics/SVG/1.1/DTD/svg11.dtd">
<svg version="1.1" id="Layer_1" xmlns="http://www.w3.org/2000/svg" xmlns:xlink="http://www.w3.org/1999/xlink" x="0px" y="0px"
	 width="672.48px" height="641.3px" viewBox="0 0 672.48 641.3" enable-background="new 0 0 672.48 641.3" xml:space="preserve">
<g id="Yz2fEK_1_">
	<g>
		<g>
			<path fill="#050806" d="M271.2,125.89c5.04,0,10.08,0,15.12,0c0.95,0.828,2.103,0.636,3.197,0.569
				c1.35-0.083,2.629,0.178,3.862,0.647c2.451,0.934,4.985,0.878,7.536,0.775c1.588-0.064,3.109-0.379,4.661-0.76
				c2.257-0.554,4.404,0.038,6,1.848c0.931,1.054,1.87,1.42,3.256,0.945c2.737-0.939,5.589-1.448,8.211-2.845
				c1.802-0.959,3.98-1.072,6.077-0.897c0.361,0.03,0.682,0.23,0.989,0.416c2.578,1.559,4.724,3.55,6.054,6.292
				c0.354,0.729,0.848,1.136,1.592,1.295c1.776,0.38,3.458,0.819,5.396,0.385c2.881-0.645,5.311,0.708,7.226,2.854
				c0.925,1.038,1.829,2.129,2.364,3.448c0.385,0.951,1.005,1.008,1.812,0.548c0.834-0.476,1.74-0.811,2.586-1.257
				c2.294-1.211,4.731-1.491,7.29-1.506c2.344-0.014,4.694,0.085,7.04-0.103c0.622-0.05,1.077-0.25,1.351-0.812
				c0.377-0.774,1.022-1.254,1.822-1.446c1.845-0.443,3.24-1.897,5.136-2.223c0.454-0.078,0.68-0.544,0.915-0.909
				c1.373-2.125,3.55-2.795,5.847-3.007c2.021-0.187,4.082-0.16,6.11-0.008c2.41,0.18,4.205,1.635,5.719,3.382
				c0.567,0.656,1.045,1.414,1.643,2.054c2.632,2.819,4.329,6.153,5.796,9.694c0.999,2.412,1.287,5.024,2.443,7.368
				c0.339,0.688,0.046,1.502,0.106,2.258c0.066,0.84,0.433,1.432,1.33,1.346c2.798-0.267,5.122,0.978,7.451,2.231
				c0.563,0.303,1.117,0.625,1.697,0.894c1.031,0.478,1.753,1.25,2.188,2.285c0.667,1.588,1.275,3.213,1.443,4.93
				c0.425,4.325,0.872,8.653,0.755,13.011c-0.038,1.423-0.393,2.72-1.171,3.961c-0.951,1.517-1.523,3.252-2.492,4.772
				c-0.527,1.282-1.155,2.475-2.623,2.914c-0.152,0.046-0.326,0.166-0.354,0.307c-0.354,1.868-1.896,3.304-1.793,5.369
				c0.129,2.561-0.004,5.12-1.13,7.513c-0.966,2.053-2.381,3.368-4.839,3.17c-1.151-0.093-2.32,0.071-3.469-0.162
				c-0.683-0.139-1.041,0.124-1.176,0.822c-0.16,0.834-0.196,1.671-0.15,2.508c0.06,1.106-0.15,2.146-0.611,3.143
				c-0.994,2.147-2.353,4.074-3.692,6.006c-1.809,2.608-4.425,2.902-7.269,2.382c-0.785-0.144-1.57-0.299-2.353-0.463
				c-0.452-0.095-0.813,0.008-0.982,0.452c-0.342,0.895-1.027,1.519-1.68,2.16c-0.5,0.492-0.788,1.091-1.094,1.701
				c-0.256,0.511-0.165,0.881,0.189,1.3c0.777,0.915,1.599,1.79,2.357,2.718c1.087,1.33,1.744,2.787,1.713,4.592
				c-0.045,2.633-0.113,5.268,0.164,7.907c0.184,1.742-0.014,3.496-0.826,5.136c-0.623,1.257-0.734,2.688-1.228,4.004
				c-1.497,3.998-2.729,8.092-4.231,12.085c-1.238,3.292-2.086,6.704-3.299,9.999c-0.249,0.675-0.541,1.333-0.863,1.978
				c-0.614,1.229-1.311,1.672-2.685,1.512c-1.101-0.128-2.245-0.121-3.249-0.728c-0.603-0.364-0.838-0.03-1.012,0.527
				c-1.017,3.274-2.083,6.531-3.488,9.666c-0.428,0.954-0.459,2.024-0.845,2.996c-0.148,0.373-0.037,0.692,0.368,0.888
				c1.995,0.963,3.555,2.578,5.389,3.729c3.637,2.283,6.402,5.512,9.655,8.199c2.097,1.732,3.48,4.057,5.126,6.16
				c1.204,1.539,2.411,3.073,3.639,4.593c1.807,2.236,3.656,4.445,4.709,7.187c0.329,0.855,0.956,1.569,1.474,2.325
				c1.413,2.066,2.25,4.398,3.267,6.655c0.683,1.516,1.379,3.036,2.204,4.492c0.905,1.596,1.744,3.25,2.209,5.026
				c0.42,1.603,1.416,2.85,2.247,4.198c0.504,0.817,1.043,1.611,1.419,2.497c0.795,1.871,2.07,3.536,2.528,5.541
				c0.428,1.871,1.253,3.603,1.74,5.44c0.219,0.824,0.517,0.869,1.237,0.673c2.094-0.571,3.973-1.655,5.97-2.454
				c1.104-0.442,2.219-0.888,3.307-1.381c3.163-1.435,6.38-2.742,9.571-4.109c2.313-0.992,4.646-1.941,6.943-2.973
				c1.346-0.604,1.801-0.44,2.88,0.532c1.428,1.286,2.202,2.904,2.742,4.686c0.427,1.404,1.331,2.633,1.493,4.143
				c0.059,0.546,0.332,0.675,0.92,0.389c1.725-0.839,3.351-1.854,5.054-2.73c1.995-1.027,3.878-0.555,3.845,2.039
				c-0.039,3.112,0.306,6.29-0.896,9.247c-1.083,2.665-1.992,5.397-3.162,8.025c-0.909,2.042-1.393,4.247-2.462,6.231
				c-0.768,1.425-0.345,2.962,0.107,4.323c1.261,3.788,2.043,7.697,3.066,11.541c0.751,2.82,1.74,5.645,1.481,8.688
				c-0.076,0.906-0.349,1.715-0.595,2.534c-0.577,1.924-0.501,3.964-1.142,5.868c-0.088,0.265-0.088,0.582-0.279,0.785
				c-1.878,1.997-2.544,4.652-3.809,6.981c-0.114,0.211-0.166,0.516-0.346,0.622c-1.562,0.92-1.44,2.671-2.03,4.062
				c-0.621,1.469-1.081,2.995-1.573,4.514c-0.56,1.729-0.938,3.558-1.981,5.117c-0.6,0.896-1.351,1.484-2.458,1.444
				c-0.825-0.029-1.564,0.291-2.339,0.471c-0.24,0.056-0.484,0.131-0.587,0.37c-1.004,2.333-3.278,3.444-4.989,5.079
				c-1.285,1.229-2.555,2.506-3.992,3.587c-1.252,0.942-1.689,0.995-3.019,0.26c-1.831-1.015-3.365-2.435-5.063-3.628
				c-0.577-0.405-0.826-0.395-1.173,0.235c-2.403,4.374-5.143,8.56-7.395,13.018c-0.931,1.842-2.514,2.957-4.119,4.047
				c-3.734,2.534-7.432,5.121-11.153,7.672c-5.756,3.944-11.464,7.949-17.665,11.226c-5.863,3.099-11.566,6.506-17.38,9.706
				c-0.352,0.193-0.665,0.443-0.998,0.665c-5.699,2.968-11.231,6.237-16.852,9.349c-4.781,2.648-9.519,5.378-14.317,7.997
				c-0.957,0.522-1.33,1.246-1.302,2.331c0.055,2.154,0.04,4.312-0.001,6.466c-0.009,0.501,0.196,1.184-0.622,1.348
				c-2.984-0.003-5.966,0-8.947-0.001c-4.273,0-8.546-0.003-12.82,0c-3.592,0.004-7.182-0.222-10.773-0.105
				c-0.968,0.03-1.487-0.395-1.767-1.26c-0.295-0.912-0.641-1.824-0.784-2.763c-0.313-2.051-1.303-3.559-3.183-4.459
				c-4.778-3.063-9.566-6.117-14.344-9.186c-6.764-4.344-13.543-8.663-20.309-13.004c-4.207-2.7-8.427-5.379-12.628-8.09
				c-10.076-6.501-20.198-12.931-30.328-19.347c-1.523-0.965-2.706-2.092-3.565-3.739c-2.104-4.035-4.543-7.886-6.775-11.853
				c-0.299-0.532-0.436-0.638-1.04-0.248c-1.782,1.146-3.369,2.567-5.212,3.622c-1.287,0.736-1.819,0.718-2.914-0.202
				c-2.564-2.155-5.001-4.453-7.505-6.677c-0.389-0.345-0.878-0.668-1.046-1.141c-0.499-1.403-1.729-1.699-2.874-1.671
				c-2.353,0.058-3.287-1.465-3.896-3.251c-0.964-2.828-1.833-5.688-2.902-8.482c-0.214-0.558-0.437-1.122-0.362-1.744
				c0.03-0.246,0.031-0.521-0.208-0.646c-1.712-0.896-1.925-2.735-2.731-4.217c-0.753-1.384-1.241-2.918-2.383-4.103
				c-0.743-0.771-0.916-1.891-0.99-2.899c-0.117-1.571-0.417-3.1-0.853-4.588c-0.786-2.682-0.321-5.25,0.285-7.883
				c0.824-3.579,1.999-7.064,2.707-10.677c0.302-1.539,0.925-3.024,1.32-4.565c0.481-1.882,0.018-3.555-0.744-5.207
				c-1.303-2.831-2.362-5.756-3.435-8.677c-0.44-1.197-0.821-2.408-1.421-3.552c-0.876-1.669-0.924-3.544-1.025-5.377
				c-0.075-1.356,0.016-2.72-0.021-4.079c-0.08-2.901,2.054-3.142,3.982-2.155c1.627,0.832,3.176,1.813,4.797,2.667
				c0.809,0.427,0.992,0.089,1.123-0.548c0.427-2.084,1.554-3.907,2.189-5.909c0.44-1.388,1.545-2.211,2.491-3.164
				c0.605-0.61,1.385-0.526,2.132-0.205c4.186,1.802,8.4,3.538,12.582,5.347c3.405,1.472,6.792,2.98,10.23,4.377
				c1.141,0.463,2.201,1.104,3.426,1.397c0.648,0.154,0.803-0.02,0.975-0.603c0.552-1.867,1.198-3.709,1.808-5.555
				c1.116-3.377,2.826-6.518,4.84-9.45c0.748-1.089,1.144-2.286,1.604-3.457c1.59-4.053,3.761-7.833,5.429-11.848
				c0.612-1.473,1.385-2.878,2.369-4.16c1.103-1.438,1.507-3.266,2.554-4.738c1.646-2.312,3.379-4.546,5.265-6.681
				c1.79-2.027,3.318-4.289,4.967-6.442c1.065-1.39,2.458-2.39,3.712-3.549c1.73-1.599,3.412-3.251,5.191-4.797
				c0.06-0.052,0.098-0.141,0.167-0.17c2.964-1.275,4.764-4.264,7.862-5.338c0.626-0.217,0.48-0.693,0.326-1.086
				c-0.906-2.32-1.124-4.827-1.922-7.162c-0.648-1.897-0.99-3.861-1.567-5.767c-0.37-1.221-0.66-1.322-1.807-0.74
				c-0.178,0.09-0.362,0.184-0.508,0.317c-1.71,1.562-2.993,0.65-4.146-0.95c-0.513-0.711-1.016-1.425-1.561-2.115
				c-1.632-2.065-3.188-4.191-4.683-6.357c-0.935-1.355-1.288-3.003-1.893-4.519c-1.228-3.074-2.477-6.144-3.462-9.311
				c-0.206-0.663-0.309-1.315-0.308-2c0.004-2.84,0.074-5.683-0.027-8.519c-0.056-1.563,0.425-2.806,1.474-3.897
				c0.553-0.577,1.054-1.205,1.682-1.708c0.324-0.26,0.556-0.52,0.011-0.791c-0.923-0.458-1.614-1.149-2.145-2.032
				c-0.299-0.498-0.843-0.567-1.377-0.58c-0.744-0.017-1.444-0.208-2-0.699c-0.585-0.516-1.098-0.395-1.584,0.073
				c-2.23,2.15-5.122,3.1-7.897,4.172c-2.403,0.928-5.008,1.006-7.573,0.67c-1.519-0.199-2.737-0.998-3.768-2.154
				c-2.254-2.531-5.068-3.997-8.498-3.954c-1.826,0.023-3.572-0.355-5.345-0.63c-0.556-0.086-1.117-0.284-1.531-0.658
				c-2.335-2.11-4.528-4.305-4.637-7.766c-0.042-1.313-0.22-2.609-0.165-3.941c0.111-2.631,1.074-4.862,2.603-6.948
				c0.781-1.064,0.687-1.245-0.421-2.007c-1.056-0.726-2.005-1.586-3.047-2.332c-1.765-1.265-2.342-3.125-2.564-5.2
				c-0.5-4.67,1.524-8.36,4.397-11.751c1.343-1.586,2.484-3.333,3.881-4.876c0.361-0.398,0.333-0.779,0.014-1.179
				c-0.502-0.627-0.824-1.376-1.306-2.011c-2.232-2.932-1.974-6.201-1.297-9.515c0.143-0.701,0.327-1.401,0.51-2.096
				c0.414-1.572,1.289-2.775,2.661-3.701c2.324-1.567,4.76-2.937,7.187-4.327c0.898-0.515,1.453-1.153,1.543-2.243
				c0.095-1.145,0.643-2.128,1.458-2.956c0.844-0.857,1.757-1.646,2.717-2.354c1.217-0.896,2.594-1.429,4.167-1.065
				c0.117,0.027,0.249,0.067,0.356,0.035c2.111-0.638,4.252-0.256,6.364-0.095c2.833,0.216,5.749-0.577,8.503,0.657
				c0.383,0.171,0.804,0.143,1.153-0.098c1.395-0.962,3.029-1.044,4.605-1.108c2.869-0.116,5.76-0.24,8.569,0.601
				c0.614,0.184,1.104-0.072,1.564-0.399c1.604-1.139,3.224-2.231,5.192-2.665c0.642-0.141,0.834-0.712,0.999-1.248
				c0.401-1.303,0.985-2.533,1.478-3.8c0.487-1.252,1.214-2.3,2.357-3.094c1.009-0.701,1.368-1.941,2.004-2.945
				c0.474-0.747,0.928-1.49,1.574-2.1c1.944-1.651,3.363-3.79,5.162-5.573c1.589-1.577,2.836-3.488,4.97-4.537
				C269.504,127.24,270.464,126.677,271.2,125.89z"/>
			<path fill-rule="evenodd" clip-rule="evenodd" fill="#FEFEFE" d="M419.273,188.282c0.883-1.762,1.732-3.54,2.731-5.243
				c0.578-0.985,0.927-2.089,0.871-3.249c-0.082-1.699-0.175-3.433-0.135-5.095c0.054-2.18-0.417-4.28-0.468-6.433
				c-0.061-2.569-0.618-5.185-2.103-7.446c-0.224-0.342-0.475-0.641-0.838-0.826c-1.535-0.777-3.126-1.461-4.597-2.345
				c-1.655-0.993-3.423-1.173-5.256-1.064c-1.005,0.06-1.411-0.409-1.369-1.303c0.074-1.58-0.07-3.083-1.027-4.423
				c-0.171-0.239-0.23-0.584-0.267-0.889c-0.354-2.98-1.727-5.609-2.985-8.245c-1.201-2.517-2.845-4.777-4.771-6.83
				c-1.067-1.137-1.949-2.466-3.348-3.238c-1.012-0.559-1.954-1.258-3.249-1.196c-1.915,0.092-3.841-0.046-5.756,0.041
				c-2.546,0.115-4.709,1.061-6.044,3.363c-0.308,0.532-0.62,0.779-1.207,0.684c-0.704-0.114-1.292,0.252-1.741,0.655
				c-0.618,0.555-1.313,0.867-2.073,1.044c-1.309,0.305-2.377,0.912-2.907,2.191c-0.226,0.543-0.576,0.527-1.044,0.524
				c-2.835-0.022-5.672-0.086-8.504,0.002c-2.671,0.083-5.144,0.98-7.495,2.221c-0.74,0.391-1.498,1.034-2.252,1.041
				c-0.958,0.008-0.866-1.22-1.285-1.873c-1.01-1.57-2.109-3.042-3.641-4.16c-1.811-1.322-3.799-1.647-5.955-1.186
				c-2.282,0.488-4.416-0.17-6.388-1.147c-0.536-0.265-0.598-1.501-1.089-2.224c-1.448-2.124-3.33-3.73-5.548-4.99
				c-0.577-0.328-1.189-0.275-1.748-0.186c-1.988,0.319-3.992,0.285-5.856,1.502c-2.027,1.323-4.619,1.417-6.878,2.275
				c-1.629,0.619-2.551,0.156-3.696-1.049c-1.785-1.877-4.076-2.526-6.607-1.4c-1.246,0.554-2.572,0.349-3.848,0.365
				c-1.653,0.022-3.364-0.154-4.97-0.096c-1.726,0.062-2.939-0.925-4.454-1.188c-1.082-0.188-2.093,0.005-3.131-0.079
				c-0.713-0.057-1.412-0.095-2.089-0.337c-0.334-0.12-0.332-0.156,0.062-0.562c97.628,0,195.255,0.002,292.883-0.029
				c1.021,0,1.141,0.265,1.141,1.191c-0.024,129.223-0.024,258.447-0.001,387.67c0,0.915-0.103,1.197-1.135,1.197
				c-82.989-0.032-165.979-0.03-248.968-0.03c-0.136-0.08-0.142-0.169-0.018-0.267c0.01-2.793,0.046-5.586,0.014-8.377
				c-0.008-0.718,0.167-1.153,0.825-1.521c9.939-5.545,19.863-11.118,29.795-16.677c0.655-0.367,1.346-0.67,2.02-1.003
				c6.337-2.659,12.812-4.973,19.161-7.6c4.101-1.697,8.159-3.496,12.196-5.338c5.455-2.49,10.855-5.096,16.188-7.841
				c6.432-3.311,12.726-6.86,18.925-10.589c5.071-3.05,10.105-6.154,14.957-9.54c5.703-3.98,11.274-8.129,16.668-12.537
				c6.979-5.705,13.562-11.819,19.82-18.286c5.506-5.688,10.662-11.688,15.522-17.945c1.421-1.829,2.784-3.7,4.22-5.517
				c2.779-3.518,5.131-7.337,7.745-10.97c4.913-6.827,9.035-14.146,13.412-21.306c2.48-4.058,4.844-8.189,7.147-12.349
				c3.602-6.501,7.231-12.986,10.872-19.464c2.818-5.014,5.652-10.022,8.502-15.02c2.809-4.926,5.627-9.851,8.393-14.804
				c2.709-4.851,5.28-9.772,7.864-14.685c1.874-3.564,3.525-7.25,5.231-10.903c1.474-3.155,2.793-6.362,4.007-9.615
				c2.084-5.585,3.79-11.273,4.645-17.204c0.552-3.831,0.673-7.669,0.11-11.464c-1.26-8.501-6.018-14.653-13.38-18.848
				c-6.832-3.893-14.257-6.206-21.856-8.074c-7.614-1.872-15.312-3.296-23.053-4.472c-8.929-1.357-17.886-2.526-26.857-3.583
				c-5.316-0.627-10.635-1.25-15.941-1.98c-4.548-0.626-9.136-0.995-13.688-1.613c-7.802-1.06-15.608-2.098-23.38-3.369
				c-6.231-1.019-12.453-2.096-18.656-3.28c-0.628-0.12-1.259-0.238-1.858-0.471C419.277,189.182,418.978,188.869,419.273,188.282z"
				/>
			<path fill-rule="evenodd" clip-rule="evenodd" fill="#FFFFFF" d="M291.6,506.772c0.748,0.457,1.482,0.94,2.25,1.361
				c0.487,0.268,0.609,0.713,0.737,1.173c0.472,1.689,0.983,3.37,1.386,5.076c0.191,0.812,0.538,1.065,1.381,1.07
				c7.838,0.046,15.676,0.143,23.514,0.225c0.089,0.041,0.121,0.087,0.095,0.136c-0.027,0.051-0.054,0.076-0.083,0.076
				c-75.708,0-151.417-0.003-227.126,0.03c-1.028,0-1.137-0.276-1.137-1.195c0.024-129.221,0.024-258.441-0.009-387.662
				c0-1.088,0.315-1.194,1.259-1.193c59.111,0.023,118.222,0.021,177.333,0.021c-0.214,0.226,0.874,0.215,0.083,0.591
				c-3.034,1.442-5.45,3.603-7.642,6.159c-1.555,1.813-2.981,3.787-4.887,5.292c-0.6,0.31-1.222,0.299-1.869,0.169
				c-4.984-1.001-10.045-1.466-15.093-1.942c-3.493-0.33-7.021-0.304-10.538-0.351c-8.999-0.121-17.87,0.957-26.685,2.6
				c-8.861,1.652-17.508,4.124-25.95,7.262c-6.747,2.509-13.331,5.404-19.712,8.76c-5.593,2.941-11.05,6.087-16.313,9.595
				c-6.535,4.356-12.672,9.187-18.482,14.467c-6.517,5.923-12.212,12.536-17.034,19.886c-3.194,4.868-5.654,10.124-7.362,15.693
				c-1.907,6.219-2.435,12.614-2,19.087c0.317,4.72,1.349,9.305,2.479,13.896c1.371,5.573,3.306,10.94,5.376,16.26
				c2.114,5.432,4.305,10.837,6.664,16.174c1.243,2.811,2.246,5.728,3.436,8.566c1.793,4.279,3.262,8.683,4.671,13.095
				c1.434,4.488,2.62,9.054,3.516,13.692c0.972,5.031,1.561,10.104,1.635,15.222c0.054,3.713-0.185,7.418-0.683,11.109
				c-0.926,6.869-2.458,13.598-4.466,20.224c-1.473,4.855-3.155,9.638-4.896,14.404c-1.466,4.017-2.932,8.036-4.525,12.002
				c-2.041,5.081-4.009,10.19-5.93,15.314c-1.359,3.626-2.713,7.259-3.972,10.927c-1.404,4.091-2.607,8.232-3.766,12.391
				c-1.473,5.286-2.375,10.678-2.84,16.15c-0.406,4.77-0.17,9.496,0.794,14.175c0.755,3.661,2.127,7.116,3.835,10.438
				c1.166,3.401,3.354,6.091,5.981,8.447c1.156,1.037,1.977,2.393,3.271,3.295c0.42,0.293,0.807,0.644,1.238,0.935
				c5.363,4.478,11.177,8.284,17.401,11.431c6.896,3.485,14.086,6.268,21.44,8.644c5.709,1.844,11.49,3.443,17.344,4.712
				c8.669,1.878,17.409,3.399,26.232,4.427c4.167,0.484,8.339,0.908,12.512,1.312c2.7,0.26,5.416,0.387,8.125,0.535
				c8.058,0.441,16.126,0.669,24.194,0.482c5.627-0.131,11.255-0.314,16.879-0.64c8.063-0.465,16.065-1.465,24.082-2.37
				c3.933-0.444,7.833-1.077,11.738-1.69C290.184,506.606,290.902,506.468,291.6,506.772z"/>
			<path fill-rule="evenodd" clip-rule="evenodd" fill="#ACACAC" d="M320.88,515.89c0.002-0.071-0.002-0.142-0.013-0.212
				c2.724-0.002,5.449-0.002,8.173-0.008c0.394-0.001,0.788-0.031,1.181-0.047c0.006,0.089,0.012,0.178,0.018,0.267
				C327.121,515.89,324,515.89,320.88,515.89z"/>
			<path fill-rule="evenodd" clip-rule="evenodd" fill="#858585" d="M291.6,506.772c-5.946,0.935-11.898,1.803-17.879,2.506
				c-7.764,0.911-15.537,1.646-23.34,2.058c-8.647,0.454-17.302,0.629-25.958,0.431c-5.82-0.133-11.635-0.432-17.447-0.845
				c-7.014-0.498-13.989-1.293-20.954-2.225c-6.883-0.921-13.708-2.188-20.48-3.694c-8.303-1.848-16.482-4.188-24.46-7.153
				c-4.47-1.662-8.86-3.536-13.142-5.661c-4.09-2.031-8.059-4.271-11.82-6.84c-2.419-1.652-4.828-3.364-6.932-5.44
				c-3.565-3.289-6.956-6.728-9.479-10.924c-0.305-0.508-0.38-1.142-0.865-1.544c-1.64-3.008-2.863-6.157-3.695-9.5
				c-1.122-4.51-1.458-9.075-1.216-13.669c0.231-4.402,0.85-8.771,1.818-13.09c1.935-8.629,4.682-16.999,7.852-25.242
				c1.623-4.222,3.104-8.498,4.788-12.694c2.146-5.346,4.215-10.72,6.225-16.117c2.708-7.272,5.219-14.612,7.155-22.131
				c1.515-5.879,2.652-11.846,3.167-17.896c0.305-3.586,0.253-7.198,0.047-10.81c-0.17-2.986-0.539-5.948-1.005-8.883
				c-0.494-3.115-1.185-6.208-1.997-9.269c-1.331-5.022-2.937-9.954-4.709-14.833c-1.121-3.087-2.434-6.103-3.618-9.162
				c-1.245-3.218-2.65-6.365-3.907-9.576c-0.966-2.47-1.895-4.958-2.98-7.375c-1.558-3.469-2.824-7.053-4.108-10.618
				c-1.054-2.926-1.907-5.941-2.696-8.97c-1.011-3.879-1.87-7.772-2.339-11.746c-0.321-2.713-0.402-5.436-0.336-8.183
				c0.096-3.977,0.547-7.883,1.542-11.719c1.354-5.218,3.499-10.106,6.193-14.782c3.465-6.014,7.688-11.432,12.387-16.511
				c5.127-5.541,10.772-10.488,16.771-15.065c4.143-3.161,8.438-6.077,12.84-8.857c4.147-2.619,8.43-4.995,12.788-7.221
				c5.367-2.742,10.905-5.121,16.51-7.352c5.693-2.265,11.533-4.069,17.428-5.667c5.853-1.586,11.793-2.836,17.821-3.63
				c4.39-0.578,8.78-1.148,13.204-1.322c7.836-0.309,15.653-0.019,23.446,0.906c3.092,0.367,6.16,0.855,9.222,1.4
				c0.429,0.076,0.875,0.053,1.312,0.075c-1.166,1.206-1.885,2.696-2.683,4.141c-0.222,0.402-0.524,0.847-0.908,1.057
				c-1.562,0.857-2.124,2.389-2.741,3.881c-0.392,0.947-0.677,1.937-1.027,2.901c-0.275,0.755-0.585,1.333-1.579,1.517
				c-2.082,0.386-3.675,1.826-5.429,2.906c-0.267,0.165-0.452,0.387-0.846,0.244c-3.686-1.331-7.462-0.984-11.24-0.571
				c-2.609,2.05-5.394-0.106-8.089,0.322c-1.359,0.215-2.781,0.021-4.173,0.055c-0.648,0.015-1.279,0.018-1.867-0.289
				c-0.57-0.298-1.234-0.322-1.751-0.115c-1.129,0.453-2.25,0.473-3.411,0.32c-0.118-0.015-0.24-0.009-0.36-0.004
				c-2.854,0.105-6.724,3.668-6.973,6.531c-0.081,0.928-0.504,1.434-1.23,1.885c-2.405,1.496-4.943,2.761-7.291,4.362
				c-1.43,0.975-2.376,2.172-2.873,3.829c-0.685,2.286-0.87,4.604-0.837,6.975c0.036,2.569,1.667,4.351,2.996,6.26
				c0.466,0.669,0.478,0.936-0.033,1.557c-2.101,2.554-4.243,5.091-6.129,7.801c-2.068,2.973-2.645,6.36-1.946,9.944
				c0.324,1.662,1.194,2.931,2.567,3.897c1.108,0.78,2.183,1.606,3.287,2.392c0.65,0.463,0.899,0.884,0.282,1.631
				c-1.83,2.216-2.789,4.759-2.941,7.667c-0.215,4.094,0.857,7.643,3.93,10.467c0.785,0.721,1.719,1.12,2.782,1.298
				c1.854,0.311,3.727,0.338,5.588,0.503c3.018,0.268,5.702,1.514,7.693,3.861c1.29,1.521,2.818,2.117,4.772,2.324
				c4.66,0.494,8.546-1.533,12.46-3.51c0.872-0.44,1.579-1.208,2.358-1.83c0.393-0.314,0.612-0.4,1.026,0.129
				c0.54,0.691,1.402,1.03,2.338,0.929c0.616-0.066,1.164,0.093,1.436,0.637c0.645,1.293,1.774,1.944,3.185,2.454
				c-1.569,1.165-2.811,2.458-3.834,3.981c-0.283,0.42-0.322,0.785-0.323,1.208c-0.007,3.36,0.028,6.72-0.025,10.079
				c-0.014,0.882,0.436,1.586,0.666,2.354c0.835,2.783,1.99,5.462,2.973,8.199c1.004,2.796,2.416,5.43,4.274,7.794
				c1.493,1.899,2.923,3.849,4.403,5.759c0.98,1.265,1.654,1.461,2.858,0.546c0.708-0.537,1.615-0.597,2.248-1.218
				c0.208-0.204,0.487-0.099,0.553,0.182c0.41,1.744,0.877,3.49,1.421,5.177c0.641,1.984,1.002,4.035,1.66,6.016
				c0.457,1.375,0.715,2.847,1.172,4.248c0.118,0.361-0.17,0.363-0.415,0.382c-1.657,0.13-2.734,1.356-3.943,2.238
				c-1.229,0.898-2.325,1.945-3.662,2.751c-1.411,0.851-2.645,2.05-3.813,3.237c-1.45,1.473-3.049,2.769-4.556,4.172
				c-1.478,1.375-2.592,3.051-3.763,4.664c-2.502,3.444-5.56,6.446-7.88,10.031c-0.793,1.226-1.06,2.708-1.993,3.864
				c-1.688,2.09-2.653,4.598-3.788,6.982c-1.323,2.78-2.645,5.564-3.924,8.364c-0.497,1.085-0.893,2.282-1.304,3.432
				c-0.451,1.258-1.435,2.317-2.128,3.498c-1.445,2.461-2.8,5-3.713,7.685c-0.396,1.166-0.62,2.475-1.041,3.666
				c-0.285,0.809-0.541,1.618-0.758,2.443c-0.056,0.214-0.201,0.441-0.395,0.292c-1.154-0.894-2.692-0.905-3.883-1.763
				c-0.61-0.44-1.464-0.505-2.19-0.834c-2.373-1.074-4.888-1.865-7.172-3.094c-1.827-0.981-3.774-1.688-5.644-2.504
				c-1.942-0.847-3.875-1.813-5.919-2.465c-0.763-0.243-1.477-0.638-2.213-0.964c-0.906-0.402-1.553-0.22-2.311,0.53
				c-1.747,1.729-2.247,4.028-3.237,6.119c-0.591,1.247-0.516,2.653-1.329,3.887c-0.978-0.929-2.268-1.398-3.441-2.002
				c-1.366-0.702-2.538-1.938-4.322-1.846c-1.044,0.054-1.557,0.61-1.56,1.391c-0.009,3.086-0.462,6.242,0.65,9.217
				c0.914,2.444,1.826,4.894,2.808,7.315c0.591,1.459,1.17,2.947,1.651,4.467c0.458,1.45,1.229,2.814,1.707,4.29
				c0.147,0.456,0.043,0.666-0.029,1.065c-0.242,1.347-0.5,2.679-0.896,3.993c-0.442,1.468-0.836,2.951-1.201,4.44
				c-0.336,1.373-0.569,2.772-1.067,4.102c-0.546,1.457-0.593,3.027-1.18,4.5c-0.799,2.009-0.944,4.244-0.537,6.317
				c0.405,2.062,1.002,4.076,1.307,6.182c0.149,1.036,0.526,2.195,1.549,3.159c0.873,0.822,1.308,2.346,1.86,3.594
				c0.663,1.496,0.96,3.235,2.763,3.927c0.14,0.054,0.392,0.141,0.296,0.298c-0.907,1.501,0.505,2.573,0.724,3.863
				c0.194,1.152,0.711,2.287,1.154,3.341c0.776,1.844,0.911,3.976,2.295,5.552c0.39,0.444,0.856,0.977,1.491,0.904
				c1.104-0.126,2.103,0.393,3.175,0.385c0.178-0.001,0.487-0.07,0.498,0.166c0.091,2.104,2.083,2.615,3.175,3.88
				c1.008,1.168,2.265,2.05,3.352,3.127c0.9,0.894,1.92,1.733,2.954,2.51c0.419,0.314,0.999,0.255,1.48-0.02
				c1.539-0.878,2.944-1.954,4.337-3.037c0.71-0.552,1.611-0.832,2.191-1.706c0.883,1.56,1.703,3.026,2.54,4.484
				c1.706,2.971,3.482,5.903,5.103,8.921c0.647,1.205,1.448,2.108,2.596,2.838c8.264,5.249,16.501,10.538,24.747,15.814
				c12.613,8.072,25.227,16.144,37.838,24.218C281.32,500.171,286.458,503.475,291.6,506.772z"/>
			<path fill-rule="evenodd" clip-rule="evenodd" fill="#858585" d="M419.273,188.282c-0.185,0.89,0.537,0.836,1.03,0.933
				c5.366,1.053,10.748,2.01,16.139,2.927c9.526,1.621,19.099,2.923,28.675,4.195c7.677,1.02,15.375,1.875,23.065,2.786
				c9.916,1.173,19.817,2.449,29.701,3.874c6.797,0.98,13.558,2.163,20.269,3.591c5.792,1.232,11.537,2.695,17.098,4.767
				c4.117,1.534,8.15,3.261,11.819,5.723c3.555,2.385,6.66,5.239,8.715,9.043c1.063,1.97,1.877,4.049,2.421,6.269
				c1.804,7.354,0.764,14.511-1.053,21.68c-1.309,5.166-3.114,10.155-5.169,15.044c-2.458,5.849-5.242,11.554-8.191,17.178
				c-3.254,6.207-6.586,12.368-10.081,18.441c-2.661,4.624-5.312,9.254-7.933,13.9c-2.757,4.889-5.469,9.802-8.209,14.699
				c-2.273,4.062-4.556,8.118-6.838,12.174c-5.08,9.027-10.326,17.954-15.762,26.775c-3.455,5.606-7.297,10.933-10.963,16.388
				c-1.872,2.785-3.915,5.442-5.956,8.086c-3.044,3.941-6.201,7.804-9.483,11.562c-4.812,5.511-9.871,10.781-15.17,15.816
				c-3.841,3.65-7.821,7.149-11.937,10.501c-2.654,2.163-5.325,4.302-8.053,6.368c-3.261,2.472-6.583,4.861-9.985,7.135
				c-2.378,1.589-4.745,3.197-7.154,4.736c-2.51,1.604-5.047,3.166-7.605,4.689c-2.869,1.708-5.738,3.419-8.674,5.008
				c-4.137,2.238-8.32,4.395-12.51,6.534c-7.578,3.87-15.314,7.402-23.154,10.706c-6.74,2.84-13.539,5.529-20.42,8.008
				c-0.328,0.118-0.646,0.342-1.03,0.227c3.21-2.098,6.636-3.821,9.958-5.724c5.544-3.175,11.138-6.26,16.675-9.445
				c1.162-0.67,2.105-1.717,3.262-2.4c1.235-0.73,2.389-1.571,3.562-2.38c2.62-1.805,5.22-3.645,7.84-5.445
				c2.019-1.387,3.963-2.902,6.145-4.063c2.633-1.401,3.872-3.972,5.162-6.473c0.902-1.747,1.783-3.546,2.872-5.141
				c1.373-2.013,2.329-4.233,3.72-6.28c1.6,1.182,3.214,2.399,4.858,3.578c0.63,0.451,1.29,0.897,2.002,1.183
				c0.443,0.178,0.992,0.134,1.451-0.278c2.712-2.432,5.459-4.823,8.162-7.264c0.552-0.499,1.265-0.99,1.042-1.941
				c-0.048-0.203,0.072-0.322,0.245-0.29c0.823,0.154,1.532-0.355,2.331-0.369c1.859-0.032,3.076-0.785,3.594-2.498
				c0.381-1.261,0.985-2.479,1.265-3.696c0.425-1.849,1.32-3.495,1.76-5.307c0.164-0.675,0.954-1.286,0.179-2.07
				c-0.203-0.206,0.089-0.328,0.267-0.396c1.77-0.664,2.003-2.421,2.776-3.814c0.802-1.447,1.092-3.189,2.419-4.333
				c0.825-0.711,0.871-1.826,0.991-2.673c0.285-2.021,0.915-3.943,1.279-5.91c0.289-1.56,0.404-3.309-0.239-5.014
				c-0.384-1.018-0.756-2.141-0.891-3.251c-0.22-1.808-0.956-3.474-1.276-5.245c-0.264-1.457-0.732-2.865-1.035-4.316
				c-0.275-1.322-0.64-2.689-1.125-3.965c-0.835-2.197,0.018-4.071,0.874-5.933c0.733-1.594,1.191-3.281,1.909-4.884
				c1.093-2.442,1.897-5.013,2.942-7.479c0.613-1.447,0.624-2.967,0.777-4.457c0.163-1.583,0.002-3.197,0.053-4.795
				c0.023-0.759-0.272-1.491-0.815-1.727c-0.681-0.296-1.606-0.347-2.312,0.059c-1.706,0.981-3.354,2.061-5.201,2.781
				c-0.419,0.163-0.729,0.982-1.084,0.705c-0.387-0.301-0.487-1.026-0.616-1.589c-0.51-2.219-1.535-4.238-2.401-6.318
				c-0.432-1.036-1.38-1.705-2.128-2.491c-0.435-0.458-1.154-0.208-1.788,0.05c-2.651,1.077-5.3,2.186-7.905,3.341
				c-1.796,0.796-3.688,1.407-5.429,2.397c-1.786,1.016-3.853,1.527-5.723,2.413c-1.841,0.871-3.803,1.467-5.581,2.443
				c-0.723,0.396-1.646,0.168-2.239,0.927c-0.258,0.33-0.44-0.081-0.485-0.369c-0.309-1.976-1.53-3.658-1.718-5.708
				c-0.1-1.083-0.668-2.179-1.23-3.149c-1.157-1.999-1.882-4.241-3.304-6.079c-1.85-2.39-2.216-5.457-3.734-7.959
				c-0.861-1.419-1.394-2.97-2.205-4.404c-0.89-1.573-1.479-3.332-2.265-4.984c-0.441-0.927-0.897-1.809-1.532-2.624
				c-0.925-1.188-1.505-2.587-2.171-3.93c-1.016-2.049-2.509-3.765-3.925-5.533c-1.16-1.45-2.365-2.856-3.443-4.381
				c-0.924-1.309-1.938-2.574-2.939-3.835c-2.289-2.881-5.357-4.97-7.892-7.615c-1.334-1.393-3.213-2.132-4.655-3.404
				c-1.587-1.398-3.144-2.787-5.266-3.312c-0.478-0.118-0.199-0.402-0.138-0.648c0.476-1.914,1.109-3.771,1.843-5.603
				c0.751-1.878,1.334-3.823,2.081-5.704c0.426-1.07,0.498-2.27,1.17-3.295c1.418,1.279,3.159,1.394,4.837,1.345
				c1.28-0.037,1.618-1.314,1.993-2.34c0.698-1.909,1.583-3.784,1.987-5.755c0.396-1.932,1.312-3.647,1.812-5.524
				c0.376-1.413,0.988-2.769,1.442-4.173c0.792-2.444,1.612-4.884,2.557-7.272c0.671-1.695,1.067-3.473,1.731-5.176
				c0.505-1.296,0.675-2.889,0.404-4.351c-0.456-2.463-0.324-4.944-0.193-7.396c0.138-2.578-1.151-4.326-2.703-6.046
				c-0.183-0.204-0.413-0.365-0.59-0.574c-0.484-0.569-1.47-1.426-1.334-1.684c0.584-1.109,1.074-2.338,2.097-3.179
				c0.274-0.226,0.568-0.445,0.782-0.723c0.374-0.485,0.348-1.473,0.89-1.539c0.774-0.094,1.619,0.248,2.412,0.477
				c1.48,0.426,2.991,0.577,4.477,0.229c1.955-0.458,3.215-1.956,4.089-3.579c0.692-1.285,1.655-2.37,2.306-3.684
				c0.581-1.173,1.018-2.292,0.97-3.605c-0.039-1.072,0.127-2.143,0.184-3.205c0.062-1.149,0.676-1.212,1.379-1.01
				c1.463,0.421,2.936,0.148,4.398,0.249c1.223,0.084,2.181-0.413,2.879-1.375c0.942-1.298,1.576-2.747,1.814-4.341
				c0.129-0.859,0.378-1.767,0.228-2.589c-0.507-2.772,0.955-5.053,1.668-7.522c0.046-0.16,0.082-0.328,0.263-0.356
				C418.021,190.78,418.64,189.524,419.273,188.282z"/>
			<path fill-rule="evenodd" clip-rule="evenodd" fill="#99968C" d="M258.354,297.506c1.121-0.317,1.586,0.415,2.274,1.496
				c3.409,5.353,6.663,10.803,10.356,15.981c3.197,4.483,7.302,7.68,12.042,10.348c2.415,1.359,4.631,3.074,7.156,4.316
				c3.625,1.784,7.283,3.494,11.064,4.893c4.48,1.656,9.126,2.835,13.942,2.244c3.84-0.472,7.533-1.631,11.152-3.088
				c4.05-1.631,7.897-3.664,11.838-5.512c0.432-0.202,0.871-0.428,1.236-0.729c1.639-1.354,3.445-2.444,5.289-3.483
				c4.188-2.358,7.437-5.666,10.178-9.607c3.036-4.365,5.897-8.833,8.652-13.374c0.599-0.986,1.408-1.845,1.787-2.967
				c0.06-0.176,0.226-0.461,0.329-0.456c1.277,0.071,2.611-0.466,3.823,0.356c2.149,1.46,4.231,3.037,6.271,4.623
				c2.166,1.685,4.45,3.357,6.065,5.682c0.302,0.434,0.898,0.365,1.284,0.752c1.113,1.114,1.895,2.458,2.808,3.714
				c1.393,1.915,2.945,3.713,4.36,5.613c1.483,1.992,3.558,3.558,4.218,6.16c0.196,0.775,1.074,1.352,1.472,2.107
				c1.371,2.611,2.69,5.247,3.925,7.933c1.294,2.815,2.746,5.581,3.903,8.443c0.938,2.318,2.017,4.57,3.004,6.859
				c1.031,2.39,1.905,4.849,3.104,7.174c0.476,0.923,0.806,1.949,1.278,2.894c0.207,0.413,0.112,0.521-0.294,0.788
				c-2.11,1.38-4.5,2.133-6.777,3.124c-5.181,2.256-10.409,4.401-15.586,6.666c-0.901,0.395-1.191,0.185-1.594-0.604
				c-1.871-3.668-3.808-7.303-5.724-10.948c-0.13-0.247-0.255-0.503-0.428-0.719c-0.513-0.64-1.159-0.987-1.999-0.764
				c-0.793,0.212-1.172,0.787-1.274,1.567c-0.64,4.834-1.22,9.677-1.947,14.498c-0.23,1.533-0.699,2.914-2.575,3.601
				c-3.526,1.291-6.91,2.968-10.37,4.443c-5.438,2.319-10.879,4.635-16.344,6.891c-2.337,0.965-4.508,2.123-6.523,3.693
				c-1.237,0.964-2.621,1.817-3.984,2.654c-1.081,0.663-2.067,1.534-3.14,2.26c-1.604,1.085-3.297,2.088-4.717,3.384
				c-1.549,1.415-3.154,2.803-4.413,4.536c-0.725,0.998-1.764,1.762-2.571,2.709c-1.42,1.668-2.333,3.668-3.382,5.564
				c-1.298,2.348-2.456,4.775-3.847,7.073c-0.334,0.552-0.123,1.61-0.95,1.621c-0.846,0.011-0.63-1.05-0.942-1.601
				c-1.998-3.539-3.976-7.089-5.881-10.678c-0.845-1.592-2.239-2.689-3.299-4.076c-1.222-1.596-2.808-2.835-4.1-4.36
				c-0.993-1.172-2.379-1.878-3.585-2.798c-1.63-1.242-3.388-2.294-5.021-3.554c-2.338-1.803-5.126-2.973-7.847-4.185
				c-10.26-4.567-20.502-9.175-30.757-13.754c-0.519-0.231-0.753-0.493-0.843-1.109c-0.751-5.141-1.565-10.272-2.365-15.405
				c-0.154-0.992-0.621-1.752-1.688-1.918c-1.04-0.163-1.621,0.46-2.054,1.31c-1.781,3.489-3.589,6.966-5.347,10.468
				c-0.327,0.651-0.585,0.89-1.342,0.545c-5.205-2.369-10.37-4.845-15.679-6.959c-2.495-0.994-4.714-2.636-7.42-3.12
				c-0.591-0.105-0.436-0.517-0.217-0.919c1.102-2.032,1.842-4.229,2.859-6.306c0.571-1.167,0.961-2.458,1.513-3.663
				c0.815-1.777,1.711-3.525,2.39-5.354c0.745-2.005,1.756-3.889,2.469-5.909c0.432-1.224,1.248-2.293,1.684-3.562
				c0.418-1.217,1.28-2.276,1.745-3.483c0.666-1.729,1.452-3.447,2.537-4.87c1.178-1.543,1.562-3.45,2.81-4.924
				c2.368-2.797,4.701-5.628,6.924-8.54c0.843-1.105,1.348-2.51,2.436-3.41c2.456-2.032,4.582-4.409,7.099-6.403
				c1.837-1.457,3.88-2.669,5.565-4.37C255.88,297.487,256.39,297.505,258.354,297.506z"/>
			<path fill-rule="evenodd" clip-rule="evenodd" fill="#D8D4CA" d="M312.88,332.994c-3.857,0.202-7.212-0.977-10.644-2.022
				c-3.431-1.046-6.601-2.686-9.969-3.848c-2.365-0.816-4.419-2.163-6.213-3.91c-1.501-1.461-3.314-2.456-5.114-3.494
				c-2.338-1.349-4.322-3.146-5.939-5.314c-3.709-4.974-7.053-10.19-10.224-15.519c-0.754-1.267-1.418-2.588-2.091-3.901
				c-0.341-0.667-0.637-1.332-0.398-2.155c0.229-0.79-0.587-1.274-0.785-1.974c-0.236-0.833-0.466-1.645-0.604-2.513
				c-0.192-1.214-0.815-2.357-1.044-3.57c-0.281-1.483-1.08-2.834-1.061-4.384c0.003-0.259,0.006-0.476-0.275-0.71
				c-0.47-0.391-0.418-1.047-0.143-1.501c0.339-0.561,0.803-0.039,1.13,0.13c2.409,1.248,4.969,2.125,7.584,2.72
				c2.275,0.517,4.638,0.696,6.974,0.897c3.408,0.294,6.804-0.153,10.109-0.842c6.139-1.28,11.639-4.004,15.941-8.651
				c3.37-3.64,5.646-7.953,6.861-12.821c0.717-2.874,0.88-5.798,1.158-8.716c0.06-0.623,0.196-0.943,0.905-0.932
				c2.119,0.035,4.24,0.039,6.359-0.001c0.768-0.015,0.979,0.311,0.935,1.002c-0.214,3.387,0.457,6.704,1.398,9.88
				c1.636,5.516,4.623,10.274,9.124,14.001c3.811,3.156,8.201,5.167,12.969,6.164c4.242,0.887,8.567,1.336,12.948,0.652
				c2.511-0.393,5.013-0.695,7.441-1.517c2.449-0.829,4.814-1.791,6.985-3.207c0.347-0.227,0.739-0.646,1.17-0.257
				c0.358,0.325,0.041,0.732-0.09,1.089c-1.006,2.727-1.998,5.458-3.029,8.174c-0.67,1.767-0.61,3.762-1.584,5.41
				c-0.812,1.373-0.3,3.01-1.213,4.396c-1.689,2.564-3.17,5.267-4.719,7.922c-2.2,3.773-4.781,7.292-7.373,10.791
				c-1.714,2.313-3.853,4.204-6.473,5.569c-1.645,0.857-3.236,1.881-4.579,3.236c-1.761,1.776-3.844,3.104-6.227,3.875
				c-2.426,0.784-4.602,2.167-7.037,2.9C321.664,331.362,317.437,333.404,312.88,332.994z"/>
			<path fill-rule="evenodd" clip-rule="evenodd" fill="#D9D4CA" d="M358.803,219.728c-4.857-1.406-9.798-1.681-14.811-1.145
				c-5.258,0.562-10.15,2.151-14.603,5.035c-5.316,3.444-8.917,8.238-11.111,14.134c-0.935,2.512-1.429,5.129-1.765,7.776
				c-0.101,0.797-0.47,1.091-1.259,1.079c-2.039-0.032-4.079-0.047-6.117,0.005c-0.877,0.022-1.194-0.313-1.283-1.158
				c-0.503-4.782-1.988-9.234-4.551-13.321c-3.107-4.954-7.413-8.483-12.721-10.862c-4.416-1.978-9.077-2.757-13.865-2.966
				c-1.257-0.457-2.483,0.125-3.729,0.15c-2.558,0.053-5.126,0.285-7.542,1.281h0c-2.534,0.624-4.968,1.494-7.192,2.889l-0.001,0
				c-1.244,0.521-2.257,1.41-3.378,2.126c-0.087,0.08-0.174,0.161-0.261,0.241c-0.873,0.192-0.747-0.491-0.736-0.93
				c0.023-0.96,0.251-1.901,0.425-2.844c0.818-4.447,1.73-8.894,3.261-13.14c1.393-3.861,3.063-7.657,6.383-10.407
				c0.889-0.736,1.539-1.716,2.041-2.788c0.748-1.593,1.584-3.143,2.348-4.729c0.889-1.849,2.329-3.059,4.131-4.005
				c2.783-1.46,5.727-2.435,8.723-3.308c1.621-0.473,3.332-0.384,4.947-0.903c4.639-1.489,9.357-2.762,13.628-5.213
				c1.489-0.854,2.672-2.07,3.678-3.399c1.665-2.201,3.438-4.316,5.06-6.549c0.899-1.239,1.204-1.269,2.331-0.162
				c2.681,2.633,5.446,5.192,8.35,7.561c4.365,3.562,8.8,7.083,13.631,9.992c3.692,2.222,7.685,3.935,11.67,5.594
				c2.629,1.094,5.242,2.2,7.599,3.808c1.208,0.824,2.537,1.147,3.941,1.274c0.993,0.089,1.663,0.612,2.299,1.344
				c2.14,2.466,3.27,5.468,4.615,8.367c2.637,5.68,3.815,11.766,5.083,17.831c0.081,0.387,0.274,0.875-0.102,1.121
				c-0.404,0.265-0.709-0.24-1.021-0.429C364.368,221.545,361.684,220.404,358.803,219.728z"/>
			<path fill-rule="evenodd" clip-rule="evenodd" fill="#FFFFFF" d="M344.929,250.169c5.117,0,10.234-0.001,15.352,0.001
				c0.522,0,1.188-0.118,0.667,0.795c-1.185,2.076-1.113,4.17,0.231,6.099c1.253,1.799,2.993,2.728,5.282,2.184
				c0.631-0.149,0.704,0.154,0.495,0.658c-2.487,5.996-6.728,10.094-13.122,11.555c-5.193,1.187-10.364,0.912-15.164-1.667
				c-5.295-2.844-8.323-7.424-9.65-13.211c-0.395-1.723-0.481-3.478-0.647-5.228c-0.084-0.892,0.146-1.2,1.084-1.193
				c5.157,0.039,10.314,0.019,15.472,0.019C344.929,250.178,344.929,250.174,344.929,250.169z"/>
			<path fill-rule="evenodd" clip-rule="evenodd" fill="#FFFFFF" d="M272.083,250.176c5.075,0,10.15-0.001,15.225,0.003
				c0.303,0,0.684-0.161,0.885,0.156c0.221,0.348-0.156,0.573-0.309,0.832c-2.039,3.466,0.267,8.077,4.2,8.386
				c0.278,0.021,0.559,0.009,0.838,0.002c0.462-0.011,1.013-0.544,1.337-0.136c0.353,0.444-0.185,0.96-0.387,1.404
				c-3.633,7.991-11.087,12.031-20.489,11.131c-8.79-0.84-15.459-6.992-17.126-15.726c-0.309-1.618-0.397-3.247-0.589-4.871
				c-0.106-0.896,0.13-1.2,1.07-1.193c5.115,0.039,10.23,0.019,15.345,0.019C272.083,250.182,272.083,250.179,272.083,250.176z"/>
			<path fill-rule="evenodd" clip-rule="evenodd" fill="#99968C" d="M358.803,219.728c1.557-0.205,2.808,0.695,4.165,1.183
				c1.715,0.617,3.3,1.517,5.081,2.731c-0.932-2.9-1.243-5.624-1.854-8.291c-1.258-5.487-3.426-10.617-5.873-15.653
				c-0.71-1.462-1.802-2.623-2.768-3.889c-0.553-0.725-1.387-0.625-2.087-0.696c-1.274-0.129-2.412-0.485-3.45-1.218
				c-3.2-2.258-6.886-3.545-10.448-5.028c-7.229-3.009-13.572-7.364-19.709-12.136c-4.076-3.169-7.833-6.672-11.566-10.213
				c-0.602-0.571-0.842-0.518-1.342,0.146c-2.107,2.805-4.134,5.68-6.498,8.282c-2.167,2.384-5.131,3.498-8.003,4.631
				c-2.884,1.138-5.872,2.088-8.892,2.787c-2.593,0.6-5.273,0.918-7.759,1.867c-3.098,1.183-6.506,2.037-8.519,4.982
				c-1.162,1.701-1.956,3.661-2.851,5.536c-0.701,1.468-1.651,2.705-2.885,3.762c-1.795,1.538-2.875,3.577-3.926,5.655
				c-3.097,6.117-4.086,12.808-5.375,19.417c-0.087,0.447-0.454,1.129,0.369,1.408c-0.36,0.763-0.764,1.434-1.784,0.913
				c-0.918-0.469-2.102-0.606-1.963-2.142c0.235-2.6,0.857-5.124,1.39-7.662c1.261-6.008,2.976-11.863,6.317-17.108
				c0.299-0.469,0.614-0.967,1.035-1.312c2.974-2.436,4.397-5.895,6.104-9.165c1.253-2.401,3.104-4.124,5.602-5.175
				c0.919-0.387,1.794-0.879,2.704-1.291c3.063-1.387,6.2-2.399,9.593-2.79c2.171-0.25,4.339-0.948,6.396-1.833
				c1.136-0.489,2.336-0.84,3.439-1.389c3.392-1.688,6.427-3.79,8.47-7.129c1.439-2.352,3.625-4.132,5.128-6.47
				c0.859-1.337,2.61-1.394,3.764-0.163c2.438,2.6,5.168,4.881,7.732,7.343c2.743,2.633,5.952,4.702,8.905,7.083
				c6.369,5.136,13.727,8.422,21.225,11.459c1.378,0.558,2.655,1.307,3.892,2.118c1.396,0.917,2.858,1.569,4.562,1.615
				c1.345,0.037,2.28,0.793,3.102,1.802c4.336,5.331,6.488,11.675,8.477,18.102c0.982,3.173,1.409,6.476,2.283,9.675
				c0.327,1.198,0.452,2.431,0.454,3.68c0.001,0.778-0.078,1-0.909,0.524c-2.649-1.516-4.991-3.569-7.941-4.565
				C361.315,220.683,360.063,220.191,358.803,219.728z"/>
			<path fill-rule="evenodd" clip-rule="evenodd" fill="#99968C" d="M275.807,246.588c-6.273,0-12.546-0.012-18.819,0.013
				c-0.873,0.003-1.322-0.248-1.14-1.169c0.759-3.837,1.98-7.462,4.585-10.507c3.333-3.895,7.564-6.014,12.629-6.456
				c4.347-0.378,8.607-0.083,12.571,2.026c4.896,2.607,7.926,6.67,9.388,11.963c0.253,0.917,0.417,1.858,0.647,2.781
				c0.283,1.131,0.13,1.347-1.042,1.348C288.353,246.588,282.08,246.587,275.807,246.588z"/>
			<path fill-rule="evenodd" clip-rule="evenodd" fill="#99968C" d="M348.489,246.587c-6.273,0.001-12.546-0.006-18.819,0.011
				c-0.767,0.002-1.282-0.133-1.133-1.054c0.856-5.313,3.058-9.892,7.356-13.289c2.756-2.178,5.925-3.41,9.413-3.747
				c4.759-0.46,9.397-0.14,13.664,2.35c4.671,2.725,7.479,6.819,8.86,11.97c0.206,0.769,0.302,1.568,0.509,2.337
				c0.278,1.04-0.017,1.444-1.152,1.438C360.955,246.566,354.722,246.586,348.489,246.587z"/>
			<path fill-rule="evenodd" clip-rule="evenodd" fill="#FFFFFF" d="M311.428,437.829c0.161,0.956,0.09,1.56-1.143,0.979
				c-0.884-0.416-1.855-0.652-2.798-0.935c-0.41-0.122-0.511-0.374-0.615-0.763c-1.821-6.818-4.433-13.383-6.469-20.134
				c-0.277-0.921-0.757-1.745-1.417-2.46c-2.223-2.406-4.385-4.872-6.676-7.211c-1.64-1.673-3.882-2.472-5.898-3.578
				c-5.857-3.215-11.751-6.363-17.633-9.534c-8.229-4.438-16.468-8.858-24.687-13.315c-6.327-3.431-12.629-6.907-18.942-10.364
				c-0.14-0.077-0.268-0.191-0.417-0.234c-0.484-0.14-0.65-0.59-0.498-0.903c0.175-0.359,0.593-0.009,0.842,0.098
				c4.055,1.722,8.096,3.477,12.143,5.216c6.605,2.84,13.213,5.675,19.821,8.51c6.429,2.759,12.797,5.671,19.309,8.219
				c4.682,1.831,8.477,4.961,12.574,7.664c2.053,1.354,4.035,2.818,6.074,4.194c2.286,1.543,3.837,3.827,5.809,5.685
				c2.741,2.582,3.935,6.134,5.793,9.268c0.648,1.093,1.178,2.256,1.848,3.334c1.012,1.63,1.173,3.51,1.667,5.29
				c0.793,2.863,1.017,5.803,1.058,8.757C311.185,436.37,311.66,437.058,311.428,437.829z"/>
			<path fill-rule="evenodd" clip-rule="evenodd" fill="#FFFFFF" d="M401.504,369.299c-0.307,0.958-1.18,1.23-1.918,1.634
				c-8.559,4.665-17.12,9.326-25.69,13.971c-5.076,2.75-10.178,5.453-15.253,8.205c-7.159,3.881-14.232,7.93-21.485,11.625
				c-3.606,1.837-6.022,4.778-8.637,7.609c-0.189,0.205-0.327,0.465-0.54,0.637c-2.148,1.739-3.037,4.17-3.81,6.704
				c-0.844,2.767-1.871,5.478-2.721,8.243c-0.895,2.906-2.066,5.729-2.681,8.719c-0.157,0.765-0.485,1.252-1.306,1.437
				c-0.92,0.206-1.844,0.468-2.703,0.85c-0.802,0.357-0.808-0.043-0.761-0.602c0.22-2.614,0.443-5.228,0.673-7.841
				c0.446-5.066,2.748-9.429,4.973-13.889c2.312-4.633,5.526-8.482,9.199-11.977c1.802-1.714,4.005-3.014,6.054-4.461
				c3.09-2.182,6.164-4.39,9.324-6.468c1.755-1.155,3.805-1.771,5.731-2.604c4.879-2.114,9.766-4.208,14.657-6.292
				c6.617-2.817,13.249-5.598,19.859-8.43c5.047-2.162,10.068-4.385,15.107-6.565C400.187,369.54,400.792,369.186,401.504,369.299z"
				/>
			<path fill-rule="evenodd" clip-rule="evenodd" fill="#FEFEFE" d="M322.338,436.451c0.023-1.25,0.576-2.24,0.908-3.27
				c1.422-4.405,3.034-8.753,4.355-13.188c0.599-2.009,2-3.297,3.236-4.777c0.433-0.519,0.994-0.943,1.37-1.496
				c2.414-3.543,6.253-5.086,9.806-7.018c8.904-4.842,17.824-9.656,26.744-14.47c5.046-2.724,10.113-5.404,15.153-8.138
				c7.254-3.933,14.489-7.899,21.736-11.845c9.325-5.077,18.653-10.149,27.985-15.217c2.944-1.599,5.901-3.175,8.855-4.756
				c0.379-0.202,0.86-0.758,1.096,0.097c0.154,0.563,1.107,1.137-0.06,1.765c-4.312,2.322-8.594,4.704-12.884,7.067
				c-8.586,4.73-17.168,9.468-25.756,14.193c-8.155,4.487-16.32,8.957-24.474,13.447c-8.131,4.478-16.255,8.968-24.378,13.46
				c-6.652,3.679-13.284,7.398-19.961,11.033c-1.464,0.797-2.097,2.104-2.73,3.471c-2.406,5.197-4.798,10.402-7.197,15.604
				c-0.44,0.953-1.332,1.7-1.222,2.911c0.03,0.33-0.455,0.479-0.734,0.509C323.579,435.902,323.079,436.235,322.338,436.451z"/>
			<path fill-rule="evenodd" clip-rule="evenodd" fill="#FEFEFE" d="M303.082,436.375c-0.672-0.196-1.25-0.332-1.801-0.541
				c-0.278-0.105-0.757-0.176-0.732-0.524c0.109-1.54-1.053-2.538-1.601-3.779c-2.379-5.377-4.903-10.69-7.391-16.019
				c-0.432-0.925-1.136-1.63-2.036-2.128c-5.891-3.257-11.774-6.528-17.674-9.77c-8.662-4.759-17.339-9.489-26.002-14.244
				c-7.765-4.262-15.53-8.524-23.278-12.815c-8.055-4.461-16.079-8.979-24.139-13.43c-5.192-2.867-10.42-5.67-15.643-8.483
				c-1.598-0.861-1.559-0.812-1.003-2.122c0.271-0.64,0.523-0.649,1.054-0.36c4.898,2.667,9.807,5.314,14.709,7.976
				c10.631,5.77,21.259,11.544,31.889,17.316c6.961,3.781,13.92,7.568,20.886,11.341c7.939,4.298,15.888,8.577,23.827,12.876
				c5.041,2.73,10.065,5.492,15.109,8.218c1.784,0.964,2.769,2.717,4.154,4.074c0.483,0.475,0.868,1.061,1.389,1.483
				c2.585,2.099,3.223,5.194,4.211,8.107c1.374,4.049,2.718,8.107,4.064,12.166C303.132,435.891,303.082,436.101,303.082,436.375z"
				/>
			<path fill-rule="evenodd" clip-rule="evenodd" fill="#D9D4CA" d="M442.118,397.961c2.314-3.884,4.605-7.728,7.045-11.82
				c0.646,2.435,1.24,4.619,1.802,6.812c0.667,2.603,1.186,5.25,2.001,7.805c0.439,1.377,0.131,2.6-0.177,3.828
				c-0.357,1.428-0.558,2.877-0.851,4.312c-0.118,0.58-0.323,0.855-1.006,0.856c-4.432,0.003-8.865,0.011-13.295,0.132
				c-1.521,0.042-2.329-1.111-3.473-1.684c-1.022-0.51-1.884-1.332-2.86-1.946c-1.586-0.999-2.37-2.65-3.442-4.07
				c-0.182-0.24-0.187-0.422,0.063-0.596c0.098-0.068,0.225-0.113,0.294-0.203c2.034-2.607,4.498-1.59,6.94-0.841
				c2.479,0.762,4.964,1.51,7.452,2.244c0.924,0.272,2.114-0.766,2.235-1.91C445.012,399.337,444.14,398.365,442.118,397.961z"/>
			<path fill-rule="evenodd" clip-rule="evenodd" fill="#D9D4CA" d="M176.289,386.147c2.428,4.072,4.719,7.917,7.087,11.888
				c-1.323,0.025-2.215,0.467-2.615,1.646c-0.341,1.009-0.111,1.832,0.596,2.625c0.688,0.771,1.33,0.433,2.111,0.205
				c3.108-0.905,6.345-1.465,9.333-2.657c2.406-0.96,3.242,0.987,4.725,1.758c0.467,0.243,0.008,0.5-0.118,0.762
				c-1.351,2.81-3.978,4.232-6.32,6.012c-1.728,1.314-3.544,1.556-5.589,1.489c-3.634-0.119-7.272-0.118-10.909-0.126
				c-0.622-0.001-0.932-0.145-1.057-0.791c-0.382-1.981-0.813-3.954-1.234-5.928c-0.2-0.935,0.089-1.796,0.319-2.681
				c1.087-4.18,2.147-8.366,3.218-12.551C175.956,387.341,176.087,386.886,176.289,386.147z"/>
			<path fill-rule="evenodd" clip-rule="evenodd" fill="#FEFEFD" d="M331.7,428.996c0.029-1.337,0.836-2.387,1.342-3.54
				c0.897-2.043,1.969-4.013,2.779-6.087c0.516-1.322,1.336-2.158,2.544-2.821c11.511-6.316,23-12.673,34.504-19.003
				c7.852-4.32,15.723-8.604,23.572-12.929c11.056-6.092,22.097-12.21,33.149-18.308c5.006-2.763,10.021-5.508,15.036-8.255
				c0.351-0.192,0.838-0.67,1.048,0.022c0.136,0.445,0.656,1.041-0.229,1.514c-3.091,1.649-6.14,3.378-9.201,5.083
				c-6.513,3.627-13.023,7.258-19.535,10.888c-6.625,3.694-13.249,7.392-19.876,11.084c-8.345,4.649-16.693,9.293-25.037,13.943
				c-7.72,4.304-15.436,8.612-23.152,12.921c-3.567,1.991-7.126,3.999-10.704,5.972c-0.876,0.483-1.505,1.154-1.946,2.029
				c-1.129,2.245-2.259,4.489-3.383,6.736c-0.16,0.319-0.247,0.687-0.642,0.815C331.851,429.16,331.761,429.139,331.7,428.996z"/>
			<path fill-rule="evenodd" clip-rule="evenodd" fill="#FDFDFD" d="M293.779,428.558c-0.052,0.113-0.084,0.332-0.185,0.37
				c-0.272,0.104-0.45-0.106-0.56-0.321c-0.472-0.924-0.931-1.854-1.393-2.783c-0.747-1.498-1.481-3.003-2.243-4.494
				c-0.488-0.955-1.298-1.566-2.227-2.084c-8.308-4.625-16.598-9.282-24.907-13.904c-7.031-3.91-14.089-7.771-21.119-11.682
				c-7.741-4.306-15.459-8.652-23.196-12.965c-8.387-4.676-16.787-9.329-25.178-13.998c-4.244-2.361-8.466-4.764-12.734-7.081
				c-0.877-0.477-0.396-1.051-0.267-1.509c0.195-0.69,0.675-0.261,1.041-0.061c7.634,4.192,15.274,8.372,22.897,12.583
				c6.94,3.835,13.852,7.722,20.794,11.553c5.779,3.188,11.592,6.313,17.375,9.495c7.492,4.121,14.968,8.272,22.454,12.406
				c7.848,4.333,15.697,8.664,23.556,12.976c0.514,0.282,0.965,0.586,1.186,1.12c1.334,3.245,2.909,6.379,4.395,9.555
				C293.585,427.983,293.665,428.251,293.779,428.558z"/>
			<path fill-rule="evenodd" clip-rule="evenodd" fill="#D8D4CA" d="M449.156,414.289c-0.289,1.951-1.404,3.12-3.414,3.76
				c-2.899,0.923-5.709,2.13-8.549,3.235c-0.582,0.227-1.092,0.343-1.689-0.023c-3.595-2.202-7.208-4.376-10.818-6.552
				c-0.342-0.206-0.519-0.47-0.518-0.871c0.002-0.87,0.005-1.729-0.26-2.588c-0.209-0.68,0.066-1.118,0.891-1.136
				c0.988-0.021,1.975-0.042,2.949-0.339c0.915-0.279,1.708,0.201,2.437,0.703c1.475,1.014,2.927,2.062,4.4,3.077
				c1.796,1.238,3.821,0.738,5.781,0.735C443.306,414.285,446.245,414.289,449.156,414.289z"/>
			<path fill-rule="evenodd" clip-rule="evenodd" fill="#D8D4CA" d="M176.203,414.275c2.983,0,5.89-0.008,8.796,0.004
				c1.236,0.005,2.474,0.098,3.709,0.066c1.488-0.037,2.52-1.078,3.67-1.832c1.199-0.786,2.379-1.601,3.553-2.424
				c0.457-0.319,0.964-0.461,1.473-0.33c1.168,0.299,2.359,0.331,3.547,0.41c0.545,0.035,0.68,0.341,0.608,0.8
				c-0.067,0.427-0.326,0.882-0.238,1.266c0.473,2.06-0.961,2.74-2.363,3.562c-2.817,1.652-5.591,3.377-8.367,5.098
				c-0.863,0.535-1.616,0.7-2.659,0.267c-3.148-1.308-6.367-2.445-9.554-3.657c-0.687-0.261-1.249-0.636-1.464-1.427
				C176.75,415.477,176.458,414.91,176.203,414.275z"/>
			<path fill-rule="evenodd" clip-rule="evenodd" fill="#D9D4CA" d="M445.045,423.121c-0.801,2.239-1.618,4.433-2.359,6.651
				c-0.244,0.729-0.655,0.988-1.382,1.059c-2.078,0.2-4.134,0.533-6.181,0.982c-1.128,0.247-2.269,0.154-3.487-0.262
				c-2.395-0.817-3.89-2.412-5.186-4.447c-1.086-1.705-2.389-3.275-3.631-4.878c-0.409-0.528-0.286-0.713,0.299-0.895
				c0.702-0.218,1.458-0.341,1.938-1.037c0.244-0.354,0.53-0.077,0.816,0.097c2.952,1.791,5.909,3.572,8.88,5.331
				c0.565,0.335,1.119,0.565,1.886,0.328c2.65-0.817,5.185-1.932,7.769-2.916C444.597,423.062,444.759,422.956,445.045,423.121z"/>
			<path fill-rule="evenodd" clip-rule="evenodd" fill="#D8D4CA" d="M180.352,422.949c1.741,0.644,3.299,1.173,4.82,1.796
				c1.174,0.481,2.368,0.889,3.567,1.298c0.752,0.258,1.34,0.063,1.908-0.271c2.978-1.76,5.947-3.534,8.887-5.355
				c0.478-0.297,0.763-0.361,1.081,0.1c0.407,0.589,1.102,0.588,1.681,0.803c0.495,0.184,0.822,0.272,0.37,0.871
				c-1.966,2.604-3.645,5.488-5.935,7.762c-1.634,1.621-4.047,2.528-6.615,1.831c-1.83-0.497-3.713-0.73-5.587-0.915
				c-1.024-0.102-1.56-0.392-1.878-1.407C181.985,427.341,181.18,425.267,180.352,422.949z"/>
			<path fill-rule="evenodd" clip-rule="evenodd" fill="#D8D3CA" d="M386.602,240.095c0,1.197-0.038,2.396,0.013,3.59
				c0.034,0.801-0.183,1.16-1.062,1.121c-1.354-0.061-2.714-0.049-4.067,0.014c-0.849,0.039-1.163-0.388-1.234-1.112
				c-0.247-2.521-1.015-4.897-1.993-7.213c-0.209-0.496-0.161-0.776,0.244-1.208c1.139-1.215,2.195-2.512,3.222-3.826
				c0.514-0.657,0.899-0.62,1.389-0.029c0.406,0.489,0.785,1.028,1.28,1.412C386.852,234.752,386.812,237.391,386.602,240.095z"/>
			<path fill-rule="evenodd" clip-rule="evenodd" fill="#D8D4CA" d="M205.826,429.387c-0.393,1.607-0.753,3.097-1.122,4.585
				c-0.176,0.713-0.753,1.109-1.291,1.497c-2.224,1.606-4.476,3.172-6.7,4.776c-0.335,0.241-0.564,0.377-0.917,0.043
				c-1.229-1.162-2.479-2.304-3.669-3.405c3.45-1.167,6.87-2.24,8.725-5.757c0.256-0.485,0.714-0.858,1.023-1.321
				c0.275-0.41,0.537-0.519,1.069-0.451C203.876,429.472,204.834,429.387,205.826,429.387z"/>
			<path fill-rule="evenodd" clip-rule="evenodd" fill="#D8D4CA" d="M433.653,436.57c-1.535,1.426-2.781,2.568-4.01,3.73
				c-0.298,0.281-0.513,0.241-0.825,0.014c-2.353-1.708-4.719-3.396-7.08-5.092c-0.603-0.434-0.934-0.983-1.094-1.746
				c-0.17-0.812-0.349-1.63-0.544-2.438c-0.397-1.646-0.413-1.438,1.284-1.688c1.722-0.255,2.557,0.62,3.261,1.84
				c1.269,2.196,3.049,3.695,5.487,4.454C431.196,435.975,432.029,436.967,433.653,436.57z"/>
			<path fill-rule="evenodd" clip-rule="evenodd" fill="#D3CFC6" d="M246.64,265.419c-0.605,0.291-0.938,0.136-1.392-0.307
				c-2.254-2.195-2.974-5.157-4.092-7.917c-0.721-1.779-1.349-3.596-2.044-5.386c-0.564-1.453-0.393-1.769,1.137-1.7
				c1.062,0.047,2.389-0.499,3.116,0.26c0.66,0.689,0.189,1.984,0.259,3.009C243.906,257.541,244.875,261.527,246.64,265.419z"/>
			<path fill-rule="evenodd" clip-rule="evenodd" fill="#D7D3CA" d="M382.83,250.095c0.28,0,0.562,0.025,0.84-0.005
				c0.9-0.098,0.902,0.379,0.68,1.021c-0.857,2.47-1.634,4.972-2.588,7.403c-1.245,3.173-2.107,6.471-3.289,9.662
				c-0.256,0.69-0.473,1.395-0.723,2.087c-0.241,0.667-0.581,0.957-1.143,0.258c-0.1-0.123-0.219-0.297-0.35-0.317
				c-1.524-0.242-0.8-0.873-0.344-1.591c2.201-3.466,3.661-7.204,4.316-11.289c0.342-2.133,0.456-4.271,0.636-6.409
				c0.053-0.623,0.289-0.862,0.885-0.831c0.358,0.019,0.72,0.003,1.079,0.003C382.83,250.09,382.83,250.092,382.83,250.095z"/>
			<path fill-rule="evenodd" clip-rule="evenodd" fill="#858585" d="M380.347,364.51c0.726,1.374,1.369,2.591,2.013,3.808
				c0.522,0.988,0.997,2.006,1.581,2.956c0.465,0.759,0.24,1.106-0.505,1.411c-1.321,0.541-2.613,1.154-3.932,1.708
				c-0.319,0.134-0.732,0.286-0.639-0.404c0.399-2.963,0.771-5.93,1.163-8.894C380.046,364.961,380.162,364.841,380.347,364.51z"/>
			<path fill-rule="evenodd" clip-rule="evenodd" fill="#858585" d="M245.521,365.666c0.485,3.073,0.971,6.146,1.484,9.398
				c-1.745-0.772-3.297-1.457-4.847-2.149c-0.294-0.132-0.634-0.29-0.426-0.699c1.121-2.216,2.258-4.424,3.39-6.635
				C245.255,365.609,245.388,365.638,245.521,365.666z"/>
			<path fill-rule="evenodd" clip-rule="evenodd" fill="#D4CFC6" d="M241.019,244.791c-0.357,0-0.719,0.034-1.072-0.008
				c-0.455-0.055-1.057,0.288-1.336-0.164c-0.353-0.568,0.315-0.93,0.596-1.29c0.657-0.842,1.43-1.594,2.167-2.373
				c0.484-0.511,0.974-0.808,1.577-0.106c0.223,0.26,0.566,0.438,0.884,0.59c0.478,0.23,0.573,0.504,0.439,1.042
				c-0.572,2.303-0.548,2.31-3.017,2.308C241.178,244.79,241.099,244.79,241.019,244.791z"/>
			<path fill-rule="evenodd" clip-rule="evenodd" fill="#99968C" d="M265.445,219.736c0.636-0.916,1.728-0.744,2.589-0.927
				c2.556-0.543,5.182-0.625,7.794-0.717c0.308-0.011,0.644-0.073,0.888,0.213c-2.574,0.14-5.146,0.312-7.695,0.696
				C267.82,219.182,266.637,219.487,265.445,219.736z"/>
			<path fill-rule="evenodd" clip-rule="evenodd" fill="#929192" d="M331.7,428.996c0.09,0.021,0.18,0.044,0.27,0.065
				c-0.743,1.641-1.354,3.353-2.528,4.764C330.01,432.124,330.606,430.441,331.7,428.996z"/>
			<path fill-rule="evenodd" clip-rule="evenodd" fill="#99968C" d="M258.253,222.625c0.785-1.088,2.082-1.351,3.199-1.785
				c1.272-0.495,2.502-1.335,3.993-1.104C262.965,220.495,260.62,221.586,258.253,222.625z"/>
			<path fill-rule="evenodd" clip-rule="evenodd" fill="#99968C" d="M254.874,224.752c0.971-0.956,2.021-1.784,3.378-2.126
				C257.157,223.384,256.15,224.283,254.874,224.752z"/>
			<path fill-rule="evenodd" clip-rule="evenodd" fill="#B1B1B1" d="M98.843,467.44c0.952,0.645,1.427,1.697,1.978,2.611
				c1.76,2.923,4.127,5.312,6.426,7.772c0.648,0.692,1.459,1.235,1.94,2.084c-0.844-0.238-1.405-0.926-1.964-1.483
				c-2.827-2.818-5.692-5.616-7.771-9.086C99.088,468.731,99.161,468.034,98.843,467.44z"/>
		</g>
	</g>
</g>
</svg>
