<?xml version="1.0" encoding="utf-8"?>
<!-- Generator: Adobe Illustrator 16.0.0, SVG Export Plug-In . SVG Version: 6.00 Build 0)  -->
<!DOCTYPE svg PUBLIC "-//W3C//DTD SVG 1.1//EN" "http://www.w3.org/Graphics/SVG/1.1/DTD/svg11.dtd">
<svg version="1.1" id="Layer_1" xmlns="http://www.w3.org/2000/svg" xmlns:xlink="http://www.w3.org/1999/xlink" x="0px" y="0px"
	 width="672.48px" height="641.3px" viewBox="0 0 672.48 641.3" enable-background="new 0 0 672.48 641.3" xml:space="preserve">
<g id="_x36_EbWBF_1_">
	<g>
		<g>
			<path fill="#FDFDFD" d="M463.8,529.45c-135.031,0-270.063-0.001-405.095,0.021c-0.949,0.001-1.257-0.112-1.256-1.195
				c0.033-138.271,0.033-276.543,0.004-414.815c0-0.993,0.223-1.156,1.177-1.156c185.229,0.026,370.458,0.026,555.686,0.002
				c0.921,0,1.194,0.111,1.194,1.138c-0.031,138.271-0.031,276.542-0.001,414.814c0,1.041-0.247,1.217-1.237,1.216
				c-48.317-0.028-96.635-0.024-144.951-0.024c0.068-0.653,0.625-0.496,1.006-0.575c1.847-0.382,3.735-0.269,5.603-0.438
				c4.81-0.439,9.598-0.954,14.319-2.038c2.992-0.688,6.029-1.17,8.986-2.021c2.298-0.661,4.6-1.316,6.874-2.047
				c5.17-1.662,10.232-3.619,15.189-5.844c6.782-3.045,13.304-6.573,19.654-10.432c1.255-0.763,2.377-1.757,3.782-2.271
				c0.472-0.118,0.953-0.108,1.433-0.108c4.639-0.002,9.277,0.017,13.916-0.014c1.159-0.007,2.289,0.222,3.463,0.176
				c2.66-0.103,4.866-1.427,7.256-2.307c3.114-1.147,5.228-3.141,7.048-5.932c1.992-3.054,2.989-6.287,3.673-9.766
				c1.189-6.055,1.249-6.042-0.695-11.885c-0.188-0.563-0.461-1.117-0.333-1.743c0.456-1.005,1.29-1.718,1.971-2.55
				c5.71-6.98,10.795-14.392,15.071-22.329c2.919-5.418,5.466-11.014,7.667-16.781c2-5.241,3.559-10.603,5.009-16
				c1.026-3.817,1.62-7.737,2.337-11.628c0.872-4.729,1.232-9.509,1.566-14.278c0.316-4.529,0.447-9.077,0.182-13.647
				c-0.267-4.587-0.648-9.159-1.073-13.73c-0.277-2.983-0.92-5.916-1.438-8.866c-1.187-6.742-2.911-13.335-5.039-19.842
				c-1.815-5.551-3.877-11.002-6.325-16.293c-1.86-4.02-3.81-7.999-6.055-11.839c-3.516-6.015-7.278-11.853-11.457-17.423
				c-3.264-4.351-6.824-8.455-10.37-12.572c-2.297-2.667-4.69-5.246-7.162-7.744c-2.555-2.582-5.12-5.161-7.82-7.593
				c-1.455-1.311-2.873-2.664-4.292-4.007c-2.355-2.231-4.856-4.283-7.307-6.398c-0.336-0.29-0.682-0.563-0.782-1.029
				c-0.083-0.491,0.066-0.953,0.187-1.415c2.463-9.435,4.997-18.851,7.464-28.285c2.729-10.437,5.525-20.856,8.211-31.305
				c0.431-1.675,0.25-1.868-1.438-2.33c-7.629-2.091-15.296-4.039-22.929-6.113c-1.529-0.416-1.977-0.182-2.401,1.42
				c-1.66,6.257-3.354,12.504-5.063,18.749c-2.447,8.941-4.772,17.916-7.279,26.841c-0.258,0.918-0.33,1.896-0.854,2.732
				c-0.559,0.462-0.987,0.034-1.381-0.257c-4.815-3.567-9.602-7.174-14.481-10.652c-3.61-2.573-7.21-5.161-10.79-7.772
				c-5.295-3.863-10.719-7.547-15.97-11.467c-3.746-2.796-7.55-5.516-11.313-8.286c-3.053-2.247-6.139-4.459-9.229-6.66
				c-2.798-1.992-5.585-4.002-8.358-6.03c-2.709-1.979-5.467-3.886-8.221-5.8c-2.394-1.664-4.739-3.4-7.189-4.979
				c-2.921-1.882-5.729-3.934-8.683-5.766c-2.951-1.831-5.85-3.745-8.832-5.526c-8.343-4.982-16.868-9.62-25.812-13.438
				c-2.751-1.174-5.574-2.187-8.394-3.203c-3.692-1.33-7.485-2.267-11.263-3.246c-2.889-0.749-5.887-1.07-8.87-1.346
				c-4.95-0.457-9.906-0.488-14.816,0.302c-4.937,0.795-9.706,2.209-14.362,4.096c-4.127,1.673-8.071,3.671-11.939,5.842
				c-2.3,1.291-4.476,2.788-6.688,4.228c-4.087,2.661-8.005,5.559-11.886,8.503c-2.48,1.882-4.88,3.876-7.3,5.84
				c-0.416,0.337-0.931,0.885-1.202-0.157c0.068-1.742,0.77-3.339,1.168-5.005c0.329-1.375,0.478-2.743,0.471-4.152
				c-0.005-1.028-0.358-1.849-1.051-2.586c-2.855-3.035-6.105-5.636-9.214-8.391c-1.043-0.924-2.294-1.441-3.748-1.31
				c-0.436,0.04-0.882-0.029-1.318,0.012c-1.822,0.17-3.269-0.524-4.468-1.856c-1.779-1.976-3.901-3.403-6.502-4.092
				c-0.854-0.227-1.72-0.48-2.586-0.483c-3.752-0.011-7.513-0.294-11.257,0.17c-2.32,0.287-4.516,1.024-6.664,1.915
				c-0.719,0.298-1.285,0.802-1.778,1.392c-1.19,1.422-2.744,1.957-4.562,2c-2.162,0.052-4.298-0.379-6.462-0.261
				c-1.444,0.079-1.7,0.25-1.994,1.689c-0.056,0.274-0.132,0.549-0.131,0.828c0.009,2.472-1.421,3.776-3.608,4.476
				c-0.686,0.219-1.361,0.469-2.059,0.649c-1.994,0.515-3.273,1.75-3.805,3.75c-0.144,0.541-0.342,1.076-0.365,1.635
				c-0.041,0.992-0.446,1.747-1.247,2.337c-1.066,0.785-1.534,1.898-1.666,3.194c-0.175,1.714-0.548,2.158-2.182,2.535
				c-0.96,0.222-1.789,0.678-2.576,1.234c-1.333,0.942-2.064,2.178-1.97,3.866c0.133,2.39-0.08,4.722-1.398,6.818
				c-0.837,1.331-2.022,2.374-3.08,3.504c-1.788,1.912-1.956,4.137-1.899,6.558c0.098,4.199,2.548,7.419,4.361,10.898
				c0.69,1.325,1.125,2.495,0.732,4.068c-0.421,1.689-0.225,3.501-0.066,5.251c0.081,0.894,0.64,1.621,1.253,2.274
				c1.036,1.104,1.678,2.333,1.864,3.909c0.304,2.575,1.521,4.62,4.15,5.517c1.094,0.373,1.608,1.112,1.533,2.274
				c-0.039,0.596,0.055,1.201-0.136,1.785c-0.625,1.15-1.88,1.448-2.888,2.039c-5.134,3.01-10.412,5.766-15.68,8.531
				c-2.721,1.428-5.516,2.723-8.286,4.061c-4.675,2.26-9.383,4.451-14.126,6.559c-3.942,1.751-7.878,3.519-11.841,5.224
				c-9.139,3.933-18.349,7.697-27.467,11.677c-7.542,3.292-15.047,6.666-22.489,10.184c-4.768,2.254-9.485,4.606-14.111,7.128
				c-6.875,3.748-13.554,7.812-19.856,12.496c-3.123,2.32-6.049,4.851-8.897,7.468c-3.991,3.666-7.374,7.883-10.127,12.547
				c-2.797,4.738-4.783,9.843-6.071,15.194c-0.738,3.067-0.915,6.223-1.285,9.35c-0.524,4.43,0.138,8.782,0.612,13.129
				c0.357,3.277,1.314,6.487,2.235,9.674c2.21,7.648,5.528,14.784,9.693,21.563c2.54,4.134,5.376,8.048,8.463,11.762
				c3.291,3.959,6.937,7.597,10.723,11.107c4.685,4.345,9.855,8.012,15.162,11.504c2.834,1.865,5.794,3.554,8.864,5.013
				c0.962,0.457,1.485,1.021,1.433,2.085c-0.54,4.77-1.309,9.507-1.957,14.261c-1.003,7.368-2.057,14.729-3.067,22.098
				c-1.553,11.328-3.072,22.662-4.692,33.981c-0.64,4.473-1.299,8.942-1.928,13.416c-0.264,1.878,0.073,2.326,1.997,2.3
				c3.636-0.05,7.277,0.221,10.907-0.202c1.801-0.211,3.586,0.278,5.385,0.213c12.673-0.46,25.355,0.03,38.024-0.286
				c12.718-0.317,25.435,0.097,38.145-0.231c11.958-0.309,23.912-0.081,35.866-0.2c1.593-0.016,1.799-0.185,2.138-1.803
				c0.467-2.232,0.738-4.498,1.169-6.737c0.415-2.153,0.796-2.549,2.932-3.054c7.471-1.767,14.958-3.463,22.444-5.167
				c7.563-1.722,15.107-3.524,22.683-5.193c2.071-0.456,2.545-0.169,3.76,1.619c2.809,4.134,5.179,8.563,8.282,12.492
				c2.22,2.811,5.121,4.807,8.375,6.268c2.563,1.149,4.833,0.663,6.77-1.375c1.049-1.105,2.169-2.128,3.448-2.969
				c3.514-2.312,5.684-5.59,6.694-9.616c1.188-4.738,2.797-9.348,4.147-14.035c0.211-0.734,0.489-1.449,1.224-1.846
				c0.784-0.229,1.396,0.223,2.013,0.558c6.556,3.56,13.021,7.28,19.514,10.951c3.539,2,7.023,4.094,10.57,6.081
				c3.126,1.752,6.183,3.646,9.303,5.419c0.308,0.176,0.746,0.349,0.625,0.766c-0.114,0.393-0.581,0.355-0.935,0.367
				c-0.838,0.028-1.677,0.002-2.516,0.015c-0.433,0.007-0.891-0.071-1.236,0.3c-0.872,1.085-1.1,2.463-1.665,3.686
				c-0.333,0.719-0.627,1.465-0.898,2.212c-0.391,1.073-0.122,1.503,1.038,1.539c2.11,0.065,4.223,0.013,6.334,0.024
				c0.676,0.003,1.354-0.039,2.025,0.096c0.542,0.189,1.104,0.151,1.662,0.152c3.276,0.002,6.555,0.041,9.83-0.019
				c1.332-0.024,2.519,0.271,3.647,0.942c2.886,1.719,5.941,3.117,8.891,4.712c2.462,1.332,4.994,2.506,7.501,3.738
				c6.635,3.265,13.427,6.17,20.396,8.637c6.172,2.185,12.437,4.024,18.86,5.389c5.919,1.257,11.862,2.049,17.896,2.31
				C462.287,528.71,463.264,528.515,463.8,529.45z"/>
			<path fill-rule="evenodd" clip-rule="evenodd" fill="#858484" d="M294.333,162.229c0.146,0.492,0.333,0.227,0.556,0.049
				c2.899-2.318,5.752-4.697,8.718-6.927c5.852-4.4,11.788-8.681,18.2-12.259c3.69-2.059,7.46-3.908,11.383-5.51
				c5.29-2.16,10.709-3.665,16.374-4.319c5.874-0.678,11.705-0.339,17.539,0.577c4.054,0.637,8.02,1.618,11.918,2.817
				c4.496,1.383,8.895,3.062,13.217,4.96c5.318,2.336,10.507,4.915,15.585,7.717c3.606,1.991,7.146,4.11,10.673,6.241
				c4.727,2.854,9.363,5.852,13.922,8.972c2.757,1.887,5.525,3.754,8.271,5.658c5.729,3.973,11.372,8.062,17.021,12.145
				c4.846,3.502,9.671,7.032,14.512,10.541c5.583,4.046,11.161,8.101,16.758,12.129c5.4,3.887,10.842,7.715,16.227,11.623
				c4.937,3.582,9.82,7.237,14.734,10.85c0.277,0.204,0.521,0.518,0.932,0.479c0.297,1.195-0.259,2.274-0.555,3.355
				c-2.375,8.678-4.697,17.37-7.056,26.053c-2.189,8.064-4.364,16.133-6.543,24.2c-2.741,10.151-5.484,20.301-8.214,30.455
				c-2.71,10.079-5.451,20.15-8.161,30.229c-2.688,10.001-5.411,19.992-8.093,29.995c-2.351,8.768-4.743,17.522-7.106,26.286
				c-2.884,10.695-5.738,21.397-8.627,32.092c-0.897,3.319-1.746,6.653-2.702,9.958c-0.519,1.793-0.376,2.078,1.472,2.472
				c4.77,1.016,9.535,2.053,14.31,3.05c2.661,0.556,5.331,1.073,7.98,1.689c1.732,0.403,1.986,0.257,2.497-1.441
				c1.402-4.672,2.618-9.396,3.909-14.1c1.82-6.632,3.636-13.266,5.422-19.906c2.7-10.04,5.469-20.062,8.188-30.096
				c2.322-8.567,4.682-17.124,7.022-25.686c2.057-7.521,4.117-15.041,6.17-22.563c0.169-0.621,0.164-1.556,1.009-1.577
				c0.803-0.021,0.964,0.874,1.178,1.492c2.102,6.086,4.351,12.119,6.479,18.195c2.222,6.34,4.516,12.653,6.78,18.978
				c2.439,6.814,4.916,13.616,7.337,20.438c3.451,9.723,6.944,19.43,10.41,29.147c3.009,8.436,6.059,16.857,9.042,25.304
				c3.503,9.916,7.085,19.805,10.651,29.698c0.428,1.186,1.085,2.333,0.958,3.672c-2.477,2.699-5.101,5.245-7.804,7.723
				c-2.89,2.648-5.875,5.173-8.923,7.632c-0.373,0.301-0.72,0.642-1.227,0.72c-1.118,0.141-2.238,0.074-3.356,0.075
				c-6.714,0.007-13.433-0.145-20.143,0.037c-11.348,0.306-22.694,0.137-34.041,0.21c-2.105,0.015-2.443,0.37-2.282,2.492
				c0.085,1.115,0.258,2.224,0.217,3.346c-0.029,0.812,0.307,1.268,1.149,1.362c0.636,0.072,1.266,0.176,1.907,0.184
				c8.189,0.108,16.38,0.188,24.567,0.301c6.151,0.085,12.303,0.146,18.454,0.191c0.548,0.004,1.137-0.073,1.562,0.417
				c-2.165,1.324-4.323,2.663-6.499,3.971c-3.688,2.217-7.465,4.262-11.331,6.167c-2.837,1.399-5.715,2.707-8.593,4.007
				c-2.605,1.179-5.329,2.102-8.021,3.081c-4.574,1.663-9.23,3.104-13.96,4.212c-5.729,1.342-11.504,2.538-17.394,3.004
				c-2.942,0.232-5.883,0.483-8.824,0.724c-0.276,0.022-0.567-0.02-0.771,0.234c-1.84,0-3.68,0-5.521,0
				c-0.765-0.375-1.604-0.411-2.422-0.441c-5.554-0.204-11.06-0.84-16.492-1.981c-4.963-1.043-9.855-2.345-14.705-3.872
				c-4.59-1.444-9.089-3.112-13.535-4.905c-4.199-1.691-8.305-3.625-12.4-5.573c-5.072-2.413-10.098-4.927-14.983-7.672
				c-2.402-1.35-4.723-1.818-7.363-1.768c-3.026,0.058-6.062,0.126-9.087-0.151c0.469-0.514,1.102-0.42,1.686-0.413
				c4.197,0.049,8.396-0.134,12.593,0.104c0.953,0.054,1.914-0.085,2.872-0.125c3.003-0.128,5.985,0.32,8.986,0.262
				c2.197-0.043,4.411-0.271,6.583-0.183c6.271,0.254,12.551-0.062,18.814,0.385c0.599,0.042,1.199,0.028,1.799,0.028
				c12.437,0.001,24.873,0.021,37.31-0.014c3.479-0.009,6.955,0.054,10.434,0.019c0.922-0.009,1.832-0.111,2.747-0.205
				c0.954-0.097,1.358-0.603,1.298-1.504c-0.111-1.676-0.295-3.345-0.596-5c-0.16-0.881-0.646-1.332-1.536-1.375
				c-0.52-0.025-1.039-0.028-1.56-0.028c-33.67-0.001-67.342,0-101.013-0.002c-1.919,0-3.821,0.377-5.746,0.24
				c-0.551-0.039-1.133,0.059-1.591-0.372c0.883-0.574,1.864-0.183,2.796-0.275c0.572-0.058,1.155-0.011,2.033-0.011
				c-4.854-2.836-9.401-5.517-13.974-8.156c-4.075-2.353-8.177-4.659-12.267-6.986c-3.228-1.837-6.442-3.698-9.688-5.502
				c-1.933-1.073-3.915-2.058-5.874-3.082c0.066-0.646,0.627-0.668,1.055-0.761c5.039-1.095,10.062-2.26,15.099-3.36
				c1.562-0.342,3.098-0.784,4.661-1.123c7.519-1.624,15.177-2.251,22.773-3.316c1.108-0.155,2.224-0.287,3.323-0.483
				c1.331-0.236,2.357,0.191,3.198,1.178c2.18,2.554,4.342,5.124,6.541,7.661c2.251,2.599,4.454,5.238,6.696,7.845
				c0.966,1.12,2.082,1.547,3.515,1.23c4.919-1.086,9.911-1.806,14.82-2.936c2.358-0.543,4.435-0.235,6.419,1.315
				c3.717,2.904,7.465,5.774,11.284,8.544c2.312,1.678,4.942,2.601,7.796,2.835c0.683,0.056,1.341,0.208,2.007,0.339
				c0.454,0.09,1.022,0.331,1.304-0.207c0.249-0.477-0.249-0.785-0.534-1.097c-0.813-0.886-1.779-1.607-2.672-2.406
				c-4.466-3.999-8.938-7.992-13.357-12.04c-4.51-4.129-9.17-8.091-13.61-12.297c-1.508-1.429-3.105-2.762-4.662-4.139
				c-1.971-1.743-4.522-2.178-6.895-2.942c-6.809-2.197-13.641-4.32-20.448-6.522c-3.157-1.021-6.304-2.082-9.488-3.01
				c-3.492-1.019-7.062-0.71-10.601-0.271c-6.028,0.747-12.061,1.458-18.107,2.037c-2.585,0.247-5.152,0.642-7.745,0.842
				c-1.91,0.147-2.422-0.065-2.896-1.968c-0.861-3.453-1.732-6.902-2.593-10.355c-1.345-5.393-2.705-10.782-4.066-16.171
				c-1.615-6.395-3.222-12.793-4.826-19.19c-2.052-8.183-4.151-16.354-6.226-24.53c-1.69-6.664-3.392-13.326-5.093-19.987
				c-2.116-8.289-4.249-16.574-6.375-24.86c-1.641-6.388-3.313-12.769-4.954-19.156c-1.969-7.665-3.986-15.318-5.858-23.008
				c-0.133-0.544-0.282-1.084-0.446-1.619c-0.61-1.985-0.533-3.921,0.267-5.859c2.914-7.059,5.729-14.16,8.707-21.191
				c0.839-1.98,0.994-3.866,0.286-5.919c-1.341-3.893-2.475-7.855-3.787-11.759c-0.578-1.72-0.703-3.448-0.307-5.2
				c0.644-2.847,1.198-5.713,1.833-8.562c0.231-1.037,0.762-1.596,1.81-1.779c1.965-0.343,3.929-0.663,5.74-1.621
				c4.378-2.317,6.854-5.991,7.826-10.759c0.191-0.936,0.27-1.895,0.288-2.859c0.025-1.325,0.442-1.761,1.78-1.959
				c0.695-0.103,1.439-0.123,1.4-1.09c-0.036-0.874-0.707-1.105-1.422-1.16c-1.225-0.093-1.799-0.765-2.101-1.924
				c-0.806-3.094-2.036-5.975-4.441-8.224c-1.335-1.248-2.835-2.222-4.552-2.822c-1.628-0.568-2.643-1.53-2.766-3.352
				c-0.229-3.388-0.648-6.759-1.029-10.133c-0.443-3.935-1.859-7.602-3.025-11.333c-0.674-2.157-0.707-4.322-0.624-6.521
				C293.851,162.629,293.894,162.269,294.333,162.229z"/>
			<path fill-rule="evenodd" clip-rule="evenodd" fill="#090B0C" d="M294.333,162.229c-0.444,2.344-0.358,4.657,0.396,6.934
				c1.667,5.024,3.236,10.058,3.518,15.415c0.114,2.177,0.481,4.35,0.598,6.535c0.071,1.323,0.742,2.21,1.929,2.613
				c5.485,1.862,8.449,5.897,9.756,11.316c0.309,1.283,0.818,1.934,2.215,1.962c1.263,0.025,1.574,0.576,1.403,1.789
				c-0.093,0.658-0.384,0.96-1.078,1.013c-2.027,0.154-1.939,0.187-2.099,2.104c-0.549,6.615-3.523,11.584-9.879,14.15
				c-1.443,0.583-2.997,0.784-4.534,0.975c-0.662,0.082-1.048,0.408-1.177,1.001c-0.724,3.341-1.487,6.675-2.107,10.036
				c-0.47,2.548,0.78,4.822,1.478,7.164c0.886,2.971,1.836,5.924,2.84,8.857c0.652,1.907,0.578,3.71-0.192,5.567
				c-2.987,7.209-5.904,14.447-8.91,21.649c-0.713,1.708-0.813,3.379-0.361,5.131c2.747,10.658,5.491,21.316,8.238,31.974
				c2.906,11.275,5.832,22.546,8.716,33.827c3.563,13.94,7.104,27.887,10.632,41.836c3.293,13.019,6.562,26.043,9.835,39.066
				c1.056,4.202,2.086,8.41,3.134,12.613c0.464,1.862,0.632,1.917,2.553,1.709c3.635-0.394,7.282-0.676,10.916-1.081
				c4.421-0.494,8.839-1.024,13.248-1.617c5.539-0.744,10.897-0.631,16.317,1.294c8.538,3.032,17.266,5.525,25.893,8.31
				c2.518,0.812,5.211,1.26,7.287,3.135c2.55,2.304,5.123,4.581,7.676,6.882c3.649,3.289,7.285,6.591,10.932,9.883
				c5.307,4.792,10.62,9.578,15.922,14.375c0.337,0.304,0.804,0.588,0.533,1.193c-0.254,0.565-0.75,0.596-1.219,0.486
				c-2.129-0.498-4.341-0.551-6.435-1.234c-2.591-0.846-4.715-2.448-6.835-4.086c-3.06-2.364-6.18-4.65-9.234-7.021
				c-1.812-1.407-3.778-1.213-5.817-0.805c-4.901,0.979-9.811,1.917-14.707,2.919c-1.545,0.315-2.677-0.144-3.684-1.337
				c-4.402-5.218-8.864-10.385-13.266-15.604c-1.102-1.306-2.448-1.06-3.831-0.882c-4.325,0.554-8.66,1.045-12.973,1.686
				c-5.177,0.77-10.361,1.451-15.453,2.78c-5.418,1.413-10.923,2.489-16.392,3.706c-0.422,0.095-0.868,0.108-1.199,0.443
				c-0.793,0.414-0.971,1.199-1.199,1.964c-1.591,5.33-3.115,10.684-4.812,15.98c-1.056,3.297-3.226,5.838-6.108,7.758
				c-1.201,0.801-2.327,1.691-3.322,2.74c-2.376,2.506-4.636,3.009-7.724,1.473c-4.149-2.064-7.61-4.939-10.09-8.935
				c-2.103-3.389-4.294-6.722-6.454-10.075c-0.945-1.467-1.409-1.639-3.085-1.252c-13.598,3.134-27.198,6.266-40.797,9.396
				c-1.743,0.4-3.484,0.807-5.232,1.182c-0.967,0.207-1.53,0.713-1.698,1.733c-0.433,2.631-0.93,5.252-1.391,7.878
				c-0.309,1.758-0.424,1.872-2.239,1.878c-8.479,0.027-16.958,0.037-25.438,0.076c-15.878,0.074-31.756,0.162-47.634,0.25
				c-11.279,0.062-22.557,0.132-33.835,0.2c-6.999,0.044-13.998,0.093-20.996,0.139c-0.36,0.003-0.72,0.005-1.08-0.001
				c-1.903-0.03-2.217-0.318-1.966-2.186c0.632-4.7,1.329-9.391,1.992-14.086c0.774-5.484,1.542-10.97,2.31-16.455
				c0.856-6.118,1.713-12.235,2.561-18.354c0.673-4.855,1.321-9.715,2-14.569c0.768-5.484,1.562-10.964,2.333-16.448
				c0.211-1.5,0.38-3.007,0.569-4.511c0.46-7.818,1.966-15.503,2.969-23.251c0.595-4.598,1.256-9.187,1.88-13.779
				c1.103-8.118,2.266-16.229,3.374-24.346c0.708-5.188,1.473-10.368,2.158-15.559c0.644-4.872,1.298-9.743,2.01-14.606
				c0.169-1.155,0.548-2.229,1.094-3.277c2.767-5.322,5.631-10.592,8.376-15.925c1.049-2.038,2.75-3.521,4.222-5.193
				c3.96-4.499,8.116-8.823,11.999-13.393c3.943-4.642,8.32-8.842,13-12.737c3.011-2.506,5.978-5.066,8.954-7.614
				c1.434-1.228,3.061-1.943,4.894-2.389c3.533-0.859,7.093-1.635,10.565-2.717c2.027-0.631,3.829-0.518,5.537,0.814
				c1.261,0.983,2.616,1.84,3.936,2.746c1.152,0.79,1.504,0.775,2.414-0.331c2.946-3.583,5.839-7.21,8.779-10.796
				c6.236-7.608,12.387-15.285,18.637-22.881c0.947-1.15,0.867-1.654-0.433-2.45c-0.832-0.509-1.758-0.757-2.703-0.946
				c-1.338-0.268-2.271-0.98-2.923-2.232c-0.771-1.48-1.975-2.728-2.427-4.388c-0.248-0.909-0.723-1.803-0.276-2.784
				c0.003-0.16-0.009-0.322,0.013-0.479c0.259-1.822-0.097-2.972-2.18-3.739c-2.243-0.825-3.342-3.035-3.507-5.456
				c-0.094-1.38-0.614-2.424-1.572-3.357c-1.169-1.139-1.771-2.544-1.698-4.196c0.076-1.701-0.256-3.438,0.525-5.078
				c0.219-0.459-0.07-0.935-0.301-1.358c-1.009-1.854-1.968-3.739-3.047-5.552c-1.976-3.319-2.393-6.911-1.845-10.626
				c0.236-1.596,1.455-2.78,2.604-3.791c2.785-2.447,3.957-5.49,3.589-9.087c-0.297-2.902,1.454-4.518,4.681-5.557
				c1.652-0.532,1.956-0.65,2.041-2.383c0.068-1.395,0.6-2.584,1.771-3.359c0.753-0.499,1.036-1.134,1.13-1.979
				c0.119-1.068,0.381-2.108,0.853-3.086c0.586-1.215,1.516-2.039,2.792-2.456c0.83-0.272,1.674-0.502,2.512-0.749
				c2.334-0.686,3.886-1.995,3.764-4.669c-0.016-0.354,0.082-0.713,0.133-1.069c0.14-0.972,0.652-1.422,1.683-1.472
				c2.13-0.103,4.217,0.345,6.336,0.368c2.197,0.023,4.054-0.479,5.428-2.398c0.907-1.267,2.532-1.445,3.902-1.918
				c2.418-0.834,4.916-1.317,7.502-1.22c3.032,0.115,6.073-0.205,9.1,0.171c3.131,0.389,5.811,1.726,7.9,4.063
				c1.507,1.686,3.178,2.54,5.481,2.146c1.711-0.292,3.292,0.3,4.536,1.443c2.796,2.569,5.688,5.029,8.463,7.624
				c1.93,1.805,2.207,3.876,1.714,6.213C295.454,157.839,294.867,160.028,294.333,162.229z"/>
			<path fill-rule="evenodd" clip-rule="evenodd" fill="#858585" d="M545.372,247.666c1.715,1.493,3.462,2.951,5.138,4.486
				c3.237,2.965,6.443,5.966,9.646,8.968c2.999,2.81,5.89,5.732,8.683,8.745c3.057,3.3,5.999,6.701,8.893,10.151
				c3.479,4.149,6.741,8.448,9.811,12.897c2.487,3.606,4.771,7.339,6.949,11.147c1.699,2.97,3.31,5.973,4.786,9.055
				c1.071,2.236,2.095,4.492,3.063,6.777c0.983,2.322,1.938,4.652,2.807,7.018c1.911,5.202,3.539,10.488,4.91,15.864
				c0.966,3.785,1.714,7.61,2.448,11.438c0.578,3.007,0.98,6.058,1.285,9.105c0.663,6.637,1.142,13.291,0.924,19.968
				c-0.176,5.384-0.594,10.756-1.292,16.099c-0.661,5.054-1.547,10.083-2.823,15.012c-1.232,4.758-2.588,9.49-4.314,14.116
				c-1.621,4.344-3.316,8.646-5.34,12.815c-2.773,5.716-5.861,11.247-9.408,16.536c-2.389,3.562-4.906,7.019-7.528,10.401
				c-1.034,1.334-2.015,2.747-3.354,3.827c-0.668-0.087-0.727-0.674-0.884-1.137c-2.221-6.509-4.565-12.975-6.834-19.467
				c-2.782-7.965-5.592-15.92-8.377-23.884c-2.652-7.586-5.309-15.17-7.962-22.755c-2.43-6.943-4.896-13.875-7.296-20.828
				c-2.336-6.766-4.699-13.521-7.069-20.272c-2.025-5.771-4.057-11.541-6.087-17.31c-2.362-6.713-4.753-13.417-7.03-20.16
				c-0.729-2.158-1.582-4.273-2.229-6.461c-0.34-1.147-0.368-2.279-0.077-3.43c1.987-7.87,4.146-15.695,6.207-23.546
				c2.041-7.771,4.1-15.539,6.146-23.31c1.232-4.678,2.49-9.351,3.714-14.032c0.598-2.28,1.317-4.528,1.801-6.838
				C544.764,248.253,544.8,247.759,545.372,247.666z"/>
			<path fill-rule="evenodd" clip-rule="evenodd" fill="#858585" d="M221.617,218.631c0.25,2.308,1.053,4.392,2.49,6.229
				c0.243,0.311,0.444,0.664,0.608,1.023c0.532,1.161,1.448,1.774,2.689,1.9c1.27,0.128,2.361,0.65,3.396,1.363
				c0.847,0.584,0.917,1.186,0.258,1.98c-1.911,2.302-3.794,4.625-5.68,6.948c-6.819,8.396-13.634,16.795-20.453,25.192
				c-0.604,0.743-1.224,1.472-1.836,2.208c-0.97,1.164-1.254,1.208-2.479,0.368c-1.48-1.016-2.995-1.989-4.427-3.07
				c-1.356-1.024-2.75-1.187-4.371-0.75c-3.946,1.061-7.911,2.053-11.884,3.009c-2.149,0.518-3.755,1.86-5.36,3.238
				c-3.937,3.379-7.886,6.744-11.801,10.148c-3.812,3.313-7.106,7.127-10.443,10.9c-3.255,3.681-6.474,7.399-9.857,10.961
				c-2.748,2.893-5.042,6.026-6.788,9.628c-1.964,4.051-4.109,8.018-6.281,11.963c-1.1,1.999-1.257,4.183-1.571,6.33
				c-0.929,6.333-1.756,12.681-2.618,19.023c-0.824,6.067-1.62,12.139-2.466,18.202c-0.835,5.981-1.739,11.953-2.571,17.935
				c-0.614,4.414-1.141,8.839-1.745,13.254c-0.56,4.093-1.175,8.179-1.758,12.268c-0.37,2.595-0.725,5.19-1.087,7.785
				c0.045-0.899-0.469-1.177-1.251-1.556c-2.282-1.105-4.485-2.385-6.666-3.685c-4.376-2.608-8.511-5.575-12.534-8.694
				c-2.621-2.031-5.024-4.317-7.44-6.584c-4.981-4.673-9.387-9.861-13.327-15.419c-2.594-3.659-4.939-7.492-6.962-11.524
				c-1.451-2.893-2.796-5.817-3.983-8.824c-1.384-3.505-2.421-7.109-3.311-10.768c-1.297-5.336-1.936-10.754-1.837-16.226
				c0.089-4.944,0.713-9.862,2.141-14.61c2.396-7.964,6.291-15.115,11.947-21.277c2.538-2.765,5.289-5.282,8.118-7.744
				c3.77-3.279,7.886-6.064,12.033-8.806c3.496-2.31,7.163-4.344,10.823-6.393c4.596-2.572,9.276-4.972,14.022-7.239
				c5.62-2.685,11.297-5.247,16.99-7.78c5.036-2.241,10.119-4.374,15.144-6.643c4.234-1.912,8.619-3.491,12.869-5.372
				c5.408-2.393,10.845-4.721,16.246-7.132c4.79-2.139,9.541-4.363,14.329-6.508c3.061-1.371,5.984-3.043,9.011-4.496
				c4.854-2.33,9.518-5.014,14.28-7.516C218.079,220.899,219.823,219.718,221.617,218.631z"/>
			<path fill-rule="evenodd" clip-rule="evenodd" fill="#0A0B0B" d="M545.372,247.666c-0.901,3.325-1.816,6.646-2.701,9.974
				c-2.176,8.178-4.339,16.36-6.505,24.542c-2.532,9.563-5.062,19.127-7.591,28.691c-0.396,1.499-0.68,3.039-1.206,4.49
				c-0.763,2.103-0.368,4.065,0.332,6.061c3.991,11.369,7.96,22.746,11.951,34.115c3.807,10.845,7.646,21.677,11.445,32.523
				c4.194,11.973,8.354,23.958,12.54,35.934c3.438,9.835,6.897,19.663,10.345,29.494c2.026,5.78,4.045,11.564,6.08,17.342
				c0.153,0.434,0.205,0.93,0.593,1.26c0.47,2.301,1.63,4.389,2.06,6.705c0.184,0.994,0.253,2.003,0.027,2.969
				c-0.623,2.669-1.212,5.344-1.678,8.044c-0.229,1.324-0.77,2.499-1.496,3.609c-0.979,1.499-1.979,2.986-2.916,4.514
				c-0.802,1.309-1.867,2.293-3.299,2.816c-2.427,0.887-4.597,2.395-7.122,3.011c-3.027,0.739-6.119,0.265-9.183,0.299
				c-4.111,0.047-8.225-0.001-12.337-0.008c-1.196-0.016-2.393-0.035-3.589-0.047c-10.827-0.104-21.656-0.133-32.481-0.35
				c-3.629-0.073-7.27,0.075-10.896-0.294c-0.837-0.085-1.137-0.345-1.07-1.159c0.124-1.521-0.184-3.026-0.225-4.541
				c-0.055-1.99,0.176-2.235,2.129-2.256c3.156-0.034,6.314-0.073,9.471-0.049c16.305,0.125,32.606-0.409,48.91-0.213
				c0.078,0.001,0.156-0.033,0.234-0.051c0.505-0.305,1.066-0.291,1.626-0.289c8.175,0.042,5.924,0.168,11.58-4.41
				c1.605-1.299,2.711-2.856,2.88-5.029c0.136-1.738,0.981-3.375,0.873-5.17c-0.015-0.244,0.114-0.461,0.272-0.649
				c-0.011-1.35-0.628-2.534-1.066-3.758c-6.017-16.819-12.062-33.629-18.085-50.447c-5.699-15.917-11.378-31.842-17.066-47.763
				c-3.519-9.85-7.04-19.697-10.553-29.549c-1.617-4.534-3.208-9.078-4.83-13.61c-0.25-0.696-0.406-1.465-1.206-2.098
				c-0.591,2.104-1.163,4.108-1.715,6.117c-2.222,8.085-4.448,16.169-6.651,24.259c-2.737,10.05-5.45,20.106-8.18,30.158
				c-2.822,10.395-5.64,20.79-8.484,31.178c-2.089,7.625-4.214,15.24-6.334,22.857c-0.414,1.486-0.735,1.693-2.226,1.379
				c-7.841-1.659-15.679-3.33-23.516-5.012c-1.458-0.312-1.595-0.58-1.122-2.345c1.286-4.799,2.618-9.586,3.907-14.384
				c2.371-8.828,4.716-17.664,7.091-26.492c2.065-7.674,4.163-15.339,6.234-23.011c4.02-14.889,8.026-29.78,12.046-44.668
				c2.892-10.706,5.8-21.407,8.692-32.113c3.369-12.469,6.729-24.94,10.094-37.409c2.134-7.903,4.271-15.805,6.406-23.707
				c1.004-3.718,2.007-7.437,3.01-11.155c4.341-16.107,8.684-32.215,13.021-48.323c0.566-2.103,0.921-2.298,3.044-1.729
				c7.633,2.045,15.27,4.081,22.906,6.115c1.93,0.514,2.064,0.7,1.551,2.663c-2.134,8.146-4.274,16.291-6.427,24.432
				c-3.168,11.982-6.349,23.962-9.52,35.944C545.397,247.265,545.396,247.468,545.372,247.666z"/>
			<path fill-rule="evenodd" clip-rule="evenodd" fill="#0B0D0D" d="M365.892,494.902c2.316-0.065,4.632-0.187,6.948-0.188
				c34.037-0.012,68.074-0.008,102.11-0.008c0.4,0,0.803,0.034,1.199,0.001c1.03-0.088,1.441,0.515,1.559,1.398
				c0.229,1.737,0.447,3.478,0.629,5.221c0.165,1.582-0.175,2.006-1.791,2.032c-3.957,0.062-7.914,0.082-11.871,0.085
				c-11.359,0.011-22.719,0.018-34.077-0.001c-7.196-0.012-14.391-0.182-21.586-0.292c-7.19-0.11-14.388,0.138-21.577,0.001
				c-4.438-0.084-8.875-0.062-13.312-0.137c-0.437-0.007-0.874,0.046-1.312,0.07c-2.793-0.023-5.587-0.027-8.379-0.076
				c-1.644-0.029-1.911-0.447-1.322-1.98c0.641-1.666,1.313-3.319,1.965-4.981C365.253,495.595,365.486,495.189,365.892,494.902z"/>
			<path fill-rule="evenodd" clip-rule="evenodd" fill="#FEFEFE" d="M574.426,479.544c0.271,2.763-0.844,5.309-1.277,7.961
				c-0.161,0.982-0.922,1.738-1.696,2.402c-1.484,1.271-2.957,2.557-4.416,3.857c-1.036,0.924-2.265,1.324-3.614,1.341
				c-2.076,0.024-4.151-0.006-6.228-0.014c1.784-1.766,3.85-3.202,5.719-4.867c3.417-3.043,6.839-6.081,9.968-9.431
				C573.327,480.317,573.705,479.703,574.426,479.544z"/>
			<path fill-rule="evenodd" clip-rule="evenodd" fill="#D8D4CA" d="M191.871,485.052c-1.707-4.469-2.997-9.072-4.393-13.642
				c-5.449-17.827-10.878-35.66-16.338-53.484c-1.668-5.445-3.214-10.929-5.068-16.316c-0.22-0.641-0.398-1.299-0.329-1.992
				c0.192-0.536,0.705-0.61,1.144-0.771c7.575-2.779,15.168-5.507,22.741-8.293c6.86-2.524,13.722-5.044,20.592-7.543
				c0.503-0.183,0.999-0.571,1.58-0.199c1.388,2.455,1.987,5.203,2.866,7.842c7.34,22.018,14.643,44.048,21.959,66.073
				c0.48,1.444,0.943,1.789,2.479,1.646c6.166-0.578,12.33-1.184,18.492-1.792c5.886-0.581,11.77-1.177,17.654-1.771
				c7.672-0.774,15.344-1.562,23.017-2.327c6.76-0.673,13.522-1.321,20.283-1.983c6.88-0.674,13.762-1.324,20.637-2.037
				c7.034-0.729,14.096-1.297,21.077-2.379c3.769-0.584,7.012,0.572,10.373,1.629c9.435,2.966,18.845,6.012,28.281,8.971
				c2.492,0.781,4.675,2.013,6.604,3.749c9.72,8.749,19.445,17.49,29.168,26.235c0.292,0.263,0.625,0.496,0.768,1.098
				c-2.263-0.213-4.31-0.733-6.098-2.098c-4.101-3.126-8.246-6.193-12.296-9.384c-1.696-1.338-3.462-1.628-5.499-1.207
				c-5.002,1.034-10.022,1.976-15.018,3.038c-1.752,0.373-2.971-0.154-4.09-1.495c-3.995-4.79-8.048-9.532-12.096-14.277
				c-0.62-0.728-1.331-1.379-1.999-2.065c-0.955-0.147-1.672-0.736-2.392-1.307c-1.236-0.98-2.563-1.238-4.153-0.959
				c-11.935,2.096-23.831,4.401-35.77,6.475c-15.328,2.662-30.633,5.45-45.944,8.21c-8.816,1.59-17.64,3.138-26.436,4.837
				c-6.243,1.207-12.472,2.486-18.697,3.78c-6.03,1.254-12.074,2.436-18.112,3.649c-4.783,0.962-9.541,2.057-14.353,2.868
				c-5.3,0.893-10.511,0.474-15.617-1.244c-1.173-0.395-2.368-0.736-3.589-0.971C192.792,485.517,192.274,485.428,191.871,485.052z"
				/>
			<path fill-rule="evenodd" clip-rule="evenodd" fill="#D9D4CA" d="M292.444,244.327c1.26,3.779,2.548,7.548,3.763,11.342
				c0.341,1.066-0.022,2.129-0.438,3.144c-2.843,6.938-5.646,13.893-8.54,20.81c-1.087,2.598-1.401,5.125-0.675,7.915
				c5.935,22.814,11.845,45.635,17.659,68.479c7.624,29.958,15.152,59.939,22.722,89.91c0.43,1.702,0.409,1.795-1.262,1.969
				c-6.199,0.644-12.403,1.237-18.603,1.879c-5.603,0.579-11.202,1.188-16.801,1.805c-1.343,0.147-1.753-0.133-1.903-1.452
				c-1.291-11.353-2.5-22.715-3.912-34.052c-0.648-5.21-0.641-10.449-1.125-15.661c-0.577-6.207-1.084-12.42-1.584-18.634
				c-0.538-6.693-1.025-13.391-1.549-20.086c-0.53-6.773-1.085-13.544-1.614-20.317c-0.522-6.694-0.975-13.395-1.553-20.084
				c-0.498-5.771-0.438-11.608-1.501-17.309c-1.073-5.76-2.553-11.444-3.846-17.164c-1.311-5.798-2.611-11.599-3.909-17.4
				c-0.042-0.19-0.015-0.396-0.021-0.595c0.945-0.304,1.248,0.491,1.632,1.025c0.841,1.169,1.76,2.265,2.761,3.298
				c1.179,1.217,2.638,1.721,4.292,1.824c4.736,0.295,7.723-2.243,9.844-6.112c2.779-5.067,4.277-10.558,5.089-16.239
				c0.342-2.397,0.712-4.814,0.396-7.262C291.708,244.889,291.78,244.383,292.444,244.327z"/>
			<path fill-rule="evenodd" clip-rule="evenodd" fill="#D9D4CA" d="M272.599,266.031c-2.849,0.047-5.633-0.958-8.104-2.928
				c-2.968-2.367-5.965-4.697-8.965-7.024c-1.401-1.087-2.605-2.356-3.697-3.744c-5.828-7.416-11.668-14.821-17.481-22.248
				c-1.173-1.5-2.52-2.776-4.153-3.751c-0.768-0.458-1.567-0.824-2.487-0.696c-0.745,0.104-1.168-0.264-1.571-0.831
				c-1.765-2.481-2.713-5.238-2.781-8.273c-0.104-4.637-0.109-9.278-0.521-13.9c-0.155-1.747,0.45-2.873,2.016-3.666
				c1.276-0.646,2.486-1.45,3.645-2.295c1.009-0.736,1.549-0.479,2.157,0.516c2.246,3.68,4.589,7.301,6.832,10.982
				c0.787,1.291,1.719,2.062,3.309,1.771c0.969-0.177,1.26,0.371,1.275,1.245c0.042,2.342,0.534,4.601,1.464,6.746
				c2.187,5.044,6.006,8.017,11.424,8.994c5.817,1.049,10.961-0.234,15.228-4.401c2.658-2.596,3.805-5.935,4.252-9.55
				c0.034-0.277,0.04-0.559,0.08-0.835c0.33-2.318,0.331-2.291,2.687-2.23c0.896,0.023,1.267,0.378,1.357,1.273
				c0.207,2.065,0.459,4.132,1.223,6.085c2.166,5.539,6.252,8.711,12.06,9.758c1.694,0.306,1.642,0.311,1.439,2.046
				c-0.815,7.02-3.396,13.506-5.974,19.997c-0.913,2.297-1.854,4.58-2.683,6.913c-1.175,3.306-3.28,6.02-5.889,8.327
				C277.245,265.635,275.642,266.039,272.599,266.031z"/>
			<path fill-rule="evenodd" clip-rule="evenodd" fill="#D9D4CA" d="M244.866,293.787c0.113,3.524-0.325,7.022-0.52,10.532
				c-0.436,7.861-0.918,15.719-1.38,23.578c-0.173,2.952-0.335,5.905-0.524,8.855c-0.04,0.624-0.176,1.24-0.537,1.939
				c-0.278-0.488-0.569-0.969-0.833-1.464c-11.988-22.45-23.974-44.902-35.96-67.353c-0.169-0.316-0.275-0.71-0.53-0.931
				c-1.186-1.025-0.602-1.764,0.189-2.73c8.657-10.575,17.265-21.191,25.894-31.79c0.551-0.677,1.038-1.419,1.767-1.936
				c0.725,0.657,0.773,1.562,0.808,2.428c0.218,5.425,0.618,10.842,0.772,16.271c0.058,2.039,0.554,4.039,0.961,6.035
				c1.342,6.585,3.024,13.083,4.972,19.518C241.659,282.399,243.39,288.057,244.866,293.787z"/>
			<path fill-rule="evenodd" clip-rule="evenodd" fill="#D9D4CA" d="M289.293,157.223c1.646,4.667,2.671,9.532,4.337,14.18
				c2.366,6.603,2.891,13.471,3.527,20.347c0.09,0.977-0.584,0.832-1.057,0.856c-1.594,0.081-3.188-0.01-4.777,0.298
				c-6.481,1.26-11.231,6.093-12.331,12.606c-0.345,2.043-1.76,2.932-3.741,2.362c-0.667-0.191-0.779-0.713-0.851-1.294
				c-0.432-3.472-1.815-6.528-4.153-9.119c-3.421-3.792-7.875-5.001-12.784-4.844c-7.286,0.233-12.626,4.442-14.666,11.431
				c-0.232,0.795-0.336,1.632-0.747,2.37c-0.996-0.021-1.038-0.738-0.958-1.43c0.106-0.91,0.269-1.815,0.456-2.715
				c0.698-3.363,1.361-6.733,1.982-10.111c0.53-2.882,0.685-5.787,0.58-8.706c-0.05-1.378,0.43-2.481,1.409-3.422
				c2.996-2.875,6.299-5.43,9.174-8.415c2.75-2.856,6.187-4.256,9.754-5.592c7.631-2.857,15.197-5.885,22.818-8.766
				C287.929,157.009,288.608,156.651,289.293,157.223z"/>
			<path fill-rule="evenodd" clip-rule="evenodd" fill="#B3B1A8" d="M191.871,485.052c1.881,0.148,3.662,0.734,5.44,1.3
				c4.223,1.344,8.512,1.862,12.94,1.381c5.465-0.594,10.771-1.996,16.147-3.041c8.185-1.592,16.35-3.285,24.525-4.928
				c5.255-1.055,10.507-2.13,15.772-3.131c5.654-1.074,11.323-2.065,16.983-3.105c6.832-1.256,13.655-2.556,20.492-3.78
				c7.462-1.337,14.946-2.555,22.402-3.926c7.3-1.342,14.63-2.507,21.913-3.95c6.656-1.319,13.334-2.545,20.06-3.485
				c1.217-0.171,2.434-0.423,3.612-0.766c1.423-0.414,2.589,0.062,3.704,0.83c0.85,0.584,1.668,1.215,2.5,1.825
				c-5.778,0.45-11.501,1.357-17.246,2.081c-0.634,0.08-1.268,0.183-1.904,0.211c-6.924,0.313-13.453,2.615-20.145,4.065
				c-12.518,2.714-24.978,5.687-37.46,8.562c-25.895,5.969-51.785,11.955-77.683,17.911c-6.688,1.538-13.398,2.981-20.094,4.491
				c-2.711,0.611-4.868-0.155-6.531-2.393c-0.977-1.314-2.033-2.569-3.023-3.874C192.87,489.476,192.032,487.391,191.871,485.052z"
				/>
			<path fill-rule="evenodd" clip-rule="evenodd" fill="#99968C" d="M244.866,293.787c-0.949-0.982-0.95-2.332-1.307-3.526
				c-1.939-6.485-3.839-12.982-5.699-19.491c-1.608-5.628-2.832-11.347-3.938-17.094c-0.457-2.37-0.27-4.769-0.456-7.15
				c-0.298-3.813-0.388-7.643-0.532-11.466c-0.034-0.893-0.366-1.708-0.501-2.571c0.659-1.131,1.156-0.388,1.601,0.171
				c2.564,3.221,5.11,6.457,7.663,9.687c2.974,3.763,5.95,7.526,8.924,11.289c0.148,0.188,0.264,0.421,0.451,0.557
				c2.088,1.524,2.128,3.57,1.55,5.813c-2.289,8.886-4.552,17.779-6.848,26.664C245.168,289.008,245.448,291.45,244.866,293.787z"/>
			<path fill-rule="evenodd" clip-rule="evenodd" fill="#D9D4CA" d="M308.299,499.694c-0.913,0.053-1.86-0.361-2.744-0.926
				c-3.779-2.412-7.093-5.228-9.302-9.288c-1.617-2.973-3.667-5.709-5.527-8.549c-0.688-1.051-0.65-1.153,0.588-1.438
				c11.198-2.57,22.396-5.14,33.595-7.708c1.202-0.275,1.354-0.147,0.984,1.076c-1.729,5.728-3.483,11.446-5.249,17.162
				c-0.3,0.973-0.892,1.784-1.677,2.438c-2.364,1.972-4.721,3.953-7.109,5.896C310.887,499.149,309.781,499.696,308.299,499.694z"/>
			<path fill-rule="evenodd" clip-rule="evenodd" fill="#99968C" d="M211.8,382.811c-5.806,2.11-11.614,4.217-17.418,6.332
				c-7.566,2.758-15.129,5.52-22.693,8.283c-1.984,0.725-3.964,1.461-5.946,2.191c-1.364-2.778-1.98-5.806-2.899-8.731
				c-0.338-1.076,0.399-1.489,1.248-1.821c3.977-1.555,7.949-3.121,11.92-4.689c10.023-3.957,20.044-7.918,30.066-11.875
				c0.446-0.176,0.902-0.325,1.344-0.508c0.614-0.254,1.006-0.041,1.208,0.557c1.045,3.101,2.09,6.201,3.113,9.309
				C211.84,382.149,211.785,382.491,211.8,382.811z"/>
			<path fill-rule="evenodd" clip-rule="evenodd" fill="#858585" d="M248.089,284.556c0.13-0.569,0.289-1.35,0.487-2.12
				c1.973-7.649,3.947-15.298,5.935-22.943c0.405-1.558,0.477-1.556,1.815-0.515c2.453,1.908,4.913,3.805,7.374,5.703
				c1.015,0.783,1.619,1.745,1.905,3.052c1.984,9.035,4.047,18.053,6.079,27.078c0.227,1.01,0.404,2.03,0.627,3.041
				c0.068,0.308,0.281,0.635-0.054,0.87c-0.371,0.26-0.666-0.023-0.951-0.243c-2.273-1.75-4.599-3.437-6.81-5.262
				c-2.819-2.328-6.064-3.767-9.466-4.963c-2.061-0.725-4.078-1.576-6.109-2.383C248.431,285.675,247.94,285.444,248.089,284.556z"
				/>
			<path fill-rule="evenodd" clip-rule="evenodd" fill="#99968C" d="M282.116,411.103c0.327,2.74,0.652,5.422,0.966,8.105
				c0.696,5.948,1.395,11.896,2.078,17.845c0.509,4.442,0.989,8.888,1.496,13.33c0.117,1.023-0.228,1.575-1.325,1.67
				c-1.708,0.146-3.412,0.368-5.114,0.584c-1.061,0.135-1.729-0.241-2.125-1.274c-2.841-7.417-5.713-14.821-8.569-22.232
				c-0.434-1.126-0.323-2.163,0.458-3.146c3.775-4.759,7.528-9.536,11.292-14.306C281.441,411.464,281.581,411.207,282.116,411.103z
				"/>
			<path fill-rule="evenodd" clip-rule="evenodd" fill="#858585" d="M252.872,443.557c0.905-3.573,1.812-7.146,2.715-10.72
				c0.234-0.925,0.444-1.856,0.685-2.779c0.153-0.586,0.392-0.808,0.969-0.307c1.081,0.938,2.226,1.803,3.33,2.715
				c1.303,1.077,1.797,1.073,3.079-0.106c0.94-0.865,1.84-1.775,2.806-2.608c1.123-0.968,1.17-0.951,1.682,0.36
				c2.022,5.188,4.046,10.373,6.021,15.578c0.361,0.95,0.976,1.827,0.985,2.9c-0.467,0.306-0.936,0.092-1.383-0.029
				c-4.115-1.112-8.268-2.072-12.407-3.084c-2.434-0.596-4.917-1.001-7.367-1.538C253.6,443.854,253.186,443.851,252.872,443.557z"
				/>
			<path fill-rule="evenodd" clip-rule="evenodd" fill="#99968C" d="M292.444,244.327c-0.322,0.232-0.443,0.57-0.419,0.94
				c0.487,7.542-1.422,14.635-4.289,21.479c-1.225,2.924-2.845,5.794-5.835,7.379c-2.613,1.386-5.414,1.717-8.196,0.534
				c-2.029-0.863-3.148-2.759-4.429-4.431c-0.43-0.562-0.712-1.261-1.522-1.402c-0.09-0.304-0.214-0.603-0.264-0.913
				c-0.098-0.617,0.042-0.911,0.774-0.637c2.152,0.805,4.41,0.674,6.627,0.508c2.26-0.169,4.164-1.248,5.79-2.831
				c3.436-3.345,5.478-7.493,6.977-11.965c1.165-3.475,2.521-6.873,4.145-10.249C292.35,243.188,292.513,243.708,292.444,244.327z"
				/>
			<path fill-rule="evenodd" clip-rule="evenodd" fill="#FFFFFF" d="M252.872,443.557c1.229-0.2,2.376,0.29,3.518,0.551
				c2.819,0.644,5.651,1.244,8.464,1.913c3.44,0.817,6.853,1.74,10.289,2.569c0.749,1.14,1.037,2.477,1.582,3.703
				c0.318,0.716-0.283,0.596-0.612,0.632c-2.214,0.242-4.432,0.458-6.648,0.687c-4.352,0.448-8.704,0.909-13.057,1.347
				c-2.171,0.219-4.346,0.397-6.692,0.609C250.79,451.479,251.831,447.518,252.872,443.557z"/>
			<path fill-rule="evenodd" clip-rule="evenodd" fill="#99968C" d="M289.293,157.223c-1.102-0.206-2.031,0.36-2.983,0.725
				c-8.938,3.432-17.863,6.896-26.796,10.341c-0.839,0.324-1.55,0.837-2.201,1.423c-3.708,3.341-7.377,6.724-11.104,10.043
				c-1.292,1.15-1.881,2.443-1.779,4.208c0.311,5.357-1.005,10.523-2.026,15.72c-0.346,1.757-0.7,3.513-1.048,5.269
				c-0.13,0.658,0.003,1.194,0.694,1.465c-0.465,0.731-0.886,0.6-1.177-0.111c-0.146-0.358-0.233-0.786-0.197-1.169
				c0.68-7.297,0.273-14.61,0.284-21.914c0.003-2.073,0.645-3.531,2.219-4.856c3.603-3.036,7.122-6.175,10.601-9.353
				c1.549-1.414,3.345-2.26,5.262-2.987c9.357-3.551,18.699-7.14,28.052-10.701c1.673-0.637,1.718-0.589,2.073,1.194
				C289.213,156.753,289.251,156.989,289.293,157.223z"/>
			<path fill-rule="evenodd" clip-rule="evenodd" fill="#FFFFFF" d="M293.104,209.915c2.197,0,4.393,0.013,6.589-0.007
				c0.77-0.007,1.309,0.065,1.155,1.087c-0.294,1.962,0.408,3.364,2.444,3.887c0.719,0.185,0.514,0.643,0.362,1.105
				c-1.032,3.132-4.339,5.562-7.826,5.779c-5.885,0.367-10.761-3.448-11-10.546c-0.028-0.844,0.348-1.259,1.208-1.256
				c2.356,0.009,4.712,0.003,7.068,0.003C293.104,209.95,293.104,209.933,293.104,209.915z"/>
			<path fill-rule="evenodd" clip-rule="evenodd" fill="#FFFFFF" d="M256.448,209.925c2.319,0,4.64,0.023,6.958-0.014
				c0.693-0.011,0.943,0.186,0.792,0.881c-0.067,0.307-0.04,0.637-0.041,0.957c-0.007,1.897,0.358,2.496,2.2,3.044
				c0.914,0.271,0.966,0.635,0.663,1.427c-1.618,4.231-6.535,6.502-11.326,5.191c-3.923-1.074-6.699-4.304-7.195-8.374
				c-0.379-3.111-0.379-3.111,2.791-3.111C253.009,209.925,254.729,209.926,256.448,209.925z"/>
			<path fill-rule="evenodd" clip-rule="evenodd" fill="#99968C" d="M294.943,207.89c-2.878,0-5.756-0.013-8.635,0.007
				c-0.952,0.007-1.424-0.319-1.279-1.351c0.942-6.695,8.355-10.555,14.419-7.474c3.06,1.554,4.555,4.24,5.231,7.479
				c0.209,1.003-0.229,1.37-1.223,1.359c-2.837-0.032-5.676-0.011-8.514-0.011C294.943,207.896,294.943,207.893,294.943,207.89z"/>
			<path fill-rule="evenodd" clip-rule="evenodd" fill="#99968C" d="M258.311,207.879c-2.797,0.001-5.594,0.014-8.391-0.005
				c-1.38-0.009-1.627-0.342-1.352-1.673c1.05-5.081,4.844-8.138,10.08-8.123c4.651,0.014,8.502,3.383,9.463,8.28
				c0.228,1.162-0.037,1.505-1.291,1.514C263.984,207.893,261.147,207.879,258.311,207.879z"/>
		</g>
	</g>
</g>
</svg>
