<?xml version="1.0" encoding="utf-8"?>
<!-- Generator: Adobe Illustrator 16.0.0, SVG Export Plug-In . SVG Version: 6.00 Build 0)  -->
<!DOCTYPE svg PUBLIC "-//W3C//DTD SVG 1.1//EN" "http://www.w3.org/Graphics/SVG/1.1/DTD/svg11.dtd">
<svg version="1.1" id="Layer_1" xmlns="http://www.w3.org/2000/svg" xmlns:xlink="http://www.w3.org/1999/xlink" x="0px" y="0px"
	 width="318.24px" height="79.42px" viewBox="0 0 318.24 79.42" enable-background="new 0 0 318.24 79.42" xml:space="preserve">
<g id="XUWgmb_1_">
	<g>
		<g>
			<path fill="#FFFFFF" d="M0.24,79.67c0-26.48,0-52.96,0-79.44c106.08,0,212.16,0,318.24,0c0,26.479,0,52.959,0,79.44
				C212.4,79.67,106.32,79.67,0.24,79.67z M70.167,48.223c0.052,0.754,0.086,1.387,0.14,2.019
				c0.568,6.629,3.714,11.528,9.797,14.375c4.573,2.139,9.405,2.302,14.31,1.605c7.458-1.06,13.06-6.09,14.667-13.241
				c0.345-1.534,0.433-3.127,0.636-4.67c1.563,0,3.059,0,4.615,0c0.047,0.674,0.082,1.268,0.13,1.861
				c0.549,6.738,3.769,11.682,9.955,14.519c4.542,2.084,9.366,2.346,14.202,1.497c7.07-1.239,12.21-4.974,14.319-12.105
				c0.548-1.853,0.683-3.826,1.034-5.903c1.081,0,2.256,0,3.464,0c0-0.625,0-1.104,0-1.583c0-0.465,0-0.93,0-1.481
				c-1.096,0-2.051-0.038-3,0.013c-0.689,0.036-0.951-0.189-1.091-0.896c-1.232-6.202-4.822-10.473-10.686-12.818
				c-4.278-1.711-8.731-1.932-13.196-1.142c-6.583,1.166-11.493,4.62-13.929,11.046c-0.57,1.503-0.822,3.126-1.223,4.701
				c-1.586,0-3.175,0-4.797,0c-0.033-0.197-0.06-0.347-0.083-0.497c-1.116-7.556-5.363-12.457-12.626-14.7
				c-3.685-1.138-7.469-1.145-11.271-0.604c-7.794,1.107-13.437,6.387-14.956,14.1c-0.136,0.689-0.429,0.827-1.035,0.806
				c-0.986-0.034-1.975-0.009-2.973-0.009c0,1.106,0,2.077,0,3.108C67.767,48.223,68.88,48.223,70.167,48.223z M24.466,12.33
				c0,17.745,0,35.421,0,53.107c2.36,0,4.618,0,7.02,0c0-1.592,0-3.114,0-4.771c4.125,4.059,7.702,5.739,13.622,5.899
				c4.93,0.134,9.44-1.083,13.151-4.465c6.019-5.487,7.512-15.571,3.536-23.072c-6.039-11.392-21.008-10.893-28.031-5.496
				c-0.676,0.52-1.301,1.107-2.162,1.845c0-7.853,0-15.455,0-23.049C29.139,12.33,26.833,12.33,24.466,12.33z M260.864,12.328
				c0,17.744,0,35.42,0,53.111c2.357,0,4.615,0,7.018,0c0-1.59,0-3.112,0-4.803c0.338,0.314,0.521,0.466,0.682,0.638
				c6.243,6.687,17.604,6.566,23.805,2.564c5.692-3.674,7.998-9.119,7.975-15.695c-0.02-5.532-1.77-10.408-6.104-14.019
				c-5.829-4.855-12.48-5.157-19.439-3.042c-2.542,0.773-4.699,2.243-6.792,4.387c0-7.939,0-15.541,0-23.141
				C265.543,12.328,263.237,12.328,260.864,12.328z M167.241,48.066c0-12.128,0-23.898,0-35.733c-2.453,0-4.788,0-7.172,0
				c0,17.748,0,35.424,0,53.092c2.441,0,4.777,0,7.245,0c0-5.766,0-11.447,0-17.322c0.428,0.396,0.694,0.626,0.943,0.873
				c4.395,4.37,8.938,8.603,13.119,13.168c2.349,2.565,4.784,3.97,8.275,3.392c1.012-0.167,2.075-0.019,3.114-0.03
				c0.24-0.003,0.479-0.071,0.577-0.087c-5.691-5.831-11.378-11.658-17.113-17.536c5.188-5.545,10.43-11.148,15.837-16.928
				c-2.628,0-4.947,0.065-7.262-0.027c-1.188-0.047-1.97,0.353-2.766,1.22C177.23,37.39,172.359,42.575,167.241,48.066z
				 M251.368,31.029c-2.49,0-4.831,0-7.269,0c0,0.506,0,0.938,0,1.369c0,6.958,0.018,13.917-0.028,20.875
				c-0.005,0.658-0.262,1.414-0.642,1.957c-3.102,4.426-7.446,6.082-12.715,5.448c-3.266-0.393-5.416-2.425-6.004-5.628
				c-0.201-1.094-0.255-2.226-0.259-3.341c-0.023-6.438-0.012-12.877-0.012-19.315c0-0.459,0-0.917,0-1.346
				c-2.524,0-4.859,0-7.219,0c0,7.811-0.112,15.529,0.047,23.242c0.079,3.802,1.556,7.163,4.661,9.6
				c2.464,1.932,5.361,2.561,8.411,2.666c5.146,0.178,9.716-1.167,13.288-5.093c0.174-0.19,0.234-0.484,0.348-0.73
				c0.125,0.093,0.25,0.185,0.374,0.277c0,1.462,0,2.925,0,4.42c2.39,0,4.68,0,7.018,0
				C251.368,53.931,251.368,42.511,251.368,31.029z M208.193,65.465c0-17.785,0-35.462,0-53.136c-2.413,0-4.719,0-7.094,0
				c0,17.742,0,35.417,0,53.136C203.503,65.465,205.812,65.465,208.193,65.465z"/>
			<path fill-rule="evenodd" clip-rule="evenodd" d="M70.167,48.223c-1.287,0-2.399,0-3.597,0c0-1.031,0-2.002,0-3.108
				c0.999,0,1.987-0.025,2.973,0.009c0.606,0.021,0.899-0.116,1.035-0.806c1.519-7.713,7.161-12.993,14.956-14.1
				c3.803-0.541,7.586-0.533,11.271,0.604c7.263,2.243,11.51,7.144,12.626,14.7c0.022,0.15,0.05,0.3,0.083,0.497
				c1.623,0,3.211,0,4.797,0c0.4-1.575,0.653-3.198,1.223-4.701c2.436-6.426,7.346-9.881,13.929-11.046
				c4.465-0.791,8.918-0.569,13.196,1.142c5.864,2.345,9.454,6.616,10.686,12.818c0.14,0.706,0.402,0.932,1.091,0.896
				c0.949-0.051,1.904-0.013,3-0.013c0,0.552,0,1.017,0,1.481c0,0.479,0,0.958,0,1.583c-1.208,0-2.383,0-3.464,0
				c-0.351,2.077-0.486,4.051-1.034,5.903c-2.109,7.132-7.249,10.866-14.319,12.105c-4.836,0.849-9.66,0.587-14.202-1.497
				c-6.186-2.837-9.406-7.78-9.955-14.519c-0.048-0.594-0.083-1.188-0.13-1.861c-1.556,0-3.051,0-4.615,0
				c-0.203,1.543-0.291,3.136-0.636,4.67c-1.607,7.151-7.209,12.182-14.667,13.241c-4.905,0.696-9.737,0.533-14.31-1.605
				c-6.083-2.847-9.229-7.746-9.797-14.375C70.252,49.609,70.218,48.977,70.167,48.223z M141.627,48.287c-6.587,0-13.16,0-19.725,0
				c-0.655,6.056,3.957,11.761,9.976,12.411c6.491,0.702,12.833-2.717,13.24-7.137C142.374,53.69,140.184,51.857,141.627,48.287z
				 M77.697,48.267c-0.295,6.504,4.087,11.853,10.085,12.438c6.536,0.637,12.536-2.597,13.208-7.177
				c-1.429,0.189-2.73-0.005-3.632-1.274c-0.924-1.301-0.666-2.623,0.062-3.986C90.787,48.267,84.283,48.267,77.697,48.267z
				 M77.805,45.948c8.073,0,16.089,0,24.127,0c-1.223-6.972-5.5-10.325-12.885-10.207C83.047,35.838,78.659,39.799,77.805,45.948z
				 M146.058,46.011c-0.821-6.838-5.688-10.566-13.323-10.261c-5.729,0.229-10.472,4.754-10.723,10.261
				C130.026,46.011,138.039,46.011,146.058,46.011z"/>
			<path fill-rule="evenodd" clip-rule="evenodd" d="M24.466,12.33c2.367,0,4.672,0,7.136,0c0,7.594,0,15.196,0,23.049
				c0.861-0.738,1.485-1.326,2.162-1.845c7.023-5.397,21.992-5.896,28.031,5.496c3.976,7.5,2.483,17.584-3.536,23.072
				c-3.71,3.382-8.221,4.599-13.151,4.465c-5.92-0.16-9.498-1.841-13.622-5.899c0,1.656,0,3.179,0,4.771c-2.402,0-4.66,0-7.02,0
				C24.466,47.751,24.466,30.075,24.466,12.33z M31.476,48.322c0.198,1.645,0.049,3.433,0.655,4.91
				c2.28,5.566,8.046,8.492,14.598,7.345c7.91-1.386,11.021-8.771,9.547-15.354c-1.083-4.839-4.094-8.032-8.924-9.125
				c-5.148-1.165-9.722,0.125-13.392,4.084C31.815,42.496,31.283,45.271,31.476,48.322z"/>
			<path fill-rule="evenodd" clip-rule="evenodd" d="M260.864,12.328c2.373,0,4.679,0,7.143,0c0,7.6,0,15.201,0,23.141
				c2.093-2.144,4.25-3.614,6.792-4.387c6.959-2.115,13.61-1.812,19.439,3.042c4.335,3.611,6.085,8.486,6.104,14.019
				c0.023,6.576-2.282,12.021-7.975,15.695c-6.201,4.002-17.562,4.122-23.805-2.564c-0.16-0.172-0.344-0.323-0.682-0.638
				c0,1.69,0,3.213,0,4.803c-2.402,0-4.66,0-7.018,0C260.864,47.748,260.864,30.072,260.864,12.328z M268.162,48.267
				c-0.1-0.002-0.199-0.004-0.299-0.006c0.211,1.682,0.074,3.507,0.694,5.021c2.243,5.47,7.937,8.436,14.508,7.309
				c8.079-1.385,11.087-8.926,9.597-15.42c-1.111-4.842-4.138-8.011-8.964-9.085c-5.1-1.135-9.646,0.142-13.297,4.05
				C268.251,42.437,267.656,45.194,268.162,48.267z"/>
			<path fill-rule="evenodd" clip-rule="evenodd" d="M167.241,48.066c5.118-5.491,9.989-10.677,14.799-15.919
				c0.796-0.868,1.578-1.267,2.766-1.22c2.314,0.092,4.634,0.027,7.262,0.027c-5.407,5.78-10.649,11.383-15.837,16.928
				c5.735,5.878,11.422,11.705,17.113,17.536c-0.098,0.016-0.337,0.084-0.577,0.087c-1.039,0.012-2.103-0.137-3.114,0.03
				c-3.491,0.578-5.927-0.826-8.275-3.392c-4.181-4.565-8.725-8.798-13.119-13.168c-0.249-0.247-0.516-0.478-0.943-0.873
				c0,5.875,0,11.557,0,17.322c-2.468,0-4.804,0-7.245,0c0-17.668,0-35.344,0-53.092c2.384,0,4.719,0,7.172,0
				C167.241,24.168,167.241,35.938,167.241,48.066z"/>
			<path fill-rule="evenodd" clip-rule="evenodd" d="M251.368,31.029c0,11.481,0,22.901,0,34.401c-2.338,0-4.628,0-7.018,0
				c0-1.495,0-2.958,0-4.42c-0.124-0.093-0.249-0.185-0.374-0.277c-0.113,0.246-0.174,0.54-0.348,0.73
				c-3.572,3.926-8.142,5.271-13.288,5.093c-3.05-0.105-5.947-0.734-8.411-2.666c-3.105-2.437-4.582-5.798-4.661-9.6
				c-0.159-7.713-0.047-15.432-0.047-23.242c2.359,0,4.694,0,7.219,0c0,0.428,0,0.887,0,1.346c0,6.438-0.012,12.877,0.012,19.315
				c0.004,1.115,0.058,2.247,0.259,3.341c0.588,3.203,2.738,5.235,6.004,5.628c5.269,0.634,9.613-1.022,12.715-5.448
				c0.38-0.543,0.637-1.299,0.642-1.957c0.046-6.958,0.028-13.917,0.028-20.875c0-0.432,0-0.863,0-1.369
				C246.537,31.029,248.878,31.029,251.368,31.029z"/>
			<path fill-rule="evenodd" clip-rule="evenodd" d="M208.193,65.465c-2.382,0-4.69,0-7.094,0c0-17.72,0-35.394,0-53.136
				c2.375,0,4.681,0,7.094,0C208.193,30.003,208.193,47.68,208.193,65.465z"/>
			<path fill-rule="evenodd" clip-rule="evenodd" fill="#FFFFFF" d="M141.627,48.287c-1.444,3.57,0.746,5.403,3.491,5.274
				c-0.408,4.42-6.75,7.839-13.24,7.137c-6.02-0.65-10.631-6.355-9.976-12.411C128.468,48.287,135.041,48.287,141.627,48.287z"/>
			<path fill-rule="evenodd" clip-rule="evenodd" fill="#FFFFFF" d="M77.697,48.267c6.586,0,13.09,0,19.723,0
				c-0.729,1.363-0.986,2.686-0.062,3.986c0.902,1.27,2.204,1.464,3.632,1.274c-0.672,4.58-6.672,7.813-13.208,7.177
				C81.784,60.119,77.402,54.771,77.697,48.267z"/>
			<path fill-rule="evenodd" clip-rule="evenodd" fill="#FFFFFF" d="M77.805,45.948c0.854-6.149,5.242-10.11,11.242-10.207
				c7.384-0.118,11.662,3.234,12.885,10.207C93.894,45.948,85.877,45.948,77.805,45.948z"/>
			<path fill-rule="evenodd" clip-rule="evenodd" fill="#FFFFFF" d="M146.058,46.011c-8.02,0-16.032,0-24.046,0
				c0.251-5.507,4.994-10.032,10.723-10.261C140.37,35.445,145.237,39.172,146.058,46.011z"/>
			<path fill-rule="evenodd" clip-rule="evenodd" fill="#FFFFFF" d="M31.476,48.322c-0.192-3.051,0.339-5.826,2.484-8.139
				c3.67-3.959,8.244-5.249,13.392-4.084c4.831,1.092,7.841,4.286,8.924,9.125c1.474,6.583-1.637,13.968-9.547,15.354
				c-6.552,1.147-12.318-1.778-14.598-7.345C31.525,51.755,31.673,49.967,31.476,48.322z"/>
			<path fill-rule="evenodd" clip-rule="evenodd" fill="#FFFFFF" d="M268.162,48.267c-0.506-3.072,0.089-5.83,2.239-8.132
				c3.65-3.908,8.197-5.185,13.297-4.05c4.826,1.074,7.853,4.244,8.964,9.085c1.49,6.494-1.518,14.035-9.597,15.42
				c-6.571,1.127-12.265-1.839-14.508-7.309c-0.62-1.514-0.483-3.339-0.694-5.021C267.963,48.263,268.062,48.265,268.162,48.267z"/>
		</g>
	</g>
</g>
</svg>
