<?xml version="1.0" encoding="utf-8"?>
<!-- Generator: Adobe Illustrator 16.0.0, SVG Export Plug-In . SVG Version: 6.00 Build 0)  -->
<!DOCTYPE svg PUBLIC "-//W3C//DTD SVG 1.1//EN" "http://www.w3.org/Graphics/SVG/1.1/DTD/svg11.dtd">
<svg version="1.1" id="Layer_1" xmlns="http://www.w3.org/2000/svg" xmlns:xlink="http://www.w3.org/1999/xlink" x="0px" y="0px"
	 width="672.48px" height="641.3px" viewBox="0 0 672.48 641.3" enable-background="new 0 0 672.48 641.3" xml:space="preserve">
<g id="fspqbq_1_">
	<g>
		<g>
			<path fill="#FEFDFD" d="M324.36,482.529c-70.84,0-141.68-0.001-212.52,0.023c-0.899,0-1.103-0.203-1.102-1.103
				c0.023-107.04,0.023-214.081,0-321.121c0-0.899,0.203-1.102,1.102-1.102c149.76,0.023,299.521,0.023,449.28,0
				c0.899,0,1.103,0.203,1.103,1.102c-0.024,107.04-0.024,214.081,0,321.121c0,0.899-0.203,1.103-1.103,1.103
				c-75.32-0.024-150.641-0.023-225.96-0.023c-0.326-0.573,0.111-0.807,0.497-0.973c1.538-0.663,2.819-1.704,4.122-2.721
				c1.316-0.76,2.637-1.515,3.996-2.19c5.512-2.742,10.89-5.771,16.58-8.126c3.396-1.404,6.771-2.868,10.199-4.203
				c7.381-2.875,14.918-5.276,22.521-7.467c2.454-0.706,4.961-1.277,7.405-1.996c4.423-1.301,8.957-2.05,13.427-3.101
				c3.728-0.875,7.561-1.233,11.29-2.056c2.743-0.604,5.524-0.684,8.274-1.066c2.38-0.332,4.843-0.51,7.188-0.903
				c3.216-0.54,6.449,0.142,9.641-0.701c1.86-0.491,3.901-0.104,5.86-0.119c0.768-0.006,1.49-0.115,2.221-0.397
				c1.541-0.595,3.157-0.313,4.746-0.237c0.477,0.022,0.949,0.155,1.431,0.145c4.839-0.112,9.671,0.242,14.506,0.22
				c4.2-0.02,8.386,0.418,12.586,0.274c0.239-0.009,0.495-0.023,0.714,0.063c2.559,1.016,5.294,0.525,7.906,0.947
				c2.406,0.389,4.939,0.231,7.192,0.882c2.479,0.716,5.021,0.657,7.489,1.376c2.751,0.8,5.827,0.809,8.557,0.075
				c3.506-0.942,6.64-2.739,8.558-6.251c1.88-3.445,2.691-7.046,2.66-10.892c-0.043-5.078,0.23-10.149,0.306-15.225
				c0.078-5.23,0.27-10.463,0.453-15.692c0.214-6.11,0.328-12.222,0.489-18.333c0.153-5.83,0.293-11.662,0.475-17.492
				c0.177-5.67,0.307-11.342,0.48-17.012c0.177-5.79,0.309-11.582,0.481-17.372c0.17-5.671,0.286-11.343,0.482-17.012
				c0.223-6.43,0.302-12.862,0.498-19.291c0.167-5.471,0.34-10.939,0.471-16.412c0.131-5.431,0.274-10.863,0.46-16.292
				c0.198-5.831,0.315-11.663,0.515-17.491c0.104-3.038,0.058-6.075,0.188-9.108c0.292-6.708,0.376-13.42,0.498-20.132
				c0.072-3.954-0.584-7.647-2.784-11.022c-1.372-2.105-3.257-3.546-5.501-4.466c-2.779-1.139-5.646-2.027-8.734-1.812
				c-2.88,0.202-5.745-0.294-8.625-0.251c-1.365,0.021-1.843-0.51-1.965-1.875c-0.176-1.965,0.122-3.919,0.262-5.863
				c0.393-5.472-3.752-10.456-8.564-12.446c-1.781-0.736-3.746-1.24-5.812-1.189c-4.834,0.118-9.664-0.328-14.505-0.239
				c-1.309,0.024-2.621-0.235-3.945-0.219c-1.324,0.016-2.597,0.141-3.895,0.508c-1.702,0.481-3.495,0.291-5.244,0.096
				c-1.091-0.122-2.146-0.195-3.158,0.348c-0.471,0.253-1.003,0.241-1.524,0.259c-1.983,0.068-3.947,0.196-5.931,0.453
				c-2.031,0.263-4.093,0.582-6.154,0.717c-1.082,0.071-2.146,0.086-3.161,0.543c-0.728,0.328-1.517-0.059-2.256,0.078
				c-1.92,0.355-3.822,0.861-5.758,1.075c-2.549,0.282-5.01,0.998-7.533,1.342c-2.026,0.277-3.965,0.869-5.938,1.328
				c-1.553,0.361-3.074,0.809-4.654,1.1c-2.108,0.388-4.249,0.793-6.224,1.734c-0.873,0.416-1.796,0.657-2.784,0.621
				c-0.649-0.024-1.259,0.203-1.857,0.435c-5.033,1.945-10.234,3.422-15.226,5.486c-1.367,0.565-2.786,1.014-4.064,1.771
				c-2.744,1.623-5.982,2.077-8.732,3.635c-4.762,2.699-9.82,4.807-14.536,7.612c-3.434,2.042-6.863,4.098-10.288,6.156
				c-3.94,2.367-7.701,4.996-11.417,7.708c-1.927,1.406-3.874,2.828-5.752,4.278c-2.206,1.703-4.413,3.434-6.576,5.206
				c-1.402,1.149-1.908,1.165-3.172-0.075c-6.417-6.292-13.596-11.65-20.778-17.004c-4.555-3.396-9.211-6.641-14.118-9.521
				c-5.728-3.362-11.522-6.612-17.514-9.465c-3.417-1.627-6.801-3.353-10.394-4.626c-3.306-1.172-6.445-2.787-9.749-3.979
				c-4.47-1.614-8.989-3.071-13.582-4.315c-5.047-1.367-10.141-2.536-15.206-3.824c-2.592-0.659-5.266-0.885-7.815-1.65
				c-1.673-0.501-3.341-0.716-5.066-0.708c-0.611,0.002-1.132-0.477-1.709-0.516c-2.334-0.157-4.581-0.863-6.892-1.076
				c-1.626-0.15-3.248-0.106-4.848-0.613c-1.893-0.6-3.886-0.382-5.843-0.379c-0.971,0.001-1.898-0.102-2.81-0.487
				c-0.928-0.393-1.931-0.502-2.941-0.478c-4.959,0.119-9.907-0.411-14.866-0.246c-0.844,0.028-1.662-0.226-2.506-0.234
				c-6.658-0.067-11.668,2.859-15.126,8.459c-0.723,1.17-1.101,2.611-1.179,3.976c-0.117,2.031-0.374,4.058-0.323,6.104
				c0.049,1.944-0.621,2.372-2.605,2.228c-3.792-0.276-7.609-0.333-11.386-0.021c-4.295,0.354-7.942,2.326-10.88,5.519
				c-1.988,2.162-2.978,4.753-2.927,7.66c0.073,4.202-0.208,8.392-0.309,12.585c-0.154,6.391-0.283,12.783-0.473,19.172
				c-0.144,4.831-0.287,9.664-0.474,14.493c-0.229,5.91-0.327,11.821-0.486,17.732c-0.168,6.23-0.29,12.463-0.479,18.692
				c-0.178,5.871-0.307,11.742-0.479,17.612c-0.175,5.951-0.308,11.902-0.483,17.852c-0.163,5.551-0.295,11.103-0.475,16.651
				c-0.191,5.911-0.318,11.821-0.483,17.732c-0.136,4.87-0.308,9.741-0.481,14.611c-0.209,5.87-0.337,11.74-0.474,17.611
				c-0.144,6.191-0.281,12.385-0.513,18.571c-0.12,3.198-0.16,6.393-0.16,9.588c0,3.801-0.531,7.572-0.503,11.373
				c0.028,3.771,1.276,6.907,3.945,9.707c2.799,2.937,6.033,4.179,9.964,4.046c1.156-0.04,2.32-0.075,3.472,0.122
				c0.278,0.048,0.579,0.083,0.832-0.03c1.595-0.712,3.3-0.449,4.957-0.632c1.529-0.168,2.981-0.735,4.583-0.701
				c3.728,0.079,7.424-0.76,11.169-0.484c0.481,0.036,0.937-0.188,1.387-0.354c0.647-0.238,1.317-0.401,2-0.284
				c1.71,0.294,3.433,0.124,5.148,0.2c4.914,0.219,9.835,0.098,14.743,0.299c3.479,0.142,6.953,0.102,10.429,0.169
				c0.811,0.016,1.575,0.114,2.325,0.467c0.842,0.396,1.767,0.492,2.694,0.496c1.36,0.007,2.72,0.021,4.08-0.003
				c1.133-0.021,2.219,0.059,3.248,0.635c0.758,0.426,1.63,0.406,2.464,0.241c1.018-0.2,2.008-0.087,2.954,0.254
				c1.228,0.442,2.476,0.6,3.77,0.563c1.132-0.032,2.232,0.151,3.261,0.661c0.326,0.161,0.678,0.285,1.039,0.262
				c2.603-0.173,5.073,0.673,7.572,1.13c2.808,0.514,5.587,1.383,8.401,1.798c3.058,0.449,5.847,1.98,8.98,1.98
				c0.398,0,0.782,0.165,1.156,0.306c4.795,1.802,9.817,2.874,14.651,4.529c3.626,1.242,7.244,2.535,10.793,3.995
				c5.066,2.082,10.232,3.919,15.201,6.244c4.638,2.171,9.138,4.612,13.691,6.948c2.452,1.258,4.976,2.395,7.292,3.912
				c1.234,0.809,2.481,1.597,3.668,2.472c0.479,0.536,1.1,0.863,1.742,1.159c0.104,0.052,0.202,0.113,0.298,0.179
				c1.532,0.988,2.918,2.21,4.679,2.832C324.187,481.627,324.679,481.89,324.36,482.529z"/>
			<path fill-rule="evenodd" clip-rule="evenodd" fill="#656565" d="M324.36,482.529c0.019-0.643-0.495-0.75-0.937-0.903
				c-1.761-0.617-3.126-1.847-4.58-2.939c0.893-0.367,1.565,0.132,2.146,0.657c1.755,1.591,3.761,2.268,6.142,2.166
				c2.029-0.085,4.07-0.139,6.106,0.127c1.012,0.131,1.976-0.239,2.845-0.774c0.783-0.481,1.567-0.961,2.348-1.447
				c0.392-0.244,0.798-0.591,1.31-0.233c-1.271,1.031-2.479,2.154-4.083,2.684c-0.291,0.096-0.613,0.234-0.498,0.664
				C331.56,482.529,327.96,482.529,324.36,482.529z"/>
			<path fill-rule="evenodd" clip-rule="evenodd" fill="#080909" d="M339.74,479.182c-1.174,0.241-2.015,1.092-2.984,1.688
				c-1.38,0.851-2.754,1.196-4.411,1.019c-1.976-0.213-3.995-0.147-5.988-0.051c-2.161,0.104-3.854-0.845-5.428-2.117
				c-0.634-0.513-1.254-0.963-2.085-1.034l-0.001-0.001c-0.511-0.403-1.165-0.559-1.674-0.964
				c-5.942-3.978-12.425-6.964-18.729-10.284c-6.724-3.541-13.797-6.247-20.815-9.107c-3.672-1.496-7.398-2.889-11.141-4.114
				c-3.782-1.238-7.557-2.646-11.508-3.383c-0.882-0.165-1.723-0.577-2.566-0.917c-0.662-0.266-1.321-0.717-2.025-0.616
				c-1.629,0.234-3.093-0.437-4.485-0.953c-1.774-0.657-3.626-0.737-5.413-1.223c-1.944-0.527-3.969-0.862-5.951-1.271
				c-2.07-0.428-4.202-0.58-6.229-1.229c-0.297-0.096-0.62-0.145-0.933-0.154c-1.226-0.037-2.483,0.161-3.565-0.688
				c-0.189-0.149-0.541-0.114-0.819-0.126c-2.381-0.097-4.737-0.325-7.024-1.074c-0.383-0.125-0.867,0.028-1.299,0.089
				c-0.8,0.11-1.675,0.274-2.355-0.138c-1.707-1.035-3.553-0.603-5.35-0.709c-1.926-0.115-3.924,0.256-5.694-0.907
				c-0.199-0.131-0.548-0.036-0.827-0.041c-6.637-0.095-13.28-0.058-19.91-0.336c-3.708-0.155-7.431,0.125-11.125-0.377
				c-0.353-0.048-0.777-0.121-1.07,0.021c-2.63,1.271-5.411,0.484-8.12,0.636c-0.712,0.039-1.404-0.052-2.049,0.438
				c-0.369,0.28-0.916,0.168-1.4,0.17c-1.927,0.007-3.913-0.507-5.733,0.586c-0.125,0.075-0.312,0.06-0.47,0.063
				c-1.693,0.037-3.354,0.03-5.056,0.439c-1.507,0.362-3.177,0.013-4.773,0.047c-1.687,0.036-3.318-0.22-4.917-0.729
				c-0.489-0.156-1.041-0.261-1.429-0.562c-3.549-2.761-6.906-5.597-7.464-10.565c-0.375-3.339,0.188-6.613,0.166-9.919
				c-0.003-0.395,0.123-0.791,0.114-1.186c-0.126-5.88,0.201-11.753,0.302-17.629c0.16-9.228,0.452-18.452,0.708-27.677
				c0.138-4.99,0.274-9.981,0.487-14.97c0.254-5.945,0.319-11.896,0.496-17.842c0.165-5.548,0.314-11.096,0.481-16.643
				c0.176-5.828,0.3-11.657,0.474-17.485c0.18-6.028,0.307-12.057,0.487-18.084c0.178-5.948,0.353-11.895,0.462-17.844
				c0.11-5.994,0.255-11.987,0.481-17.977c0.19-5.029,0.336-10.058,0.495-15.088c0.189-6.028,0.315-12.058,0.478-18.087
				c0.138-5.11,0.569-10.223,0.421-15.33c-0.209-7.256,5.275-11.857,10.497-13.646c3.737-1.279,7.562-0.864,11.369-0.896
				c1.477-0.012,2.955,0.136,4.434,0.188c1.309,0.046,1.539-0.194,1.575-1.463c0.064-2.277-0.09-4.593,0.284-6.819
				c0.367-2.182,1.07-4.38,2.673-6.072c1.539-1.624,3.121-3.203,5.043-4.403c1.14-0.712,2.399-0.975,3.664-1.334
				c4.497-1.277,9.057-0.483,13.572-0.427c3.749,0.047,7.619-0.465,11.233,0.468c3.006,0.776,6.046,0.091,8.928,0.911
				c2.119,0.602,4.216,0.708,6.364,0.683c0.079-0.001,0.169,0.006,0.234,0.043c1.7,0.959,3.694,0.471,5.395,1.005
				c1.697,0.533,3.397,0.291,4.996,0.707c1.44,0.375,2.909,0.639,4.341,1.046c1.184,0.336,2.371,0.566,3.628,0.579
				c1.201,0.012,2.271,0.732,3.47,0.977c2.829,0.58,5.641,1.272,8.421,2.054c3.405,0.958,6.91,1.542,10.221,2.868
				c2.87,1.148,5.959,1.65,8.813,2.888c3.08,1.336,6.178,2.637,9.312,3.838c6.129,2.349,11.975,5.298,17.772,8.341
				c8.228,4.318,16.157,9.119,23.666,14.626c5.864,4.301,11.547,8.822,17.158,13.438c1.694,1.394,3.219,2.995,4.81,4.512
				c1.198,1.143,1.345,1.16,2.544,0.067c2.214-2.017,4.656-3.764,6.984-5.633c4.112-3.3,8.482-6.3,12.897-9.194
				c4.157-2.726,8.388-5.354,12.74-7.776c3.506-1.952,6.923-4.082,10.622-5.654c2.673-1.136,5.002-2.912,7.747-3.904
				c7.068-2.558,13.779-6.04,21.022-8.144c1.76-0.511,3.519-1.012,5.152-1.866c0.14-0.073,0.295-0.175,0.44-0.169
				c3.244,0.13,5.943-1.929,9.077-2.251c2.805-0.288,5.475-1.236,8.192-1.895c2.571-0.623,5.265-0.706,7.739-1.728
				c0.146-0.06,0.305-0.132,0.456-0.13c2.781,0.04,5.411-0.919,8.133-1.227c3.265-0.37,6.521-0.767,9.749-1.387
				c0.421-0.081,0.862-0.031,1.301,0.102c0.326,0.099,0.809,0.181,1.04,0.016c1.414-1.003,2.997-0.562,4.517-0.618
				c1.137-0.042,2.264,0.167,3.355-0.505c0.716-0.441,1.646-0.151,2.479-0.09c1.755,0.127,3.635,0.48,5.232-0.066
				c1.758-0.601,3.437-0.533,5.162-0.501c6.274,0.115,12.564,0.062,18.816,0.517c4.083,0.297,7.685,2.168,10.389,5.427
				c2.789,3.36,3.431,7.223,2.755,11.436c-0.175,1.093-0.074,2.234-0.053,3.353c0.015,0.769,0.442,1.067,1.234,1.087
				c3.598,0.091,7.233-0.112,10.786,0.272c8.124,0.879,12.717,3.854,14.773,10.954c0.561,1.935,1.099,4,0.876,6.219
				c-0.331,3.287-0.182,6.624-0.287,9.941c-0.27,8.471-0.361,16.947-0.56,25.42c-0.128,5.474-0.282,10.948-0.489,16.42
				c-0.24,6.351-0.237,12.709-0.486,19.055c-0.45,11.424-0.643,22.853-0.97,34.279c-0.145,5.033-0.293,10.067-0.433,15.102
				c-0.261,9.308-0.516,18.615-0.773,27.923c-0.143,5.112-0.295,10.225-0.43,15.337c-0.178,6.713-0.332,13.426-0.517,20.139
				c-0.139,5.031-0.322,10.062-0.459,15.094c-0.174,6.394-0.315,12.786-0.484,19.18c-0.036,1.355,0.103,2.775-0.246,4.054
				c-1.319,4.832-3.11,9.205-8.11,11.751c-4.089,2.081-8.149,1.244-12.273,1.225c-1.326-1.023-2.883-0.65-4.366-0.731
				c-0.271-0.015-0.575-0.059-0.8-0.195c-1.565-0.958-3.3-0.728-5-0.751c-0.439-0.006-0.938,0.115-1.309-0.048
				c-2.778-1.221-5.726-0.699-8.601-0.897c-0.445-0.031-0.907-0.005-1.233-0.336c-0.381-0.388-0.826-0.396-1.314-0.406
				c-8.714-0.167-17.429-0.34-26.143-0.523c-1.438-0.031-2.875-0.163-4.312-0.171c-1.21-0.006-2.375-0.062-3.59,0.52
				c-1.118,0.536-2.523,0.166-3.799,0.131c-1.836-0.051-3.638-0.091-5.446,0.465c-1.296,0.398-2.722-0.101-4.055,0.081
				c-2.746,0.374-5.563,0.13-8.254,1.068c-0.851,0.296-1.831-0.137-2.81,0.029c-1.942,0.33-3.926,0.51-5.887,0.707
				c-1.766,0.178-3.606,0.697-5.403,1.008c-3.84,0.662-7.655,1.427-11.474,2.193c-8.445,1.696-16.707,4.071-24.914,6.64
				c-3.352,1.05-6.67,2.217-9.988,3.378c-7.637,2.672-15.045,5.877-22.368,9.271C348.775,474.278,344.298,476.815,339.74,479.182z"
				/>
			<path fill-rule="evenodd" clip-rule="evenodd" fill="#656565" d="M317.168,477.722c0.651,0.159,1.268,0.379,1.674,0.964
				C318.176,478.553,317.614,478.237,317.168,477.722z"/>
			<path fill-rule="evenodd" clip-rule="evenodd" fill="#FEFEFE" d="M324.748,446.635c0,3.715-0.007,7.43,0.009,11.144
				c0.002,0.496-0.146,0.88-0.58,1.082c-0.431,0.2-0.764-0.073-1.054-0.366c-3.494-3.538-7.478-6.48-11.466-9.415
				c-6.482-4.771-13.271-9.079-20.07-13.374c-2.041-1.289-4.177-2.405-6.29-3.556c-2.603-1.417-5.212-2.864-7.834-4.262
				c-4.172-2.223-8.48-4.192-12.853-5.959c-2.657-1.073-5.331-2.159-8.045-3.125c-4.425-1.574-8.83-3.219-13.333-4.538
				c-2.566-0.753-5.14-1.533-7.753-2.104c-1.424-0.311-2.879-0.637-4.223-1.083c-2.618-0.87-5.469-0.777-7.956-2.07
				c-0.068-0.035-0.158-0.054-0.234-0.047c-2.292,0.218-4.451-0.67-6.628-1.068c-2.093-0.383-4.297-0.528-6.319-1.311
				c-0.961-0.371-1.893-0.518-2.906-0.332c-1.043,0.19-2.06,0.128-2.944-0.578c-0.295-0.235-0.66-0.249-1.027-0.249
				c-1,0.002-2-0.034-3-0.016c-1.238,0.021-2.436-0.025-3.609-0.563c-0.786-0.359-1.691-0.412-2.578-0.408
				c-8.079,0.037-16.15-0.316-24.226-0.469c-2.189-0.042-3.893-1.688-3.74-3.912c0.231-3.355,0.145-6.712,0.257-10.066
				c0.174-5.234,0.32-10.47,0.458-15.705c0.236-8.947,0.493-17.895,0.729-26.842c0.154-5.831,0.3-11.662,0.449-17.494
				c0.145-5.672,0.311-11.345,0.581-17.013c0.166-3.476,0.138-6.954,0.299-10.431c0.231-4.99,0.158-9.993,0.33-14.986
				c0.216-6.271,0.333-12.544,0.502-18.816c0.213-7.948,0.53-15.894,0.706-23.845c0.143-6.433,0.32-12.865,0.491-19.297
				c0.149-5.632,0.339-11.263,0.461-16.896c0.171-7.907,0.453-15.811,0.711-23.716c0.07-2.138,2.313-4.315,4.742-4.199
				c4.389,0.209,8.783,0.037,13.167,0.324c1.196,0.078,2.398,0.065,3.598,0.1c0.939,0.027,1.796,0.091,2.729,0.559
				c0.924,0.463,2.182,0.29,3.295,0.34c1.238,0.056,2.479,0.074,3.718,0.062c0.935-0.008,1.816,0.135,2.661,0.557
				c0.853,0.426,1.782,0.409,2.696,0.295c1.419-0.175,2.767-0.04,4.063,0.62c0.937,0.477,1.969,0.15,2.957,0.198
				c0.644,0.031,1.274-0.005,1.791,0.489c0.132,0.125,0.364,0.241,0.532,0.22c2.475-0.301,4.741,0.858,7.17,1.034
				c1.458,0.105,2.976,0.67,4.466,1.003c2.072,0.463,4.146,0.946,6.212,1.418c1.513,0.345,3.057,0.73,4.565,1.114
				c1.515,0.385,2.924,1.214,4.536,1.232c0.189,0.002,0.379,0.097,0.565,0.158c5.957,1.968,11.974,3.735,17.79,6.148
				c8.804,3.652,17.411,7.69,25.685,12.407c2.957,1.686,5.863,3.48,8.718,5.365c3.118,2.058,6.264,4.091,9.306,6.257
				c5.271,3.754,10.329,7.789,15.24,12.013c2.573,2.214,5.275,4.268,7.552,6.814c0.582,0.65,0.848,1.281,0.827,2.133
				c-0.143,5.754-0.199,11.511-0.398,17.263c-0.208,6.03-0.311,12.062-0.49,18.091c-0.168,5.67-0.356,11.339-0.481,17.011
				c-0.129,5.832-0.266,11.666-0.479,17.495c-0.315,8.667-0.478,17.337-0.722,26.005c-0.235,8.35-0.535,16.697-0.723,25.048
				c-0.139,6.152-0.334,12.304-0.477,18.456c-0.136,5.832-0.319,11.664-0.482,17.497c-0.165,5.87-0.329,11.74-0.468,17.611
				c-0.211,8.944-0.577,17.885-0.864,26.828c-0.04,1.238-0.005,2.479-0.005,3.719C324.952,446.635,324.85,446.635,324.748,446.635z"
				/>
			<path fill-rule="evenodd" clip-rule="evenodd" fill="#FEFEFE" d="M337.393,396.777c0.158-3.82,0.203-7.928,0.326-12.029
				c0.177-5.9,0.277-11.804,0.488-17.701c0.111-3.114-0.006-6.236,0.229-9.335c0.206-2.708,0.113-5.409,0.201-8.111
				c0.302-9.333,0.613-18.666,0.92-27.999c0.003-0.08,0.007-0.16,0.009-0.24c0.171-7.787,0.286-15.576,0.539-23.361
				c0.1-3.077,0.104-6.157,0.233-9.23c0.362-8.574,0.504-17.152,0.755-25.728c0.078-2.663,0.036-5.331,0.191-7.99
				c0.282-4.815,0.475-9.632,0.463-14.456c-0.002-0.433,0.067-0.877,0.429-1.049c1.195-0.567,1.913-1.741,3.083-2.333
				c0.385-0.195,0.739-0.477,1.055-0.775c4.807-4.537,10.18-8.326,15.687-11.944c6.055-3.979,12.298-7.632,18.604-11.197
				c3.454-1.952,6.998-3.723,10.556-5.447c3.886-1.884,7.95-3.402,11.948-5.052c3.554-1.466,7.159-2.785,10.869-3.811
				c0.794-0.219,1.509-0.722,2.302-0.949c4.408-1.263,8.827-2.489,13.327-3.396c0.539-0.108,1.059-0.31,1.589-0.46
				c3.337-0.942,6.74-1.855,10.131-2.242c3.189-0.364,6.247-1.62,9.512-1.376c0.422,0.031,0.861-0.122,1.287-0.219
				c3.001-0.68,6.025-1.187,9.112-1.223c0.16-0.002,0.359,0.057,0.475-0.017c1.739-1.11,3.63-0.373,5.449-0.446
				c0.845-0.034,1.672-0.021,2.389-0.545c0.36-0.263,0.769-0.193,1.159-0.181c2.078,0.063,4.156,0.145,6.234,0.218
				c0.77,0.027,1.529-0.023,2.169-0.509c0.357-0.271,0.76-0.236,1.146-0.234c5.318,0.024,10.631,0.311,15.952,0.331
				c1.718,0.006,3.515,0.087,5.039,1.404c1.329,1.148,1.512,2.469,1.246,3.955c-0.099,0.555-0.146,1.092-0.149,1.64
				c-0.037,4.625-0.213,9.247-0.309,13.87c-0.118,5.738-0.276,11.479-0.488,17.215c-0.107,2.905,0.022,5.819-0.222,8.708
				c-0.274,3.268-0.061,6.532-0.213,9.792c-0.544,11.648-0.723,23.305-1.003,34.961c-0.072,2.985,0.038,5.985-0.23,8.954
				c-0.259,2.872-0.076,5.733-0.198,8.596c-0.486,11.329-0.704,22.666-1.01,34.001c-0.07,2.634,0.013,5.283-0.229,7.901
				c-0.28,3.03,0.018,6.065-0.239,9.076c-0.269,3.155-0.085,6.306-0.21,9.455c-0.452,11.417-0.729,22.838-1.008,34.261
				c-0.066,2.742,0.045,5.502-0.22,8.229c-0.251,2.588-0.094,5.171-0.233,7.752c-0.117,2.155-1.497,3.637-3.669,3.592
				c-4.356-0.09-8.726-0.013-13.065-0.274c-4.147-0.25-8.3,0.122-12.432-0.339c-3.03,1.401-6.421-0.089-9.469,1.181
				c-0.069,0.028-0.16,0.023-0.238,0.012c-3.134-0.472-6.152,0.61-9.249,0.764c-1.491,0.074-3.071,0.333-4.589,0.598
				c-1.199,0.209-2.434,0.305-3.582,0.579c-1.306,0.312-2.724,0.271-3.892,0.76c-1.7,0.711-3.486,0.491-5.212,0.958
				c-2.449,0.662-4.986,1.188-7.525,1.578c-2.226,0.343-4.312,1.356-6.49,1.752c-3.401,0.618-6.649,1.721-9.893,2.767
				c-3.994,1.287-7.942,2.758-11.891,4.206c-7.076,2.596-13.789,5.983-20.659,9.025c-2.787,1.235-5.373,2.892-8.047,4.354
				c-3.044,1.664-5.919,3.609-9.043,5.151c-2.512,1.24-4.73,3.066-7.102,4.598c-2.381,1.538-4.643,3.239-6.949,4.877
				c-2.297,1.631-4.429,3.483-6.812,4.991c-0.244,0.154-0.462,0.345-0.757,0.24c-0.364-0.129-0.24-0.469-0.232-0.723
				c0.122-4.062,0.268-8.122,0.383-12.185c0.131-4.635,0.226-9.271,0.357-13.907c0.298-10.547,0.611-21.093,0.91-31.641
				C337.42,399.302,337.393,398.181,337.393,396.777z"/>
			<path fill-rule="evenodd" clip-rule="evenodd" fill="#9A968C" d="M180.889,415.104c3.918,0,7.837-0.001,11.756,0.002
				c0.317,0,0.691-0.074,0.944,0.062c2.411,1.3,5.036,1.064,7.621,1.112c0.687,0.013,1.356-0.002,1.907,0.521
				c0.393,0.372,0.909,0.224,1.377,0.237c1.653,0.051,3.354-0.261,4.877,0.715c0.191,0.122,0.458,0.179,0.688,0.177
				c2.821-0.021,5.479,1.095,8.236,1.271c3.02,0.193,5.808,1.287,8.741,1.793c2.653,0.458,5.319,1.217,7.91,2.188
				c1.406,0.526,2.916,1.165,4.508,1.256c1.384,0.08,2.582,0.803,3.84,1.261c2.248,0.819,4.7,1.017,6.815,2.179
				c2.22,1.22,4.72,1.633,7.009,2.606c1.57,0.669,3.179,1.244,4.728,1.939c6.367,2.861,12.607,5.984,18.641,9.503
				c4.541,2.647,9.092,5.282,13.572,8.031c2,1.229,3.877,2.67,5.729,4.119c1.189,0.932,2.743,1.329,3.691,2.588
				c0.193,0.256,0.695,0.439,0.324,0.869c-0.311,0.36-0.631,0.104-0.956-0.074c-5.218-2.84-10.746-5.021-16.123-7.521
				c-1.604-0.745-3.436-0.934-5.082-1.681c-5.808-2.637-11.971-4.285-18.006-6.277c-2.138-0.706-4.285-1.44-6.471-2.041
				c-1.485-0.407-3.044-0.67-4.533-1.185c-1.213-0.419-2.565-1.023-3.987-0.878c-0.31,0.032-0.649-0.007-0.947-0.101
				c-2.434-0.76-4.916-1.225-7.432-1.664c-2.572-0.448-5.219-0.819-7.684-1.559c-2.48-0.743-5.167-0.313-7.5-1.614
				c-0.441-0.246-1.096-0.152-1.651-0.145c-1.439,0.019-2.817,0.011-4.172-0.74c-0.887-0.491-2.041-0.104-3.073-0.164
				c-1.13-0.064-2.326,0.271-3.31-0.657c-0.179-0.169-0.615-0.081-0.932-0.084c-1.8-0.017-3.6-0.009-5.399-0.04
				c-1.119-0.02-2.227-0.109-3.262-0.634c-0.342-0.173-0.768-0.242-1.157-0.251c-10.354-0.226-20.708-0.439-31.062-0.65
				c-1.238-0.025-2.524-0.246-3.704,0.01c-1.673,0.363-3.307,0.782-5.036,0.631c-0.954-0.084-1.914-0.109-2.867-0.196
				c-0.643-0.058-1.248-0.059-1.867,0.218c-1.087,0.485-2.236,0.434-3.408,0.342c-1.315-0.103-2.711-0.562-3.904,0.484
				c-0.1,0.088-0.308,0.091-0.459,0.076c-2.224-0.214-4.356,0.425-6.531,0.672c-1.647,0.187-3.382,0.469-4.654-1.108
				c-0.468-0.58-0.762-1.175-0.76-1.95c0.02-7.639,0.258-15.269,0.613-22.899c0.285-6.109,0.242-12.234,0.392-18.351
				c0.208-8.475,0.469-16.947,0.69-25.422c0.249-9.514,0.366-19.032,0.749-28.54c0.373-9.271,0.463-18.547,0.771-27.817
				c0.347-10.431,0.66-20.86,0.892-31.294c0.198-8.915,0.407-17.83,0.74-26.74c0.343-9.151,0.549-18.305,0.752-27.459
				c0.118-5.312,0.447-10.618,0.663-15.928c0.024-0.604,0.231-1.073,0.679-1.465c1.114-0.975,2.346-1.621,3.882-1.606
				c3.479,0.033,6.959,0.021,10.439,0.046c1.512,0.011,1.666,0.153,1.57,1.685c-0.605,9.704-0.296,19.432-0.773,29.136
				c-0.446,9.07-0.315,18.152-0.719,27.219c-0.381,8.551-0.412,17.109-0.725,25.659c-0.326,8.911-0.422,17.828-0.721,26.737
				c-0.317,9.432-0.465,18.869-0.785,28.298c-0.362,10.671-0.524,21.346-0.899,32.014c-0.341,9.711-0.697,19.419-0.775,29.137
				c-0.02,2.469,0.712,4.518,2.003,6.697c3.237,5.467,8.222,6.906,13.98,7.016c3.199,0.061,6.399,0.011,9.599,0.011
				C180.889,414.958,180.889,415.031,180.889,415.104z"/>
			<path fill-rule="evenodd" clip-rule="evenodd" fill="#9A968C" d="M508.438,395.329c0.317-10.751,0.701-21.22,0.913-31.692
				c0.215-10.553,0.611-21.1,0.932-31.648c0.265-8.713,0.385-17.429,0.58-26.144c0.109-4.915,0.691-9.809,0.682-14.73
				c-0.002-0.839,0.061-1.676-0.586-2.373c-0.252-0.271-0.159-0.685-0.167-1.043c-0.148-6.603,0.419-13.182,0.655-19.771
				c0.155-4.314-0.036-8.642,0.135-12.955c0.412-10.426,0.681-20.854,0.889-31.287c0.087-4.395,0.365-8.785,0.513-13.179
				c0.032-0.959,0.375-1.386,1.356-1.358c3.717,0.105,7.437,0.146,11.151,0.28c1.509,0.054,2.662,1.023,3.826,1.853
				c0.531,0.378,0.271,1.062,0.221,1.581c-0.767,7.976-0.362,15.984-0.686,23.971c-0.393,9.708-0.438,19.427-0.797,29.134
				c-0.411,11.148-0.59,22.301-0.91,33.451c-0.074,2.595-0.308,5.185-0.465,7.777c-0.031,0.525-0.026,1.041,0.4,1.446
				c0.357,0.341,0.316,0.791,0.322,1.233c0.1,7.439-0.248,14.864-0.611,22.292c-0.227,4.63-0.001,9.281-0.183,13.915
				c-0.451,11.466-0.59,22.94-0.957,34.407c-0.264,8.232-0.438,16.465-0.686,24.696c-0.306,10.19-0.777,20.374-0.862,30.571
				c-0.019,2.306-2.087,4.296-4.467,4.264c-1.555-0.021-3.216,0.426-4.621-0.69c-3.143,0.284-6.085-1.348-9.242-0.968
				c-0.801,0.097-1.604,0.089-2.258-0.523c-0.297-0.277-0.682-0.181-1.033-0.185c-1.56-0.019-3.119-0.032-4.679-0.036
				c-0.855-0.002-1.683-0.105-2.374-0.658c-0.349-0.278-0.735-0.251-1.133-0.272c-8.748-0.478-17.506-0.452-26.262-0.521
				c-3.036-0.024-6.07-0.233-9.105-0.359c-0.358-0.015-0.705-0.044-1.06,0.102c-1.841,0.757-3.752,0.583-5.67,0.429
				c-1.417-0.114-2.852-0.397-4.19,0.479c-0.501,0.328-1.175,0.115-1.77,0.126c-1.598,0.027-3.315-0.324-4.759,0.155
				c-1.327,0.441-2.618,0.512-3.934,0.675c-4.306,0.532-8.607,1.145-12.93,1.486c-1.661,0.131-3.392,0.254-4.906,0.688
				c-1.995,0.57-4.055,0.55-6.051,1.136c-1.677,0.493-3.446,0.896-5.188,1.28c-3.871,0.852-7.779,1.53-11.611,2.58
				c-2.417,0.662-4.896,1.097-7.206,2.118c-0.146,0.064-0.304,0.164-0.449,0.154c-2.451-0.166-4.437,1.315-6.673,1.915
				c-2.218,0.594-4.4,1.328-6.512,2.321c-1.855,0.872-3.964,1.191-5.899,1.916c-3.834,1.437-7.811,2.538-11.358,4.681
				c-0.341,0.205-0.816,0.751-1.229,0.12c-0.38-0.58,0.065-1.012,0.502-1.288c2.088-1.318,4.241-2.535,6.294-3.904
				c6.946-4.631,14.651-7.863,21.896-11.945c0.875-0.493,1.875-0.584,2.811-1.057c2.539-1.284,5.146-2.527,7.834-3.455
				c1.639-0.565,3.315-1.086,4.893-1.775c4.515-1.974,9.346-2.919,13.982-4.484c1.715-0.578,3.356-1.298,5.272-1.403
				c1.084-0.061,2.345-0.534,3.479-0.952c1.877-0.692,3.833-1.374,5.759-1.499c2.557-0.167,4.98-0.826,7.458-1.268
				c2.31-0.412,4.697-0.446,6.923-1.324c0.318-0.126,0.707-0.087,1.064-0.094c1.181-0.021,2.391,0.23,3.461-0.587
				c0.24-0.184,0.693-0.106,1.05-0.117c1.5-0.045,3.054,0.271,4.42-0.669c0.06-0.041,0.156-0.052,0.231-0.043
				c3.52,0.42,6.984-1.188,10.523-0.283c0.41,0.104,0.917,0.16,1.287-0.108c1.048-0.757,2.198-0.511,3.351-0.469
				c2.077,0.075,4.156,0.106,6.235,0.124c5.317,0.045,10.636-0.047,15.953,0.193c5.582,0.251,9.978-2.164,13.365-6.443
				c1.031-1.303,1.609-2.938,1.642-4.672c0.01-0.57,0.046-1.137,0.354-1.615c0.749-1.164,0.888-2.436,0.873-3.783
				C508.413,401.846,508.438,398.446,508.438,395.329z"/>
			<path fill-rule="evenodd" clip-rule="evenodd" fill="#080A0B" d="M201.06,329.16c2.497,0.119,4.402,0.31,6.315,0.223
				c0.277-0.012,0.63-0.063,0.824,0.076c1.477,1.064,3.188,0.393,4.742,0.705c2.412,0.484,4.913,0.422,7.263,1.216
				c0.809,0.273,1.648,0.287,2.475,0.38c0.732,0.083,1.404,0.247,2.012,0.67c0.19,0.132,0.418,0.299,0.629,0.299
				c1.152-0.003,2.292,0.498,3.311,0.545c2.5,0.116,4.672,1.253,7.049,1.649c1.214,0.203,2.355,0.686,3.504,1.137
				c1.842,0.723,3.846,0.841,5.698,1.643c2.47,1.069,5.126,1.707,7.603,2.764c4.661,1.988,9.43,3.733,13.887,6.197
				c4.657,2.576,9.611,4.594,14.038,7.61c3.29,2.242,6.565,4.5,9.822,6.788c2.714,1.908,5.245,4.02,7.794,6.118
				c0.861,0.709,1.691,1.473,2.437,2.301c1.439,1.601,1.036,3.677-0.851,4.712c-1.806,0.992-3.109,0.912-4.48-0.471
				c-3.311-3.34-7.248-5.868-11.035-8.586c-1.94-1.392-3.896-2.787-5.887-4.075c-2.653-1.718-5.513-3.174-8.225-4.807
				c-2.63-1.583-5.48-2.652-8.134-4.154c-2.685-1.519-5.668-2.453-8.497-3.679c-3.034-1.313-6.168-2.307-9.237-3.491
				c-3.331-1.285-6.711-2.396-10.228-3.177c-1.694-0.376-3.465-0.921-5.164-1.531c-1.673-0.602-3.57-0.703-5.333-1.188
				c-2.299-0.633-4.755-0.501-6.995-1.435c-0.208-0.087-0.474-0.036-0.714-0.044c-1.29-0.042-2.505-0.004-3.809-0.592
				c-1.188-0.535-2.748-0.268-4.145-0.31c-0.682-0.021-1.316-0.083-1.961-0.378c-1.47-0.672-3.061-0.498-4.604-0.404
				c-1.561,0.095-2.786-0.46-3.887-1.493c-1.566-1.471-1.287-3.563,0.646-4.599C199.096,329.15,200.355,329.065,201.06,329.16z"/>
			<path fill-rule="evenodd" clip-rule="evenodd" fill="#080A0B" d="M205.375,224.953c1.586,0.032,3.167-0.17,4.75,0.619
				c1.518,0.757,3.306,0.125,4.965,0.301c0.158,0.017,0.354-0.057,0.475,0.013c2.164,1.25,4.71,0.478,6.985,1.384
				c1.553,0.62,3.354,0.585,5.004,1.005c2.272,0.579,4.579,1.05,6.858,1.545c2.626,0.571,5.158,1.501,7.845,1.888
				c1.836,0.264,3.584,1.179,5.352,1.856c1.075,0.411,2.202,0.676,3.262,1.085c3.576,1.381,7.161,2.731,10.669,4.298
				c5.474,2.445,10.921,4.913,16.181,7.807c6.065,3.338,11.595,7.449,17.21,11.447c2.863,2.039,5.525,4.318,8.14,6.659
				c0.967,0.865,1.191,1.957,0.887,3.159c-0.651,2.575-3.673,3.425-5.761,1.611c-5.902-5.128-12.072-9.903-18.822-13.863
				c-5.853-3.433-11.75-6.79-17.981-9.532c-3.817-1.68-7.762-2.999-11.625-4.525c-3.201-1.265-6.495-2.196-9.714-3.37
				c-1.258-0.459-2.66-0.521-3.922-0.971c-3.194-1.14-6.5-1.972-9.81-2.435c-3.897-0.545-7.636-2.036-11.633-1.899
				c-2.474-1.283-5.221-0.25-7.709-0.869c-1.903-0.474-3.764-0.74-5.698-0.908c-1.585-0.139-2.341-2.514-1.685-3.936
				C200.821,224.665,203.004,224.675,205.375,224.953z"/>
			<path fill-rule="evenodd" clip-rule="evenodd" fill="#080A0B" d="M204.793,259.78c0.839,0,1.679-0.019,2.517,0.007
				c0.474,0.015,1.037-0.042,1.402,0.186c1.846,1.153,3.869,0.58,5.814,0.679c0.85,0.043,1.663,0.109,2.411,0.539
				c0.646,0.371,1.313,0.468,2.065,0.354c1.16-0.176,2.31-0.093,3.311,0.626c0.291,0.209,0.609,0.215,0.917,0.178
				c1.831-0.221,3.508,0.407,5.202,0.924c0.951,0.291,1.878,0.582,2.9,0.6c1.347,0.023,2.538,0.749,3.836,1.07
				c4.917,1.217,9.776,2.69,14.549,4.395c3.083,1.101,6.118,2.371,9.162,3.562c5.859,2.292,11.313,5.332,16.889,8.151
				c5.559,2.812,10.665,6.346,15.642,10.083c3.13,2.351,6.245,4.717,9.242,7.232c0.896,0.752,1.867,1.449,2.236,2.712
				c0.402,1.378,0.196,2.472-0.881,3.457c-1.087,0.995-2.272,0.961-3.546,0.548c-0.621-0.201-1.128-0.587-1.612-1.004
				c-5.233-4.512-10.807-8.538-16.592-12.331c-5.712-3.745-11.77-6.809-17.844-9.844c-3.141-1.57-6.443-2.854-9.723-4.162
				c-3.757-1.498-7.616-2.611-11.415-3.937c-1.85-0.645-3.764-1.403-5.597-1.719c-2.643-0.457-5.118-1.516-7.835-1.774
				c-1.862-0.177-3.79-0.892-5.688-1.326c-1.602-0.366-3.255-0.408-4.821-1.092c-0.65-0.285-1.675,0.299-2.334,0.022
				c-2.639-1.108-5.386-0.735-8.099-0.859c-0.312-0.014-0.679-0.033-0.919-0.197c-1.436-0.983-3.053-0.681-4.622-0.714
				c-1.714-0.036-2.324-0.532-3.074-2.293c-0.565-1.328,0.236-2.05,1.007-2.893C200.859,259.248,202.887,259.802,204.793,259.78z"/>
			<path fill-rule="evenodd" clip-rule="evenodd" fill="#080A0B" d="M282.362,320.29c5.872,3.494,11.026,7.991,16.592,11.912
				c0.949,0.669,1.695,1.569,2.406,2.489c1.104,1.429,1.171,2.771,0.174,4.125c-0.954,1.295-2.426,1.659-4.049,1.036
				c-0.568-0.219-1.071-0.533-1.521-0.925c-7.96-6.925-16.577-12.872-25.88-17.877c-6.01-3.234-12.147-6.168-18.435-8.793
				c-1.85-0.772-3.882-1.109-5.733-1.88c-3.407-1.42-7.013-2.166-10.492-3.333c-0.335-0.112-0.699-0.141-1.049-0.208
				c-2.682-0.703-5.362-1.443-8.069-2.007c-1.975-0.412-4.046-0.563-5.956-1.16c-2.493-0.779-5.143-0.52-7.581-1.458
				c-0.798-0.307-1.666-0.187-2.499-0.151c-1.616,0.067-3.167-0.192-4.717-0.641c-1.47-0.425-3.007-0.316-4.523-0.333
				c-1.725-0.021-2.928-0.838-3.705-2.381c-0.392-0.78-0.341-1.444,0.185-2.107c1.226-1.549,2.592-2.571,4.804-2.172
				c1.633,0.295,3.348,0.059,5.026,0.067c0.686,0.004,1.353,0.034,1.903,0.542c0.35,0.324,0.81,0.296,1.251,0.296
				c1.119,0.001,2.238,0.012,3.357-0.003c0.696-0.01,1.353,0.08,1.93,0.507c0.262,0.193,0.562,0.379,0.882,0.312
				c1.514-0.32,2.9,0.308,4.335,0.555c0.903,0.155,1.792,0.393,2.723,0.315c0.237-0.02,0.531-0.085,0.709,0.039
				c1.622,1.129,3.68,0.433,5.364,1.319c1.691,0.89,3.64,0.848,5.426,1.394c5.244,1.602,10.519,3.105,15.713,4.871
				c1.629,0.554,3.047,1.56,4.709,2.041c4.054,1.173,7.694,3.297,11.456,5.127c2.621,1.275,5.249,2.547,7.808,3.943
				C277.461,317.143,280.002,318.572,282.362,320.29z"/>
			<path fill-rule="evenodd" clip-rule="evenodd" fill="#929192" d="M282.362,320.29c-0.316,0.048-0.523-0.177-0.75-0.322
				c-7.079-4.518-14.626-8.153-22.249-11.615c-4.663-2.119-9.536-3.739-14.366-5.46c-3.198-1.14-6.5-1.863-9.725-2.803
				c-3.002-0.875-6.075-1.751-9.24-2.252c-2.46-0.389-4.969-0.873-7.441-1.352c-2.604-0.504-5.216-1.297-7.94-0.944
				c-0.271,0.035-0.625,0.065-0.822-0.072c-1.958-1.362-4.184-0.655-6.289-0.85c-0.555-0.052-1.133,0.072-1.676-0.022
				c-2.081-0.363-3.274,0.831-4.341,2.336c-0.377,0.532-0.377,1.027-0.085,1.56c0.823,1.501,1.928,2.476,3.805,2.376
				c1.782-0.095,3.526-0.065,5.296,0.6c1.67,0.627,3.558,0.341,5.355,0.335c0.529-0.001,1.025,0.008,1.442,0.418
				c0.264,0.26,0.632,0.32,1.002,0.331c1.741,0.046,3.4,0.258,5.129,0.763c1.698,0.497,3.548,0.908,5.368,1.033
				c1.766,0.121,3.397,0.728,5.052,1.2c1.495,0.426,3.199,0.167,4.49,1.288c-1.834-0.278-3.647-0.438-5.442-1.158
				c-1.812-0.728-3.88-0.814-5.835-1.187c-3.43-0.653-6.835-1.58-10.296-1.894c-3.887-0.353-7.715-1.196-11.628-1.275
				c-2.181-0.044-3.589-1.042-4.13-2.818c-0.266-0.872-0.094-1.577,0.529-2.303c1.389-1.617,2.953-2.4,5.161-1.926
				c1.188,0.256,2.469,0.059,3.708,0.088c1.097,0.026,2.182-0.132,3.216,0.606c0.461,0.329,1.315,0.095,1.99,0.137
				c1.565,0.096,3.141-0.227,4.653,0.708c0.689,0.427,1.769,0.012,2.687,0.198c1.75,0.354,3.621,0.429,5.268,0.899
				c2.042,0.583,4.155,0.741,6.188,1.433c3.796,1.29,7.738,2.153,11.625,3.172c0.969,0.254,1.944,0.499,2.813,0.991
				c1.38,0.782,2.969,0.849,4.436,1.35c2.829,0.967,5.49,2.322,8.33,3.28c3.189,1.076,6.208,2.711,9.209,4.278
				c4.349,2.271,8.836,4.29,12.984,6.938C280.739,318.925,281.776,319.315,282.362,320.29z"/>
			<path fill-rule="evenodd" clip-rule="evenodd" fill="#090B0B" d="M441.692,309.687c-2.373,0.319-4.691,0.938-7.041,1.349
				c-3.319,0.582-6.479,1.79-9.827,2.255c-1.427,0.198-2.811,0.773-4.187,1.255c-8.18,2.866-16.369,5.769-24.116,9.652
				c-5.082,2.548-10.184,5.149-14.873,8.439c-1.752,1.229-3.623,2.265-5.36,3.548c-2.233,1.65-4.274,3.571-6.726,4.944
				c-1.514,0.849-2.387,0.868-3.603-0.36c-0.31-0.312-0.626-0.623-0.887-0.974c-1.19-1.598-0.942-3.013,0.646-4.213
				c5.431-4.102,10.946-8.097,16.791-11.578c5.01-2.984,10.217-5.628,15.483-8.153c2.953-1.416,5.99-2.633,9.035-3.776
				c2.16-0.811,4.226-2.023,6.607-2.236c0.285-0.026,0.547-0.302,0.822-0.456c0.627-0.351,1.252-0.731,2.002-0.707
				c0.991,0.032,1.865-0.265,2.708-0.772c0.789-0.474,1.681-0.601,2.591-0.771c1.815-0.338,3.579-0.954,5.372-1.426
				c2.671-0.704,5.366-1.292,8.1-1.716c1.562-0.243,2.979-1.214,4.592-1.152c2.331,0.089,4.527-0.693,6.762-1.074
				c1.645-0.281,3.356-0.142,4.863-0.558c3.265-0.901,6.621-0.187,9.887-1.07c2.203-0.597,4.595,0.161,6.905,0.248
				c1.967,0.073,3.238,1.491,3.092,3.271c-0.18,2.186-1.729,3.448-3.844,3.271c-1.689-0.142-3.324-0.135-5.047,0.409
				c-1.487,0.469-3.243,0.121-4.879,0.073c-0.69-0.021-1.355-0.043-1.966,0.321c-0.438,0.261-0.917,0.217-1.393,0.234
				c-1.116,0.041-2.238-0.134-3.349,0.098c-1.68,0.404-3.429,0.338-5.106,0.805C444.422,309.238,443.008,309.228,441.692,309.687z"
				/>
			<path fill-rule="evenodd" clip-rule="evenodd" fill="#080A0B" d="M467.54,272.049c-1.186,0-2.399-0.233-3.481,0.531
				c-0.196,0.138-0.538,0.099-0.812,0.093c-1.639-0.035-3.304-0.293-4.907-0.078c-2.155,0.291-4.318,0.474-6.461,0.744
				c-2.605,0.328-5.31,0.488-7.795,1.239c-1.751,0.529-3.541,0.537-5.279,0.947c-2.535,0.598-5.084,1.356-7.723,1.601
				c-1.042,0.097-2.042,0.617-3.067,0.923c-11.894,3.55-23.597,7.615-34.645,13.339c-3.271,1.694-6.36,3.746-9.481,5.717
				c-4.204,2.657-8.285,5.492-12.072,8.732c-1.288,1.103-2.77,1.385-4.357,0.749c-2.405-0.963-2.908-3.99-0.88-5.622
				c6.906-5.554,14.213-10.503,22.074-14.631c4.888-2.567,9.717-5.23,14.864-7.282c7.502-2.99,15.186-5.455,22.931-7.671
				c2.268-0.649,4.583-1.498,7.028-1.633c0.903-0.05,1.772-0.505,2.701-0.686c1.363-0.265,2.768-0.379,4.075-0.693
				c1.573-0.378,3.214-0.325,4.739-0.896c0.869-0.325,1.78-0.42,2.71-0.255c0.232,0.041,0.54,0.107,0.706-0.002
				c1.499-0.987,3.162-0.616,4.779-0.627c0.481-0.004,0.942-0.027,1.343-0.382c0.194-0.172,0.513-0.344,0.745-0.311
				c3.812,0.542,7.526-0.934,11.32-0.543c1.445,0.148,2.965,0.025,4.26,0.942c1.207,0.855,1.723,2.174,1.33,3.556
				c-0.344,1.211-1.701,2.181-3.087,2.198C468.579,272.054,468.059,272.049,467.54,272.049z"/>
			<path fill-rule="evenodd" clip-rule="evenodd" fill="#080A0B" d="M464.929,341.649c-1.604-0.076-3.19-0.016-4.727,0.526
				c-0.698,0.247-1.42,0.197-2.137,0.11c-1.674-0.203-3.341-0.384-4.913,0.483c-0.164,0.09-0.39,0.103-0.585,0.097
				c-4.083-0.122-8.01,0.801-11.931,1.77c-0.193,0.048-0.39,0.102-0.587,0.11c-4.651,0.207-9.05,1.594-13.449,2.937
				c-1.673,0.511-3.422,0.417-5.104,1.072c-5.061,1.971-10.314,3.366-15.336,5.539c-4.287,1.855-8.65,3.566-12.836,5.646
				c-4.424,2.197-8.463,5.08-12.744,7.533c-2.316,1.328-4.49,2.887-6.644,4.408c-1.763,1.246-3.65,2.43-5.216,3.976
				c-0.419,0.414-0.869,0.641-1.48,0.635c-1.478-0.014-3.571-1.371-3.873-2.899c-0.311-1.575,0.613-2.905,1.822-3.774
				c3.843-2.762,7.757-5.427,11.67-8.089c7.794-5.301,16.239-9.383,24.839-13.163c2.652-1.166,5.348-2.296,8.077-3.204
				c4.008-1.334,8.032-2.657,12.107-3.814c1.699-0.483,3.512-0.652,5.158-1.474c0.811-0.404,1.945-0.417,2.845-0.484
				c1.832-0.138,3.459-0.908,5.226-1.148c1.294-0.176,2.602-0.837,3.762-0.908c2.025-0.125,3.935-1.12,5.999-0.727
				c0.299,0.057,0.692,0.058,0.934-0.092c1.322-0.817,2.763-0.615,4.188-0.569c0.769,0.024,1.475-0.076,2.172-0.491
				c0.717-0.425,1.562-0.195,2.348-0.112c1.245,0.13,2.462,0.224,3.592-0.503c0.211-0.135,0.538-0.126,0.811-0.122
				c2.719,0.035,5.438,0.054,8.155,0.139c2.096,0.066,3.192,1.376,3.232,3.475c0.032,1.706-1.731,3.443-3.458,3.139
				C466.225,341.558,465.568,341.649,464.929,341.649z"/>
			<path fill-rule="evenodd" clip-rule="evenodd" fill="#080A0B" d="M468.695,237.303c-3.191,0.796-6.479,0.168-9.665,0.563
				c-3.161,0.392-6.345,0.655-9.485,1.175c-1.186,0.196-2.392,0.376-3.571,0.645c-1.236,0.282-2.466,0.498-3.746,0.588
				c-1.268,0.089-2.513,0.578-3.768,0.878c-0.807,0.193-1.577,0.417-2.418,0.433c-1.975,0.036-3.749,0.939-5.622,1.41
				c-4.595,1.155-9.108,2.586-13.594,4.145c-4.305,1.496-8.448,3.383-12.746,4.879c-0.938,0.327-1.836,0.748-2.614,1.4
				c-0.329,0.276-0.719,0.571-1.123,0.653c-2.864,0.579-5.222,2.306-7.745,3.576c-3.677,1.85-7.191,4.057-10.603,6.401
				c-2.098,1.441-4.006,3.147-6.304,4.318c-0.819,0.417-1.424,1.267-2.104,1.942c-1.228,1.219-2.743,1.722-4.425,1.749
				c-1.199,0.019-2.01-0.574-2.423-1.73c-0.42-1.176-0.618-2.277,0.378-3.307c1.366-1.413,2.864-2.659,4.44-3.828
				c1.98-1.467,4.013-2.866,6.018-4.292c2.869-2.04,5.914-3.837,8.991-5.579c3.663-2.075,7.436-3.931,11.188-5.821
				c4.776-2.406,9.783-4.305,14.776-6.224c3.182-1.222,6.442-2.205,9.695-3.162c2.138-0.629,4.303-1.27,6.505-1.75
				c1.593-0.347,3.24-0.708,4.832-1.091c1.453-0.349,2.935-0.805,4.46-1.021c1.346-0.191,2.782-0.367,4.082-0.936
				c0.18-0.079,0.37-0.203,0.553-0.199c3.305,0.07,6.451-0.93,9.675-1.399c0.383-0.056,0.801,0.005,1.182,0.096
				c0.4,0.096,0.868,0.224,1.172,0.031c1.898-1.21,3.963-0.496,5.953-0.571c0.88-0.034,1.736,0.046,2.533-0.479
				c0.438-0.289,1.001-0.23,1.522-0.217c1.638,0.042,3.276,0.071,4.915,0.13c1.929,0.069,3.613,1.843,3.596,3.762
				c-0.012,1.309-1.582,2.762-3.071,2.828C469.656,237.32,469.175,237.303,468.695,237.303z"/>
			<path fill-rule="evenodd" clip-rule="evenodd" fill="#808080" d="M441.692,309.687c0.271-0.331,0.665-0.465,1.051-0.501
				c2.722-0.25,5.334-1.29,8.112-1.122c-0.471,0.572-1.032,0.665-1.779,0.588c-1.226-0.127-2.441,0.192-3.639,0.466
				C444.202,309.402,442.961,309.63,441.692,309.687z"/>
		</g>
	</g>
</g>
</svg>
