<?xml version="1.0" encoding="utf-8"?>
<!-- Generator: Adobe Illustrator 16.0.0, SVG Export Plug-In . SVG Version: 6.00 Build 0)  -->
<!DOCTYPE svg PUBLIC "-//W3C//DTD SVG 1.1//EN" "http://www.w3.org/Graphics/SVG/1.1/DTD/svg11.dtd">
<svg version="1.1" id="Layer_1" xmlns="http://www.w3.org/2000/svg" xmlns:xlink="http://www.w3.org/1999/xlink" x="0px" y="0px"
	 width="360px" height="360px" viewBox="0 0 360 360" enable-background="new 0 0 360 360" xml:space="preserve">
<g id="K2luzq_1_">
	<g>
		<g>
			<path fill="#FFFFFF" d="M10.08,251.336c0-54.362,0-108.636,0-162.935c113.44,0,226.88,0,340.314,0c0,54.314,0,108.625,0,162.935
				C236.964,251.336,123.537,251.336,10.08,251.336z M178.372,169.42c2.4,0,4.8-0.009,7.2,0.003
				c1.425,0.008,1.603,0.207,1.611,1.579c0.051,7.399,1.041,14.674,3.277,21.727c1.595,5.03,3.854,9.776,6.714,14.248
				c4.413,6.902,9.973,12.656,16.729,17.266c4.265,2.91,8.842,5.194,13.657,7.073c4.71,1.837,9.54,3.22,14.498,4.055
				c11.001,1.854,22.037,1.957,33.083,0.26c8.511-1.309,16.601-3.863,24.228-7.885c6.354-3.35,11.966-7.637,16.769-12.985
				c6.469-7.204,10.883-15.528,13.422-24.837c1.68-6.161,2.342-12.482,2.498-18.857c0.036-1.458,0.193-1.643,1.674-1.645
				c3.4-0.005,6.8,0.001,10.2,0.002c1.636,0.001,1.708-0.085,1.702-1.664c-0.011-2.72-0.012-5.44,0.003-8.16
				c0.007-1.42-0.142-1.597-1.545-1.598c-3.8,0-7.6-0.008-11.399,0.014c-0.975,0.005-1.569-0.269-1.728-1.359
				c-0.905-6.243-2.75-12.198-5.492-17.887c-2.727-5.658-6.208-10.792-10.511-15.358c-6.194-6.576-13.481-11.614-21.871-14.94
				c-3.992-1.583-8.077-3.073-12.254-4.011c-4.698-1.055-9.528-1.664-14.334-2.068c-10.805-0.911-21.505-0.015-31.959,2.918
				c-5.569,1.562-10.896,3.792-15.955,6.682c-7.144,4.082-13.239,9.315-18.266,15.812c-4.417,5.708-7.784,12.013-9.812,18.913
				c-1.312,4.461-1.968,9.116-2.877,13.693c-0.136,0.682-0.314,1.116-1.099,1.115c-5.439-0.011-10.88-0.005-16.319-0.008
				c-0.754,0-1.157-0.32-1.22-1.142c-0.363-4.684-1.39-9.254-2.816-13.703c-1.449-4.521-3.438-8.826-5.9-12.918
				c-4.846-8.053-11.219-14.612-19.058-19.75c-7.009-4.594-14.682-7.702-22.814-9.597c-9.332-2.174-18.808-2.677-28.37-2.091
				c-6.093,0.374-12.11,1.256-17.926,3c-4.406,1.321-8.661,3.202-12.885,5.056c-4.33,1.9-8.233,4.568-11.866,7.583
				c-7.601,6.306-13.384,13.975-17.231,23.107c-2.056,4.882-3.541,9.906-4.344,15.136c-0.256,1.668-0.383,1.8-2.044,1.803
				c-3.8,0.005-7.6,0.017-11.399-0.012c-1.049-0.008-1.484,0.292-1.443,1.46c0.098,2.797,0.053,5.599,0.033,8.398
				c-0.011,1.485,0.033,1.574,1.5,1.576c3.56,0.005,7.12-0.012,10.68,0.003c1.381,0.006,1.549,0.233,1.57,1.628
				c0.11,7.392,1.047,14.671,3.306,21.722c1.61,5.027,3.857,9.775,6.718,14.245c3.771,5.892,8.394,10.984,13.922,15.236
				c7.939,6.105,16.967,9.93,26.642,12.253c6.949,1.668,14.05,2.409,21.178,2.27c5.501-0.107,11.027-0.52,16.477-1.273
				c4.288-0.593,8.542-1.699,12.691-2.969c4.569-1.398,8.93-3.39,13.098-5.783c5.272-3.027,10.061-6.672,14.167-11.142
				c7.33-7.979,12.25-17.238,14.674-27.846c1.263-5.529,1.822-11.114,2.002-16.756c0.043-1.344,0.231-1.586,1.614-1.591
				C173.572,169.412,175.972,169.418,178.372,169.42z"/>
			<path fill-rule="evenodd" clip-rule="evenodd" d="M178.372,169.419c-2.4-0.001-4.8-0.007-7.2,0.001
				c-1.383,0.005-1.571,0.248-1.614,1.591c-0.18,5.642-0.739,11.227-2.002,16.756c-2.423,10.607-7.344,19.867-14.674,27.846
				c-4.106,4.47-8.895,8.114-14.167,11.142c-4.168,2.394-8.529,4.385-13.098,5.783c-4.149,1.27-8.403,2.376-12.691,2.969
				c-5.45,0.754-10.976,1.166-16.477,1.273c-7.128,0.14-14.229-0.602-21.178-2.27c-9.675-2.323-18.703-6.147-26.642-12.253
				c-5.528-4.252-10.151-9.345-13.922-15.236c-2.861-4.47-5.107-9.218-6.718-14.245c-2.259-7.051-3.196-14.331-3.306-21.722
				c-0.021-1.395-0.189-1.622-1.57-1.628c-3.56-0.015-7.12,0.002-10.68-0.003c-1.468-0.002-1.511-0.091-1.5-1.576
				c0.02-2.8,0.065-5.602-0.033-8.398c-0.041-1.168,0.394-1.468,1.443-1.46c3.799,0.029,7.6,0.018,11.399,0.012
				c1.661-0.003,1.788-0.135,2.044-1.803c0.804-5.23,2.288-10.253,4.344-15.136c3.847-9.133,9.63-16.802,17.231-23.107
				c3.633-3.015,7.537-5.682,11.866-7.583c4.224-1.854,8.479-3.735,12.885-5.056c5.815-1.745,11.833-2.627,17.926-3
				c9.562-0.586,19.038-0.083,28.37,2.091c8.132,1.895,15.805,5.002,22.814,9.597c7.839,5.138,14.211,11.696,19.058,19.75
				c2.462,4.092,4.452,8.398,5.9,12.918c1.426,4.449,2.453,9.02,2.816,13.703c0.063,0.821,0.466,1.141,1.22,1.142
				c5.439,0.003,10.88-0.002,16.319,0.008c0.784,0.001,0.963-0.433,1.099-1.115c0.909-4.577,1.565-9.232,2.877-13.693
				c2.027-6.899,5.395-13.204,9.812-18.913c5.026-6.497,11.122-11.73,18.266-15.812c5.06-2.891,10.386-5.12,15.955-6.682
				c10.454-2.933,21.154-3.829,31.959-2.918c4.806,0.405,9.636,1.014,14.334,2.068c4.177,0.938,8.262,2.428,12.254,4.011
				c8.39,3.326,15.677,8.364,21.871,14.94c4.303,4.567,7.784,9.701,10.511,15.358c2.742,5.688,4.587,11.644,5.492,17.887
				c0.158,1.09,0.753,1.364,1.728,1.359c3.8-0.022,7.6-0.014,11.399-0.014c1.403,0,1.552,0.177,1.545,1.598
				c-0.015,2.72-0.014,5.44-0.003,8.16c0.006,1.579-0.066,1.665-1.702,1.664c-3.4-0.001-6.8-0.007-10.2-0.002
				c-1.48,0.002-1.638,0.188-1.674,1.645c-0.156,6.375-0.818,12.696-2.498,18.857c-2.539,9.309-6.953,17.633-13.422,24.837
				c-4.803,5.349-10.415,9.636-16.769,12.985c-7.627,4.021-15.717,6.576-24.228,7.885c-11.046,1.697-22.082,1.594-33.083-0.26
				c-4.958-0.835-9.788-2.218-14.498-4.055c-4.815-1.879-9.393-4.163-13.657-7.073c-6.757-4.609-12.316-10.363-16.729-17.266
				c-2.86-4.472-5.119-9.218-6.714-14.248c-2.236-7.053-3.227-14.328-3.277-21.727c-0.009-1.372-0.187-1.571-1.611-1.579
				C183.172,169.411,180.771,169.42,178.372,169.419z M301.305,188.572c-0.109-0.105-0.219-0.21-0.328-0.315
				c-2.363,0.79-4.682,0.736-7.059,0.044c-7.435-2.167-10.7-11.317-6.238-17.681c0.498-0.709,0.23-1.021-0.48-1.153
				c-0.35-0.065-0.717-0.046-1.076-0.046c-23.16-0.001-46.32,0-69.479,0.001c-0.4,0-0.801-0.004-1.199,0.028
				c-0.786,0.063-1.099,0.487-1.044,1.286c0.349,5.067,0.725,10.113,2.267,15.015c1.207,3.834,2.743,7.499,4.945,10.85
				c5.044,7.675,11.769,13.251,20.524,16.295c3.38,1.175,6.82,2.022,10.369,2.359c6.276,0.597,12.528,0.542,18.741-0.783
				c5.131-1.095,9.921-2.98,14.293-5.864c6.036-3.981,10.614-9.294,13.919-15.702C300.177,191.513,300.695,190.019,301.305,188.572z
				 M138.789,188.853c-0.122-0.106-0.244-0.213-0.366-0.319c-0.301,0.043-0.61,0.055-0.901,0.133
				c-7.193,1.913-13.781-2.27-15.029-9.626c-0.503-2.965,0.229-5.708,1.934-8.192c0.208-0.304,0.337-0.663,0.503-0.997
				c-0.354-0.142-0.697-0.323-1.063-0.415c-0.264-0.066-0.557-0.017-0.836-0.017c-23.038,0-46.076,0-69.113,0.001
				c-0.319,0-0.641-0.005-0.958,0.021c-0.779,0.065-1.146,0.471-1.049,1.276c0.461,3.803,0.783,7.629,1.402,11.406
				c0.843,5.142,2.851,9.9,5.659,14.257c6.847,10.622,16.665,16.854,29.111,18.619c8.979,1.273,17.926,0.953,26.606-2.247
				c3.974-1.464,7.631-3.424,10.951-6.02c4.334-3.39,7.841-7.515,10.512-12.317C137.146,192.626,137.916,190.711,138.789,188.853z
				 M259.305,161.512c14.194,0,28.389,0,42.583-0.003c0.479,0,1.003,0.072,1.419-0.101c0.294-0.122,0.666-0.643,0.616-0.915
				c-0.968-5.312-2.307-10.499-4.89-15.313c-5.319-9.914-13.46-16.369-24.124-19.629c-4.083-1.249-8.322-1.843-12.633-1.982
				c-9.838-0.318-19.264,1.044-27.858,6.22c-5.513,3.319-9.918,7.763-13.298,13.218c-3.18,5.131-4.902,10.796-5.967,16.692
				c-0.311,1.723-0.243,1.815,1.569,1.815C230.916,161.514,245.11,161.514,259.305,161.512z M96.829,161.513
				c14.233,0,28.467,0,42.7,0c0.36,0,0.722,0.016,1.079-0.016c0.679-0.062,1.022-0.385,0.835-1.12
				c-0.744-2.936-1.375-5.906-2.239-8.806c-1.596-5.358-4.399-10.062-8.102-14.241c-5.929-6.691-13.381-10.822-22.052-12.604
				c-3.77-0.775-7.684-1.032-11.543-1.141c-8.298-0.234-16.27,1.214-23.708,5.157c-6.305,3.341-11.268,8.085-15.049,14.06
				c-3.333,5.268-5.115,11.135-6.134,17.249c-0.212,1.274-0.036,1.465,1.272,1.465C68.202,161.515,82.516,161.514,96.829,161.513z"
				/>
			<path fill-rule="evenodd" clip-rule="evenodd" fill="#FFFFFF" d="M301.305,188.572c-0.609,1.446-1.128,2.94-1.846,4.332
				c-3.305,6.408-7.883,11.721-13.919,15.702c-4.372,2.884-9.162,4.77-14.293,5.864c-6.213,1.325-12.465,1.38-18.741,0.783
				c-3.549-0.337-6.989-1.185-10.369-2.359c-8.756-3.044-15.48-8.62-20.524-16.295c-2.202-3.351-3.738-7.016-4.945-10.85
				c-1.542-4.901-1.918-9.948-2.267-15.015c-0.055-0.799,0.258-1.223,1.044-1.286c0.398-0.032,0.799-0.028,1.199-0.028
				c23.159-0.002,46.319-0.002,69.479-0.001c0.359,0,0.727-0.019,1.076,0.046c0.711,0.132,0.979,0.444,0.48,1.153
				c-4.462,6.364-1.196,15.514,6.238,17.681c2.377,0.692,4.695,0.746,7.059-0.044C301.086,188.362,301.195,188.467,301.305,188.572z
				"/>
			<path fill-rule="evenodd" clip-rule="evenodd" fill="#FFFFFF" d="M138.789,188.853c-0.873,1.858-1.644,3.773-2.639,5.564
				c-2.671,4.803-6.177,8.928-10.512,12.317c-3.32,2.596-6.977,4.556-10.951,6.02c-8.681,3.2-17.628,3.521-26.606,2.247
				c-12.446-1.765-22.264-7.997-29.111-18.619c-2.808-4.356-4.816-9.115-5.659-14.257c-0.619-3.777-0.941-7.603-1.402-11.406
				c-0.098-0.806,0.27-1.211,1.049-1.276c0.318-0.026,0.639-0.021,0.958-0.021c23.038-0.001,46.075-0.001,69.113-0.001
				c0.28,0,0.573-0.05,0.836,0.017c0.366,0.092,0.709,0.272,1.063,0.415c-0.166,0.334-0.294,0.693-0.503,0.997
				c-1.705,2.483-2.437,5.227-1.934,8.192c1.248,7.356,7.835,11.539,15.029,9.626c0.292-0.078,0.6-0.09,0.901-0.133
				C138.545,188.64,138.667,188.746,138.789,188.853z"/>
			<path fill-rule="evenodd" clip-rule="evenodd" fill="#FFFFFF" d="M259.305,161.513c-14.194,0.001-28.389,0.001-42.582,0.001
				c-1.812,0-1.88-0.092-1.569-1.815c1.064-5.896,2.787-11.561,5.967-16.692c3.38-5.455,7.785-9.898,13.298-13.218
				c8.595-5.175,18.021-6.538,27.858-6.22c4.311,0.139,8.55,0.734,12.633,1.982c10.664,3.26,18.805,9.716,24.124,19.629
				c2.583,4.814,3.922,10,4.89,15.313c0.05,0.272-0.322,0.793-0.616,0.915c-0.416,0.173-0.94,0.101-1.419,0.101
				C287.693,161.513,273.499,161.512,259.305,161.513z"/>
			<path fill-rule="evenodd" clip-rule="evenodd" fill="#FFFFFF" d="M96.829,161.513c-14.313,0.001-28.627,0.001-42.94,0.001
				c-1.309,0-1.485-0.19-1.272-1.465c1.019-6.114,2.8-11.981,6.134-17.249c3.782-5.975,8.745-10.719,15.049-14.06
				c7.439-3.942,15.41-5.391,23.708-5.157c3.859,0.109,7.773,0.366,11.543,1.141c8.671,1.783,16.123,5.914,22.052,12.604
				c3.703,4.179,6.506,8.883,8.102,14.241c0.864,2.9,1.495,5.87,2.239,8.806c0.187,0.735-0.156,1.059-0.835,1.12
				c-0.357,0.032-0.719,0.016-1.079,0.016C125.296,161.513,111.062,161.513,96.829,161.513z"/>
		</g>
	</g>
</g>
</svg>
